font.ufo
<glyph name="exclam" format="2">
	<unicode hex="0021"/>
	<advance width="250"/>
	<outline>
		<contour>
			<point x="94" y="177" type="line"/>
			<point x="124" y="177" type="line"/>
			<point x="212" y="602" type="line"/>
			<point x="225" y="672" type="line"/>
			<point x="187" y="672" type="line"/>
		</contour>
		<contour>
			<point x="74" y="-12" type="curve" smooth="yes"/>
			<point x="100" y="-12"/>
			<point x="120" y="13"/>
			<point x="120" y="37" type="curve" smooth="yes"/>
			<point x="120" y="58"/>
			<point x="110" y="73"/>
			<point x="90" y="73" type="curve" smooth="yes"/>
			<point x="64" y="73"/>
			<point x="42" y="47"/>
			<point x="42" y="22" type="curve" smooth="yes"/>
			<point x="42" y="4"/>
			<point x="54" y="-12"/>
		</contour>
	</outline>
</glyph>
<glyph name="numbersign" format="2">
	<unicode hex="0023"/>
	<advance width="464"/>
	<outline>
		<contour>
			<point x="41" y="0" type="line"/>
			<point x="76" y="0" type="line"/>
			<point x="143" y="214" type="line"/>
			<point x="282" y="214" type="line"/>
			<point x="215" y="0" type="line"/>
			<point x="250" y="0" type="line"/>
			<point x="318" y="214" type="line"/>
			<point x="403" y="214" type="line"/>
			<point x="412" y="250" type="line"/>
			<point x="330" y="250" type="line"/>
			<point x="382" y="420" type="line"/>
			<point x="463" y="420" type="line"/>
			<point x="473" y="456" type="line"/>
			<point x="392" y="456" type="line"/>
			<point x="453" y="650" type="line"/>
			<point x="418" y="650" type="line"/>
			<point x="357" y="456" type="line"/>
			<point x="217" y="456" type="line"/>
			<point x="278" y="650" type="line"/>
			<point x="243" y="650" type="line"/>
			<point x="182" y="456" type="line"/>
			<point x="97" y="456" type="line"/>
			<point x="87" y="420" type="line"/>
			<point x="170" y="420" type="line"/>
			<point x="118" y="250" type="line"/>
			<point x="36" y="250" type="line"/>
			<point x="27" y="214" type="line"/>
			<point x="108" y="214" type="line"/>
		</contour>
		<contour>
			<point x="153" y="250" type="line"/>
			<point x="205" y="420" type="line"/>
			<point x="346" y="420" type="line"/>
			<point x="294" y="250" type="line"/>
		</contour>
	</outline>
</glyph>
<glyph name="dollar" format="2">
	<unicode hex="0024"/>
	<advance width="462"/>
	<outline>
		<contour>
			<point x="197" y="-12" type="curve" smooth="yes"/>
			<point x="310" y="-12"/>
			<point x="386" y="70"/>
			<point x="386" y="173" type="curve" smooth="yes"/>
			<point x="386" y="352"/>
			<point x="167" y="356"/>
			<point x="167" y="494" type="curve" smooth="yes"/>
			<point x="167" y="566"/>
			<point x="223" y="615"/>
			<point x="297" y="615" type="curve" smooth="yes"/>
			<point x="347" y="615"/>
			<point x="389" y="582"/>
			<point x="417" y="541" type="curve"/>
			<point x="446" y="566" type="line"/>
			<point x="415" y="612"/>
			<point x="359" y="651"/>
			<point x="299" y="651" type="curve" smooth="yes"/>
			<point x="199" y="651"/>
			<point x="126" y="582"/>
			<point x="126" y="487" type="curve" smooth="yes"/>
			<point x="126" y="334"/>
			<point x="345" y="329"/>
			<point x="345" y="165" type="curve" smooth="yes"/>
			<point x="345" y="82"/>
			<point x="282" y="24"/>
			<point x="198" y="24" type="curve" smooth="yes"/>
			<point x="134" y="24"/>
			<point x="83" y="65"/>
			<point x="52" y="106" type="curve"/>
			<point x="24" y="79" type="line"/>
			<point x="60" y="35"/>
			<point x="123" y="-12"/>
		</contour>
		<contour>
			<point x="147" y="-110" type="line"/>
			<point x="183" y="-110" type="line"/>
			<point x="204" y="-2" type="line"/>
			<point x="169" y="-2" type="line"/>
		</contour>
		<contour>
			<point x="290" y="631" type="line"/>
			<point x="326" y="631" type="line"/>
			<point x="350" y="750" type="line"/>
			<point x="315" y="750" type="line"/>
		</contour>
	</outline>
</glyph>
<glyph name="ampersand" format="2">
	<unicode hex="0026"/>
	<advance width="551"/>
	<outline>
		<contour>
			<point x="166" y="-12" type="curve" smooth="yes"/>
			<point x="244" y="-12"/>
			<point x="313" y="26"/>
			<point x="372" y="85" type="curve" smooth="yes"/>
			<point x="442" y="154"/>
			<point x="498" y="245"/>
			<point x="544" y="343" type="curve"/>
			<point x="507" y="343" type="line"/>
			<point x="464" y="251"/>
			<point x="416" y="172"/>
			<point x="349" y="107" type="curve" smooth="yes"/>
			<point x="298" y="58"/>
			<point x="236" y="21"/>
			<point x="175" y="21" type="curve" smooth="yes"/>
			<point x="106" y="21"/>
			<point x="55" y="69"/>
			<point x="55" y="142" type="curve" smooth="yes"/>
			<point x="55" y="337"/>
			<point x="420" y="376"/>
			<point x="420" y="579" type="curve" smooth="yes"/>
			<point x="420" y="628"/>
			<point x="392" y="671"/>
			<point x="330" y="671" type="curve" smooth="yes"/>
			<point x="248" y="671"/>
			<point x="173" y="595"/>
			<point x="173" y="481" type="curve" smooth="yes"/>
			<point x="173" y="347"/>
			<point x="253" y="184"/>
			<point x="345" y="84" type="curve" smooth="yes"/>
			<point x="388" y="36"/>
			<point x="432" y="4"/>
			<point x="471" y="-12" type="curve"/>
			<point x="488" y="20" type="line"/>
			<point x="451" y="35"/>
			<point x="413" y="67"/>
			<point x="373" y="109" type="curve" smooth="yes"/>
			<point x="283" y="204"/>
			<point x="209" y="359"/>
			<point x="209" y="485" type="curve" smooth="yes"/>
			<point x="209" y="573"/>
			<point x="259" y="639"/>
			<point x="327" y="639" type="curve" smooth="yes"/>
			<point x="368" y="639"/>
			<point x="385" y="607"/>
			<point x="385" y="573" type="curve" smooth="yes"/>
			<point x="385" y="393"/>
			<point x="16" y="361"/>
			<point x="16" y="136" type="curve" smooth="yes"/>
			<point x="16" y="45"/>
			<point x="79" y="-12"/>
		</contour>
	</outline>
</glyph>
<glyph name="quotesingle" format="2">
	<unicode hex="0027"/>
	<advance width="210"/>
	<outline>
		<contour>
			<point x="133" y="467" type="line"/>
			<point x="161" y="467" type="line"/>
			<point x="194" y="602" type="line"/>
			<point x="207" y="672" type="line"/>
			<point x="169" y="672" type="line"/>
			<point x="156" y="602" type="line"/>
		</contour>
	</outline>
</glyph>
<glyph name="parenleft" format="2">
	<unicode hex="0028"/>
	<advance width="267"/>
	<outline>
		<contour>
			<point x="127" y="-175" type="curve"/>
			<point x="153" y="-166" type="line"/>
			<point x="122" y="-87"/>
			<point x="106" y="27"/>
			<point x="106" y="128" type="curve" smooth="yes"/>
			<point x="106" y="357"/>
			<point x="185" y="580"/>
			<point x="327" y="713" type="curve"/>
			<point x="303" y="730" type="line"/>
			<point x="158" y="593"/>
			<point x="70" y="378"/>
			<point x="70" y="133" type="curve" smooth="yes"/>
			<point x="70" y="22"/>
			<point x="93" y="-96"/>
		</contour>
	</outline>
</glyph>
<glyph name="parenright" format="2">
	<unicode hex="0029"/>
	<advance width="269"/>
	<outline>
		<contour>
			<point x="-28" y="-175" type="line"/>
			<point x="117" y="-37"/>
			<point x="204" y="178"/>
			<point x="204" y="423" type="curve" smooth="yes"/>
			<point x="204" y="533"/>
			<point x="181" y="652"/>
			<point x="147" y="730" type="curve"/>
			<point x="121" y="722" type="line"/>
			<point x="152" y="642"/>
			<point x="168" y="528"/>
			<point x="168" y="428" type="curve" smooth="yes"/>
			<point x="168" y="199"/>
			<point x="90" y="-24"/>
			<point x="-52" y="-158" type="curve"/>
		</contour>
	</outline>
</glyph>
<glyph name="asterisk" format="2">
	<unicode hex="002A"/>
	<advance width="380"/>
	<outline>
		<contour>
			<point x="178" y="477" type="line"/>
			<point x="253" y="549" type="line"/>
			<point x="300" y="465" type="line"/>
			<point x="324" y="479" type="line"/>
			<point x="286" y="570" type="line"/>
			<point x="384" y="597" type="line"/>
			<point x="379" y="624" type="line"/>
			<point x="283" y="610" type="line"/>
			<point x="291" y="710" type="line"/>
			<point x="265" y="712" type="line"/>
			<point x="244" y="613" type="line"/>
			<point x="150" y="645" type="line"/>
			<point x="140" y="621" type="line"/>
			<point x="223" y="575" type="line"/>
			<point x="158" y="494" type="line"/>
		</contour>
	</outline>
</glyph>
<glyph name="plus" format="2">
	<unicode hex="002B"/>
	<advance width="461"/>
	<outline>
		<contour>
			<point x="227" y="109" type="line"/>
			<point x="262" y="109" type="line"/>
			<point x="262" y="315" type="line"/>
			<point x="441" y="315" type="line"/>
			<point x="441" y="347" type="line"/>
			<point x="262" y="347" type="line"/>
			<point x="262" y="548" type="line"/>
			<point x="227" y="548" type="line"/>
			<point x="227" y="347" type="line"/>
			<point x="48" y="347" type="line"/>
			<point x="48" y="315" type="line"/>
			<point x="227" y="315" type="line"/>
		</contour>
	</outline>
</glyph>
<glyph name="comma" format="2">
	<unicode hex="002C"/>
	<advance width="210"/>
	<outline>
		<contour>
			<point x="-25" y="-150" type="line"/>
			<point x="51" y="-122"/>
			<point x="108" y="-53"/>
			<point x="108" y="26" type="curve" smooth="yes"/>
			<point x="108" y="54"/>
			<point x="95" y="73"/>
			<point x="71" y="73" type="curve" smooth="yes"/>
			<point x="44" y="73"/>
			<point x="26" y="49"/>
			<point x="26" y="27" type="curve" smooth="yes"/>
			<point x="26" y="6"/>
			<point x="40" y="-7"/>
			<point x="61" y="-7" type="curve" smooth="yes"/>
			<point x="69" y="-7"/>
			<point x="83" y="-5"/>
			<point x="90" y="5" type="curve"/>
			<point x="66" y="55" type="line"/>
			<point x="66" y="-5" type="line"/>
			<point x="59" y="-55"/>
			<point x="21" y="-97"/>
			<point x="-33" y="-121" type="curve"/>
		</contour>
	</outline>
</glyph>
<glyph name="period" format="2">
	<unicode hex="002E"/>
	<advance width="210"/>
	<outline>
		<contour>
			<point x="54" y="-12" type="curve" smooth="yes"/>
			<point x="80" y="-12"/>
			<point x="100" y="13"/>
			<point x="100" y="37" type="curve" smooth="yes"/>
			<point x="100" y="58"/>
			<point x="90" y="73"/>
			<point x="69" y="73" type="curve" smooth="yes"/>
			<point x="44" y="73"/>
			<point x="22" y="47"/>
			<point x="22" y="22" type="curve" smooth="yes"/>
			<point x="22" y="4"/>
			<point x="34" y="-12"/>
		</contour>
	</outline>
</glyph>
<glyph name="slash" format="2">
	<unicode hex="002F"/>
	<advance width="348"/>
	<outline>
		<contour>
			<point x="-74" y="-160" type="line"/>
			<point x="-40" y="-160" type="line"/>
			<point x="434" y="710" type="line"/>
			<point x="400" y="710" type="line"/>
		</contour>
	</outline>
</glyph>
<glyph name="zero" format="2">
	<unicode hex="0030"/>
	<advance width="461"/>
	<outline>
		<contour>
			<point x="189" y="-12" type="curve" smooth="yes"/>
			<point x="334" y="-12"/>
			<point x="442" y="228"/>
			<point x="442" y="440" type="curve" smooth="yes"/>
			<point x="442" y="546"/>
			<point x="396" y="652"/>
			<point x="298" y="652" type="curve" smooth="yes"/>
			<point x="153" y="652"/>
			<point x="45" y="409"/>
			<point x="45" y="198" type="curve" smooth="yes"/>
			<point x="45" y="90"/>
			<point x="89" y="-12"/>
		</contour>
		<contour>
			<point x="190" y="21" type="curve" smooth="yes"/>
			<point x="114" y="21"/>
			<point x="83" y="108"/>
			<point x="83" y="202" type="curve" smooth="yes"/>
			<point x="83" y="377"/>
			<point x="173" y="618"/>
			<point x="295" y="618" type="curve" smooth="yes"/>
			<point x="372" y="618"/>
			<point x="404" y="532"/>
			<point x="404" y="436" type="curve" smooth="yes"/>
			<point x="404" y="258"/>
			<point x="312" y="21"/>
		</contour>
	</outline>
</glyph>
<glyph name="one" format="2">
	<unicode hex="0031"/>
	<advance width="461"/>
	<outline>
		<contour>
			<point x="31" y="0" type="line"/>
			<point x="351" y="0" type="line"/>
			<point x="357" y="34" type="line"/>
			<point x="219" y="34" type="line"/>
			<point x="342" y="640" type="line"/>
			<point x="310" y="640" type="line"/>
			<point x="279" y="621"/>
			<point x="233" y="606"/>
			<point x="183" y="600" type="curve"/>
			<point x="177" y="574" type="line"/>
			<point x="290" y="574" type="line"/>
			<point x="181" y="34" type="line"/>
			<point x="38" y="34" type="line"/>
		</contour>
	</outline>
</glyph>
<glyph name="two" format="2">
	<unicode hex="0032"/>
	<advance width="461"/>
	<outline>
		<contour>
			<point x="-8" y="0" type="line"/>
			<point x="367" y="0" type="line"/>
			<point x="373" y="34" type="line"/>
			<point x="160" y="34" type="line" smooth="yes"/>
			<point x="124" y="34"/>
			<point x="87" y="32"/>
			<point x="52" y="30" type="curve"/>
			<point x="312" y="253"/>
			<point x="435" y="355"/>
			<point x="435" y="503" type="curve" smooth="yes"/>
			<point x="435" y="587"/>
			<point x="381" y="652"/>
			<point x="279" y="652" type="curve" smooth="yes"/>
			<point x="215" y="652"/>
			<point x="164" y="624"/>
			<point x="106" y="570" type="curve"/>
			<point x="128" y="546" type="line"/>
			<point x="178" y="594"/>
			<point x="228" y="618"/>
			<point x="275" y="618" type="curve" smooth="yes"/>
			<point x="358" y="618"/>
			<point x="397" y="562"/>
			<point x="397" y="496" type="curve" smooth="yes"/>
			<point x="397" y="365"/>
			<point x="281" y="270"/>
			<point x="-5" y="24" type="curve"/>
		</contour>
	</outline>
</glyph>
<glyph name="three" format="2">
	<unicode hex="0033"/>
	<advance width="461"/>
	<outline>
		<contour>
			<point x="177" y="-12" type="curve" smooth="yes"/>
			<point x="308" y="-12"/>
			<point x="401" y="69"/>
			<point x="401" y="188" type="curve" smooth="yes"/>
			<point x="401" y="258"/>
			<point x="353" y="308"/>
			<point x="283" y="329" type="curve"/>
			<point x="283" y="333" type="line"/>
			<point x="381" y="358"/>
			<point x="439" y="428"/>
			<point x="439" y="510" type="curve" smooth="yes"/>
			<point x="439" y="595"/>
			<point x="390" y="652"/>
			<point x="288" y="652" type="curve" smooth="yes"/>
			<point x="230" y="652"/>
			<point x="170" y="626"/>
			<point x="122" y="588" type="curve"/>
			<point x="144" y="560" type="line"/>
			<point x="181" y="595"/>
			<point x="240" y="618"/>
			<point x="284" y="618" type="curve" smooth="yes"/>
			<point x="365" y="618"/>
			<point x="400" y="570"/>
			<point x="400" y="503" type="curve" smooth="yes"/>
			<point x="400" y="438"/>
			<point x="341" y="350"/>
			<point x="167" y="350" type="curve"/>
			<point x="160" y="318" type="line"/>
			<point x="303" y="318"/>
			<point x="363" y="258"/>
			<point x="363" y="182" type="curve" smooth="yes"/>
			<point x="363" y="92"/>
			<point x="286" y="22"/>
			<point x="180" y="22" type="curve" smooth="yes"/>
			<point x="101" y="22"/>
			<point x="53" y="72"/>
			<point x="23" y="116" type="curve"/>
			<point x="-5" y="95" type="line"/>
			<point x="26" y="48"/>
			<point x="86" y="-12"/>
		</contour>
	</outline>
</glyph>
<glyph name="four" format="2">
	<unicode hex="0034"/>
	<advance width="462"/>
	<outline>
		<contour>
			<point x="305" y="0" type="line"/>
			<point x="343" y="189" type="line"/>
			<point x="432" y="189" type="line"/>
			<point x="440" y="225" type="line"/>
			<point x="350" y="225" type="line"/>
			<point x="433" y="639" type="line"/>
			<point x="396" y="639" type="line"/>
			<point x="23" y="215" type="line"/>
			<point x="19" y="189" type="line"/>
			<point x="304" y="189" type="line"/>
			<point x="266" y="0" type="line"/>
		</contour>
		<contour>
			<point x="78" y="225" type="line"/>
			<point x="302" y="479" type="line" smooth="yes"/>
			<point x="327" y="508"/>
			<point x="354" y="541"/>
			<point x="382" y="577" type="curve"/>
			<point x="386" y="577" type="line"/>
			<point x="376" y="535"/>
			<point x="364" y="491"/>
			<point x="357" y="458" type="curve" smooth="yes"/>
			<point x="310" y="225" type="line"/>
		</contour>
	</outline>
</glyph>
<glyph name="five" format="2">
	<unicode hex="0035"/>
	<advance width="461"/>
	<outline>
		<contour>
			<point x="177" y="-12" type="curve" smooth="yes"/>
			<point x="300" y="-12"/>
			<point x="408" y="84"/>
			<point x="408" y="233" type="curve" smooth="yes"/>
			<point x="408" y="345"/>
			<point x="337" y="401"/>
			<point x="241" y="401" type="curve" smooth="yes"/>
			<point x="201" y="401"/>
			<point x="169" y="390"/>
			<point x="143" y="376" type="curve"/>
			<point x="206" y="605" type="line"/>
			<point x="445" y="605" type="line"/>
			<point x="452" y="640" type="line"/>
			<point x="179" y="640" type="line"/>
			<point x="99" y="349" type="line"/>
			<point x="120" y="332" type="line"/>
			<point x="161" y="354"/>
			<point x="189" y="368"/>
			<point x="236" y="368" type="curve" smooth="yes"/>
			<point x="315" y="368"/>
			<point x="369" y="321"/>
			<point x="369" y="225" type="curve" smooth="yes"/>
			<point x="369" y="104"/>
			<point x="281" y="22"/>
			<point x="183" y="22" type="curve" smooth="yes"/>
			<point x="94" y="22"/>
			<point x="56" y="72"/>
			<point x="30" y="114" type="curve"/>
			<point x="2" y="93" type="line"/>
			<point x="30" y="44"/>
			<point x="84" y="-12"/>
		</contour>
	</outline>
</glyph>
<glyph name="six" format="1">
	<unicode hex="0036"/>
	<advance width="462"/>
	<outline>
		<contour>
			<point x="216" y="-12" type="curve" smooth="yes"/>
			<point x="327" y="-12"/>
			<point x="416" y="88"/>
			<point x="416" y="214" type="curve" smooth="yes"/>
			<point x="416" y="312"/>
			<point x="358" y="380"/>
			<point x="261" y="380" type="curve" smooth="yes"/>
			<point x="210" y="380"/>
			<point x="142" y="353"/>
			<point x="93" y="293" type="curve"/>
			<point x="89" y="248" type="line"/>
			<point x="148" y="325"/>
			<point x="219" y="344"/>
			<point x="255" y="344" type="curve" smooth="yes"/>
			<point x="334" y="344"/>
			<point x="376" y="289"/>
			<point x="376" y="204" type="curve" smooth="yes"/>
			<point x="376" y="109"/>
			<point x="302" y="23"/>
			<point x="219" y="23" type="curve" smooth="yes"/>
			<point x="140" y="23"/>
			<point x="92" y="98"/>
			<point x="92" y="202" type="curve" smooth="yes"/>
			<point x="92" y="433"/>
			<point x="202" y="615"/>
			<point x="335" y="615" type="curve" smooth="yes"/>
			<point x="382" y="615"/>
			<point x="415" y="594"/>
			<point x="438" y="551" type="curve"/>
			<point x="470" y="574" type="line"/>
			<point x="444" y="620"/>
			<point x="402" y="651"/>
			<point x="338" y="651" type="curve" smooth="yes"/>
			<point x="175" y="651"/>
			<point x="52" y="458"/>
			<point x="52" y="198" type="curve" smooth="yes"/>
			<point x="52" y="76"/>
			<point x="114" y="-12"/>
		</contour>
	</outline>
</glyph>
<glyph name="seven" format="1">
	<unicode hex="0037"/>
	<advance width="462"/>
	<outline>
		<contour>
			<point x="132" y="0" type="curve"/>
			<point x="177" y="0" type="line"/>
			<point x="226" y="237"/>
			<point x="292" y="420"/>
			<point x="493" y="611" type="curve"/>
			<point x="498" y="639" type="line"/>
			<point x="120" y="639" type="line"/>
			<point x="112" y="603" type="line"/>
			<point x="440" y="603" type="line"/>
			<point x="262" y="426"/>
			<point x="188" y="250"/>
		</contour>
	</outline>
</glyph>
<glyph name="eight" format="2">
	<unicode hex="0038"/>
	<advance width="462"/>
	<outline>
		<contour>
			<point x="208" y="-12" type="curve" smooth="yes"/>
			<point x="320" y="-12"/>
			<point x="413" y="54"/>
			<point x="413" y="164" type="curve" smooth="yes"/>
			<point x="413" y="238"/>
			<point x="358" y="293"/>
			<point x="324" y="317" type="curve"/>
			<point x="324" y="321" type="line"/>
			<point x="400" y="362"/>
			<point x="456" y="415"/>
			<point x="456" y="502" type="curve" smooth="yes"/>
			<point x="456" y="601"/>
			<point x="388" y="651"/>
			<point x="311" y="651" type="curve" smooth="yes"/>
			<point x="215" y="651"/>
			<point x="135" y="591"/>
			<point x="135" y="491" type="curve" smooth="yes"/>
			<point x="135" y="433"/>
			<point x="154" y="396"/>
			<point x="194" y="357" type="curve"/>
			<point x="194" y="353" type="line"/>
			<point x="112" y="318"/>
			<point x="34" y="256"/>
			<point x="34" y="156" type="curve" smooth="yes"/>
			<point x="34" y="45"/>
			<point x="120" y="-12"/>
		</contour>
		<contour>
			<point x="295" y="336" type="curve"/>
			<point x="220" y="373"/>
			<point x="174" y="414"/>
			<point x="174" y="493" type="curve" smooth="yes"/>
			<point x="174" y="571"/>
			<point x="239" y="617"/>
			<point x="308" y="617" type="curve" smooth="yes"/>
			<point x="365" y="617"/>
			<point x="418" y="575"/>
			<point x="418" y="497" type="curve" smooth="yes"/>
			<point x="418" y="422"/>
			<point x="358" y="369"/>
		</contour>
		<contour>
			<point x="212" y="22" type="curve" smooth="yes"/>
			<point x="141" y="22"/>
			<point x="73" y="70"/>
			<point x="73" y="160" type="curve" smooth="yes"/>
			<point x="73" y="243"/>
			<point x="134" y="293"/>
			<point x="218" y="336" type="curve"/>
			<point x="299" y="291"/>
			<point x="374" y="247"/>
			<point x="374" y="158" type="curve" smooth="yes"/>
			<point x="374" y="71"/>
			<point x="292" y="22"/>
		</contour>
	</outline>
</glyph>
<glyph name="nine" format="1">
	<unicode hex="0039"/>
	<advance width="462"/>
	<outline>
		<contour>
			<point x="150" y="-12" type="curve" smooth="yes"/>
			<point x="313" y="-12"/>
			<point x="437" y="181"/>
			<point x="437" y="441" type="curve" smooth="yes"/>
			<point x="437" y="563"/>
			<point x="375" y="651"/>
			<point x="272" y="651" type="curve" smooth="yes"/>
			<point x="161" y="651"/>
			<point x="73" y="551"/>
			<point x="73" y="425" type="curve" smooth="yes"/>
			<point x="73" y="327"/>
			<point x="130" y="259"/>
			<point x="227" y="259" type="curve" smooth="yes"/>
			<point x="278" y="259"/>
			<point x="348" y="286"/>
			<point x="396" y="346" type="curve"/>
			<point x="399" y="392" type="line"/>
			<point x="341" y="314"/>
			<point x="269" y="295"/>
			<point x="233" y="295" type="curve" smooth="yes"/>
			<point x="154" y="295"/>
			<point x="113" y="350"/>
			<point x="113" y="436" type="curve" smooth="yes"/>
			<point x="113" y="530"/>
			<point x="187" y="616"/>
			<point x="270" y="616" type="curve" smooth="yes"/>
			<point x="349" y="616"/>
			<point x="397" y="541"/>
			<point x="397" y="438" type="curve" smooth="yes"/>
			<point x="397" y="207"/>
			<point x="286" y="24"/>
			<point x="153" y="24" type="curve" smooth="yes"/>
			<point x="107" y="24"/>
			<point x="74" y="45"/>
			<point x="50" y="88" type="curve"/>
			<point x="19" y="65" type="line"/>
			<point x="45" y="19"/>
			<point x="86" y="-12"/>
		</contour>
	</outline>
</glyph>
<glyph name="less" format="2">
	<unicode hex="003C"/>
	<advance width="461"/>
	<outline>
		<contour>
			<point x="441" y="151" type="line"/>
			<point x="441" y="188" type="line"/>
			<point x="216" y="278" type="line"/>
			<point x="94" y="328" type="line"/>
			<point x="94" y="332" type="line"/>
			<point x="216" y="382" type="line"/>
			<point x="441" y="473" type="line"/>
			<point x="441" y="509" type="line"/>
			<point x="46" y="347" type="line"/>
			<point x="46" y="313" type="line"/>
		</contour>
	</outline>
</glyph>
<glyph name="greater" format="2">
	<unicode hex="003E"/>
	<advance width="461"/>
	<outline>
		<contour>
			<point x="48" y="151" type="line"/>
			<point x="443" y="313" type="line"/>
			<point x="443" y="347" type="line"/>
			<point x="48" y="509" type="line"/>
			<point x="48" y="473" type="line"/>
			<point x="272" y="382" type="line"/>
			<point x="395" y="332" type="line"/>
			<point x="395" y="328" type="line"/>
			<point x="272" y="278" type="line"/>
			<point x="48" y="188" type="line"/>
		</contour>
	</outline>
</glyph>
<glyph name="question" format="2">
	<unicode hex="003F"/>
	<advance width="386"/>
	<outline>
		<contour>
			<point x="144" y="181" type="curve"/>
			<point x="179" y="179" type="line"/>
			<point x="188" y="340"/>
			<point x="393" y="387"/>
			<point x="393" y="552" type="curve" smooth="yes"/>
			<point x="393" y="633"/>
			<point x="342" y="682"/>
			<point x="260" y="682" type="curve" smooth="yes"/>
			<point x="200" y="682"/>
			<point x="144" y="651"/>
			<point x="110" y="614" type="curve"/>
			<point x="133" y="588" type="line"/>
			<point x="165" y="623"/>
			<point x="210" y="648"/>
			<point x="256" y="648" type="curve" smooth="yes"/>
			<point x="318" y="648"/>
			<point x="355" y="610"/>
			<point x="355" y="544" type="curve" smooth="yes"/>
			<point x="355" y="403"/>
			<point x="151" y="356"/>
		</contour>
		<contour>
			<point x="129" y="-12" type="curve" smooth="yes"/>
			<point x="155" y="-12"/>
			<point x="175" y="13"/>
			<point x="175" y="37" type="curve" smooth="yes"/>
			<point x="175" y="58"/>
			<point x="165" y="73"/>
			<point x="145" y="73" type="curve" smooth="yes"/>
			<point x="119" y="73"/>
			<point x="97" y="47"/>
			<point x="97" y="22" type="curve" smooth="yes"/>
			<point x="97" y="4"/>
			<point x="109" y="-12"/>
		</contour>
	</outline>
</glyph>
<glyph name="at" format="2">
	<unicode hex="0040"/>
	<advance width="783"/>
	<outline>
		<contour>
			<point x="336" y="-146" type="curve" smooth="yes"/>
			<point x="391" y="-146"/>
			<point x="447" y="-133"/>
			<point x="500" y="-103" type="curve"/>
			<point x="484" y="-74" type="line"/>
			<point x="441" y="-100"/>
			<point x="395" y="-111"/>
			<point x="339" y="-111" type="curve" smooth="yes"/>
			<point x="191" y="-111"/>
			<point x="83" y="-6"/>
			<point x="83" y="171" type="curve" smooth="yes"/>
			<point x="83" y="413"/>
			<point x="274" y="597"/>
			<point x="464" y="597" type="curve" smooth="yes"/>
			<point x="626" y="597"/>
			<point x="709" y="490"/>
			<point x="709" y="335" type="curve" smooth="yes"/>
			<point x="709" y="178"/>
			<point x="631" y="86"/>
			<point x="560" y="86" type="curve" smooth="yes"/>
			<point x="503" y="86"/>
			<point x="490" y="135"/>
			<point x="505" y="201" type="curve" smooth="yes"/>
			<point x="554" y="415" type="line"/>
			<point x="520" y="415" type="line"/>
			<point x="509" y="372" type="line"/>
			<point x="506" y="372" type="line"/>
			<point x="490" y="404"/>
			<point x="464" y="424"/>
			<point x="431" y="424" type="curve" smooth="yes"/>
			<point x="324" y="424"/>
			<point x="239" y="305"/>
			<point x="239" y="190" type="curve" smooth="yes"/>
			<point x="239" y="103"/>
			<point x="293" y="60"/>
			<point x="350" y="60" type="curve" smooth="yes"/>
			<point x="395" y="60"/>
			<point x="432" y="89"/>
			<point x="465" y="127" type="curve"/>
			<point x="467" y="127" type="line"/>
			<point x="476" y="82"/>
			<point x="506" y="52"/>
			<point x="553" y="52" type="curve" smooth="yes"/>
			<point x="650" y="52"/>
			<point x="747" y="156"/>
			<point x="747" y="342" type="curve" smooth="yes"/>
			<point x="747" y="513"/>
			<point x="646" y="631"/>
			<point x="467" y="631" type="curve" smooth="yes"/>
			<point x="253" y="631"/>
			<point x="45" y="432"/>
			<point x="45" y="164" type="curve" smooth="yes"/>
			<point x="45" y="-28"/>
			<point x="168" y="-146"/>
		</contour>
		<contour>
			<point x="355" y="95" type="curve" smooth="yes"/>
			<point x="313" y="95"/>
			<point x="278" y="127"/>
			<point x="278" y="197" type="curve" smooth="yes"/>
			<point x="278" y="281"/>
			<point x="341" y="388"/>
			<point x="430" y="388" type="curve" smooth="yes"/>
			<point x="453" y="388"/>
			<point x="476" y="377"/>
			<point x="498" y="336" type="curve"/>
			<point x="459" y="163" type="line"/>
			<point x="424" y="117"/>
			<point x="389" y="95"/>
		</contour>
	</outline>
</glyph>
<glyph name="A" format="2">
	<unicode hex="0041"/>
	<advance width="486"/>
	<outline>
		<contour>
			<point x="-44" y="0" type="line"/>
			<point x="-3" y="0" type="line"/>
			<point x="209" y="392" type="line" smooth="yes"/>
			<point x="250" y="469"/>
			<point x="288" y="538"/>
			<point x="327" y="619" type="curve"/>
			<point x="331" y="619" type="line"/>
			<point x="339" y="540"/>
			<point x="348" y="465"/>
			<point x="356" y="392" type="curve" smooth="yes"/>
			<point x="401" y="0" type="line"/>
			<point x="441" y="0" type="line"/>
			<point x="359" y="659" type="line"/>
			<point x="316" y="659" type="line"/>
		</contour>
		<contour>
			<point x="104" y="231" type="line"/>
			<point x="388" y="231" type="line"/>
			<point x="396" y="264" type="line"/>
			<point x="114" y="264" type="line"/>
		</contour>
	</outline>
	<anchor name="aboveUC" x="333" y="681"/>
	<anchor name="belowLC" x="212" y="-22"/>
	<anchor name="ogonekUC" x="410" y="0"/>
</glyph>
<glyph name="B" format="2">
	<unicode hex="0042"/>
	<advance width="554"/>
	<outline>
		<contour>
			<point x="39" y="0" type="line"/>
			<point x="233" y="0" type="line" smooth="yes"/>
			<point x="391" y="0"/>
			<point x="499" y="66"/>
			<point x="499" y="207" type="curve" smooth="yes"/>
			<point x="499" y="289"/>
			<point x="439" y="333"/>
			<point x="374" y="347" type="curve"/>
			<point x="374" y="351" type="line"/>
			<point x="439" y="362"/>
			<point x="524" y="419"/>
			<point x="524" y="517" type="curve" smooth="yes"/>
			<point x="524" y="606"/>
			<point x="454" y="659"/>
			<point x="331" y="659" type="curve" smooth="yes"/>
			<point x="171" y="659" type="line"/>
		</contour>
		<contour>
			<point x="151" y="366" type="line"/>
			<point x="203" y="626" type="line"/>
			<point x="314" y="626" type="line" smooth="yes"/>
			<point x="431" y="626"/>
			<point x="483" y="584"/>
			<point x="483" y="513" type="curve" smooth="yes"/>
			<point x="483" y="428"/>
			<point x="411" y="366"/>
			<point x="265" y="366" type="curve" smooth="yes"/>
		</contour>
		<contour>
			<point x="85" y="33" type="line"/>
			<point x="146" y="334" type="line"/>
			<point x="281" y="334" type="line" smooth="yes"/>
			<point x="394" y="334"/>
			<point x="459" y="278"/>
			<point x="459" y="204" type="curve" smooth="yes"/>
			<point x="459" y="80"/>
			<point x="362" y="33"/>
			<point x="218" y="33" type="curve" smooth="yes"/>
		</contour>
	</outline>
	<anchor name="aboveUC" x="352" y="681"/>
	<anchor name="belowLC" x="252" y="-22"/>
</glyph>
<glyph name="C" format="2">
	<unicode hex="0043"/>
	<advance width="539"/>
	<outline>
		<contour>
			<point x="280" y="-12" type="curve" smooth="yes"/>
			<point x="353" y="-12"/>
			<point x="411" y="15"/>
			<point x="462" y="61" type="curve"/>
			<point x="442" y="85" type="line"/>
			<point x="396" y="46"/>
			<point x="347" y="23"/>
			<point x="284" y="23" type="curve" smooth="yes"/>
			<point x="155" y="23"/>
			<point x="98" y="123"/>
			<point x="98" y="254" type="curve" smooth="yes"/>
			<point x="98" y="420"/>
			<point x="204" y="637"/>
			<point x="388" y="637" type="curve" smooth="yes"/>
			<point x="448" y="637"/>
			<point x="493" y="606"/>
			<point x="518" y="559" type="curve"/>
			<point x="545" y="577" type="line"/>
			<point x="520" y="630"/>
			<point x="463" y="671"/>
			<point x="391" y="671" type="curve" smooth="yes"/>
			<point x="183" y="671"/>
			<point x="58" y="443"/>
			<point x="58" y="247" type="curve" smooth="yes"/>
			<point x="58" y="99"/>
			<point x="132" y="-12"/>
		</contour>
	</outline>
	<anchor name="aboveUC" x="382" y="681"/>
	<anchor name="baseLC" x="262" y="0"/>
	<anchor name="belowLC" x="261" y="-22"/>
</glyph>
<glyph name="D" format="2">
	<unicode hex="0044"/>
	<advance width="577"/>
	<outline>
		<contour>
			<point x="39" y="0" type="line"/>
			<point x="198" y="0" type="line" smooth="yes"/>
			<point x="427" y="0"/>
			<point x="551" y="176"/>
			<point x="551" y="403" type="curve" smooth="yes"/>
			<point x="551" y="557"/>
			<point x="460" y="659"/>
			<point x="279" y="659" type="curve" smooth="yes"/>
			<point x="171" y="659" type="line"/>
		</contour>
		<contour>
			<point x="85" y="34" type="line"/>
			<point x="203" y="625" type="line"/>
			<point x="277" y="625" type="line" smooth="yes"/>
			<point x="433" y="625"/>
			<point x="510" y="534"/>
			<point x="510" y="400" type="curve" smooth="yes"/>
			<point x="510" y="202"/>
			<point x="397" y="34"/>
			<point x="200" y="34" type="curve" smooth="yes"/>
		</contour>
	</outline>
	<anchor name="aboveUC" x="353" y="681"/>
	<anchor name="belowLC" x="242" y="-22"/>
</glyph>
<glyph name="E" format="2">
	<unicode hex="0045"/>
	<advance width="489"/>
	<outline>
		<contour>
			<point x="39" y="0" type="line"/>
			<point x="394" y="0" type="line"/>
			<point x="402" y="37" type="line"/>
			<point x="88" y="37" type="line"/>
			<point x="148" y="331" type="line"/>
			<point x="404" y="331" type="line"/>
			<point x="412" y="368" type="line"/>
			<point x="154" y="368" type="line"/>
			<point x="205" y="622" type="line"/>
			<point x="510" y="622" type="line"/>
			<point x="518" y="659" type="line"/>
			<point x="170" y="659" type="line"/>
		</contour>
	</outline>
	<anchor name="aboveUC" x="351" y="681"/>
	<anchor name="belowLC" x="223" y="-22"/>
	<anchor name="ogonekUC" x="332" y="0"/>
</glyph>
<glyph name="F" format="2">
	<unicode hex="0046"/>
	<advance width="453"/>
	<outline>
		<contour>
			<point x="39" y="0" type="line"/>
			<point x="79" y="0" type="line"/>
			<point x="144" y="320" type="line"/>
			<point x="401" y="320" type="line"/>
			<point x="409" y="354" type="line"/>
			<point x="149" y="354" type="line"/>
			<point x="203" y="625" type="line"/>
			<point x="509" y="625" type="line"/>
			<point x="517" y="659" type="line"/>
			<point x="171" y="659" type="line"/>
		</contour>
	</outline>
	<anchor name="aboveUC" x="351" y="681"/>
	<anchor name="belowLC" x="69" y="-22"/>
</glyph>
<glyph name="G" format="2">
	<unicode hex="0047"/>
	<advance width="574"/>
	<outline>
		<contour>
			<point x="290" y="-12" type="curve" smooth="yes"/>
			<point x="362" y="-12"/>
			<point x="419" y="14"/>
			<point x="465" y="54" type="curve"/>
			<point x="520" y="321" type="line"/>
			<point x="328" y="321" type="line"/>
			<point x="321" y="287" type="line"/>
			<point x="474" y="287" type="line"/>
			<point x="432" y="74" type="line"/>
			<point x="401" y="45"/>
			<point x="355" y="23"/>
			<point x="295" y="23" type="curve" smooth="yes"/>
			<point x="153" y="23"/>
			<point x="98" y="127"/>
			<point x="98" y="254" type="curve" smooth="yes"/>
			<point x="98" y="421"/>
			<point x="206" y="637"/>
			<point x="395" y="637" type="curve" smooth="yes"/>
			<point x="460" y="637"/>
			<point x="502" y="604"/>
			<point x="528" y="557" type="curve"/>
			<point x="556" y="577" type="line"/>
			<point x="529" y="628"/>
			<point x="475" y="671"/>
			<point x="397" y="671" type="curve" smooth="yes"/>
			<point x="181" y="671"/>
			<point x="58" y="445"/>
			<point x="58" y="247" type="curve" smooth="yes"/>
			<point x="58" y="95"/>
			<point x="134" y="-12"/>
		</contour>
	</outline>
	<anchor name="aboveUC" x="392" y="681"/>
	<anchor name="belowLC" x="272" y="-22"/>
</glyph>
<glyph name="H" format="2">
	<unicode hex="0048"/>
	<advance width="603"/>
	<outline>
		<contour>
			<point x="39" y="0" type="line"/>
			<point x="79" y="0" type="line"/>
			<point x="146" y="332" type="line"/>
			<point x="489" y="332" type="line"/>
			<point x="422" y="0" type="line"/>
			<point x="462" y="0" type="line"/>
			<point x="594" y="659" type="line"/>
			<point x="554" y="659" type="line"/>
			<point x="495" y="367" type="line"/>
			<point x="152" y="367" type="line"/>
			<point x="211" y="659" type="line"/>
			<point x="171" y="659" type="line"/>
		</contour>
	</outline>
	<anchor name="aboveUC" x="373" y="681"/>
	<anchor name="belowLC" x="262" y="-22"/>
</glyph>
<glyph name="I" format="2">
	<unicode hex="0049"/>
	<advance width="222"/>
	<outline>
		<contour>
			<point x="39" y="0" type="line"/>
			<point x="82" y="0" type="line"/>
			<point x="213" y="659" type="line"/>
			<point x="170" y="659" type="line"/>
		</contour>
	</outline>
	<anchor name="aboveUC" x="195" y="681"/>
	<anchor name="belowLC" x="56" y="-22"/>
	<anchor name="ogonekUC" x="55" y="0"/>
</glyph>
<glyph name="J" format="2">
	<unicode hex="004A"/>
	<advance width="434"/>
	<outline>
		<contour>
			<point x="149" y="-12" type="curve" smooth="yes"/>
			<point x="247" y="-12"/>
			<point x="312" y="61"/>
			<point x="332" y="171" type="curve" smooth="yes"/>
			<point x="429" y="659" type="line"/>
			<point x="389" y="659" type="line"/>
			<point x="292" y="175" type="line" smooth="yes"/>
			<point x="274" y="84"/>
			<point x="226" y="23"/>
			<point x="151" y="23" type="curve" smooth="yes"/>
			<point x="90" y="23"/>
			<point x="51" y="50"/>
			<point x="33" y="108" type="curve"/>
			<point x="1" y="90" type="line"/>
			<point x="23" y="31"/>
			<point x="69" y="-12"/>
		</contour>
	</outline>
	<anchor name="aboveUC" x="412" y="681"/>
	<anchor name="belowLC" x="135" y="-23"/>
</glyph>
<glyph name="K" format="2">
	<unicode hex="004B"/>
	<advance width="531"/>
	<outline>
		<contour>
			<point x="39" y="0" type="line"/>
			<point x="82" y="0" type="line"/>
			<point x="130" y="238" type="line"/>
			<point x="290" y="389" type="line"/>
			<point x="429" y="0" type="line"/>
			<point x="474" y="0" type="line"/>
			<point x="323" y="417" type="line"/>
			<point x="573" y="659" type="line"/>
			<point x="522" y="659" type="line"/>
			<point x="144" y="301" type="line"/>
			<point x="142" y="301" type="line"/>
			<point x="213" y="659" type="line"/>
			<point x="170" y="659" type="line"/>
		</contour>
	</outline>
	<anchor name="aboveUC" x="364" y="681"/>
	<anchor name="belowLC" x="264" y="-22"/>
</glyph>
<glyph name="L" format="2">
	<unicode hex="004C"/>
	<advance width="438"/>
	<outline>
		<contour>
			<point x="39" y="0" type="line"/>
			<point x="374" y="0" type="line"/>
			<point x="382" y="34" type="line"/>
			<point x="87" y="34" type="line"/>
			<point x="211" y="659" type="line"/>
			<point x="171" y="659" type="line"/>
		</contour>
	</outline>
	<anchor name="aboveUC" x="204" y="681"/>
	<anchor name="belowLC" x="220" y="-22"/>
</glyph>
<glyph name="M" format="2">
	<unicode hex="004D"/>
	<advance width="684"/>
	<outline>
		<contour>
			<point x="39" y="0" type="line"/>
			<point x="81" y="0" type="line"/>
			<point x="168" y="436" type="line" smooth="yes"/>
			<point x="178" y="491"/>
			<point x="188" y="559"/>
			<point x="197" y="615" type="curve"/>
			<point x="201" y="615" type="line"/>
			<point x="224" y="470" type="line"/>
			<point x="292" y="74" type="line"/>
			<point x="333" y="74" type="line"/>
			<point x="548" y="470" type="line"/>
			<point x="626" y="615" type="line"/>
			<point x="630" y="615" type="line"/>
			<point x="617" y="561"/>
			<point x="601" y="491"/>
			<point x="589" y="436" type="curve" smooth="yes"/>
			<point x="501" y="0" type="line"/>
			<point x="543" y="0" type="line"/>
			<point x="675" y="659" type="line"/>
			<point x="612" y="659" type="line"/>
			<point x="399" y="273" type="line" smooth="yes"/>
			<point x="372" y="224"/>
			<point x="349" y="176"/>
			<point x="324" y="127" type="curve"/>
			<point x="320" y="127" type="line"/>
			<point x="311" y="176"/>
			<point x="304" y="224"/>
			<point x="296" y="273" type="curve" smooth="yes"/>
			<point x="233" y="659" type="line"/>
			<point x="170" y="659" type="line"/>
		</contour>
	</outline>
	<anchor name="aboveUC" x="423" y="681"/>
	<anchor name="belowLC" x="302" y="-22"/>
</glyph>
<glyph name="N" format="2">
	<unicode hex="004E"/>
	<advance width="605"/>
	<outline>
		<contour>
			<point x="39" y="0" type="line"/>
			<point x="81" y="0" type="line"/>
			<point x="162" y="413" type="line" smooth="yes"/>
			<point x="175" y="475"/>
			<point x="186" y="539"/>
			<point x="196" y="604" type="curve"/>
			<point x="200" y="604" type="line"/>
			<point x="215" y="556"/>
			<point x="233" y="505"/>
			<point x="247" y="466" type="curve" smooth="yes"/>
			<point x="420" y="0" type="line"/>
			<point x="465" y="0" type="line"/>
			<point x="597" y="659" type="line"/>
			<point x="554" y="659" type="line"/>
			<point x="473" y="251" type="line"/>
			<point x="460" y="189"/>
			<point x="449" y="126"/>
			<point x="440" y="61" type="curve"/>
			<point x="436" y="61" type="line"/>
			<point x="421" y="107"/>
			<point x="403" y="158"/>
			<point x="388" y="197" type="curve" smooth="yes"/>
			<point x="217" y="659" type="line"/>
			<point x="170" y="659" type="line"/>
		</contour>
	</outline>
	<anchor name="aboveUC" x="401" y="681"/>
	<anchor name="belowLC" x="262" y="-22"/>
</glyph>
<glyph name="O" format="2">
	<unicode hex="004F"/>
	<advance width="617"/>
	<outline>
		<contour>
			<point x="277" y="-12" type="curve" smooth="yes"/>
			<point x="473" y="-12"/>
			<point x="589" y="216"/>
			<point x="589" y="397" type="curve" smooth="yes"/>
			<point x="589" y="558"/>
			<point x="518" y="671"/>
			<point x="374" y="671" type="curve" smooth="yes"/>
			<point x="178" y="671"/>
			<point x="62" y="443"/>
			<point x="62" y="262" type="curve" smooth="yes"/>
			<point x="62" y="101"/>
			<point x="132" y="-12"/>
		</contour>
		<contour>
			<point x="279" y="23" type="curve" smooth="yes"/>
			<point x="155" y="23"/>
			<point x="102" y="123"/>
			<point x="102" y="267" type="curve" smooth="yes"/>
			<point x="102" y="422"/>
			<point x="199" y="637"/>
			<point x="371" y="637" type="curve" smooth="yes"/>
			<point x="496" y="637"/>
			<point x="548" y="536"/>
			<point x="548" y="393" type="curve" smooth="yes"/>
			<point x="548" y="237"/>
			<point x="451" y="23"/>
		</contour>
	</outline>
	<anchor name="aboveUC" x="392" y="681"/>
	<anchor name="belowLC" x="262" y="-22"/>
	<anchor name="hornLC" x="501" y="650"/>
	<anchor name="ogonekUC" x="263" y="0"/>
	<anchor name="aboverightUC" x="567" y="681"/>
</glyph>
<glyph name="P" format="1">
	<unicode hex="0050"/>
	<advance width="531"/>
	<outline>
		<contour>
			<point x="39" y="0" type="line"/>
			<point x="82" y="0" type="line"/>
			<point x="138" y="286" type="line"/>
			<point x="260" y="286" type="line" smooth="yes"/>
			<point x="429" y="286"/>
			<point x="539" y="358"/>
			<point x="539" y="506" type="curve" smooth="yes"/>
			<point x="539" y="613"/>
			<point x="464" y="659"/>
			<point x="343" y="659" type="curve" smooth="yes"/>
			<point x="170" y="659" type="line"/>
		</contour>
		<contour>
			<point x="146" y="322" type="line"/>
			<point x="205" y="623" type="line"/>
			<point x="325" y="623" type="line" smooth="yes"/>
			<point x="437" y="623"/>
			<point x="496" y="588"/>
			<point x="496" y="502" type="curve" smooth="yes"/>
			<point x="496" y="383"/>
			<point x="414" y="322"/>
			<point x="256" y="322" type="curve" smooth="yes"/>
		</contour>
		<contour>
			<point name="aboveUC" x="376" y="682" type="move"/>
		</contour>
		<contour>
			<point name="belowLC" x="67" y="-30" type="move"/>
		</contour>
	</outline>
</glyph>
<glyph name="Q" format="2">
	<unicode hex="0051"/>
	<advance width="617"/>
	<outline>
		<contour>
			<point x="277" y="-12" type="curve" smooth="yes"/>
			<point x="473" y="-12"/>
			<point x="589" y="216"/>
			<point x="589" y="397" type="curve" smooth="yes"/>
			<point x="589" y="558"/>
			<point x="518" y="671"/>
			<point x="374" y="671" type="curve" smooth="yes"/>
			<point x="178" y="671"/>
			<point x="62" y="443"/>
			<point x="62" y="262" type="curve" smooth="yes"/>
			<point x="62" y="101"/>
			<point x="132" y="-12"/>
		</contour>
		<contour>
			<point x="279" y="22" type="curve" smooth="yes"/>
			<point x="155" y="22"/>
			<point x="102" y="122"/>
			<point x="102" y="267" type="curve" smooth="yes"/>
			<point x="102" y="422"/>
			<point x="199" y="637"/>
			<point x="371" y="637" type="curve" smooth="yes"/>
			<point x="496" y="637"/>
			<point x="548" y="536"/>
			<point x="548" y="393" type="curve" smooth="yes"/>
			<point x="548" y="236"/>
			<point x="451" y="22"/>
		</contour>
		<contour>
			<point x="443" y="-152" type="curve" smooth="yes"/>
			<point x="465" y="-152"/>
			<point x="481" y="-150"/>
			<point x="499" y="-144" type="curve"/>
			<point x="492" y="-110" type="line"/>
			<point x="477" y="-115"/>
			<point x="463" y="-117"/>
			<point x="447" y="-117" type="curve" smooth="yes"/>
			<point x="361" y="-117"/>
			<point x="293" y="-78"/>
			<point x="279" y="2" type="curve"/>
			<point x="238" y="8" type="line"/>
			<point x="257" y="-103"/>
			<point x="342" y="-152"/>
		</contour>
	</outline>
	<anchor name="aboveUC" x="392" y="681"/>
</glyph>
<glyph name="R" format="2">
	<unicode hex="0052"/>
	<advance width="529"/>
	<outline>
		<contour>
			<point x="39" y="0" type="line"/>
			<point x="79" y="0" type="line"/>
			<point x="140" y="303" type="line"/>
			<point x="276" y="303" type="line" smooth="yes"/>
			<point x="419" y="303"/>
			<point x="528" y="383"/>
			<point x="528" y="515" type="curve" smooth="yes"/>
			<point x="528" y="617"/>
			<point x="454" y="659"/>
			<point x="335" y="659" type="curve" smooth="yes"/>
			<point x="171" y="659" type="line"/>
		</contour>
		<contour>
			<point x="147" y="337" type="line"/>
			<point x="203" y="625" type="line"/>
			<point x="317" y="625" type="line" smooth="yes"/>
			<point x="430" y="625"/>
			<point x="488" y="594"/>
			<point x="488" y="511" type="curve" smooth="yes"/>
			<point x="488" y="403"/>
			<point x="407" y="337"/>
			<point x="264" y="337" type="curve" smooth="yes"/>
		</contour>
		<contour>
			<point x="398" y="0" type="line"/>
			<point x="442" y="0" type="line"/>
			<point x="308" y="327" type="line"/>
			<point x="273" y="308" type="line"/>
		</contour>
	</outline>
	<anchor name="aboveUC" x="344" y="681"/>
	<anchor name="belowLC" x="253" y="-23"/>
</glyph>
<glyph name="S" format="1">
	<unicode hex="0053"/>
	<advance width="493"/>
	<outline>
		<contour>
			<point x="227" y="-12" type="curve" smooth="yes"/>
			<point x="351" y="-12"/>
			<point x="444" y="66"/>
			<point x="444" y="182" type="curve" smooth="yes"/>
			<point x="444" y="255"/>
			<point x="403" y="300"/>
			<point x="341" y="337" type="curve" smooth="yes"/>
			<point x="258" y="385" type="line" smooth="yes"/>
			<point x="211" y="412"/>
			<point x="171" y="446"/>
			<point x="171" y="506" type="curve" smooth="yes"/>
			<point x="171" y="568"/>
			<point x="225" y="634"/>
			<point x="311" y="634" type="curve" smooth="yes"/>
			<point x="380" y="634"/>
			<point x="432" y="599"/>
			<point x="466" y="556" type="curve"/>
			<point x="495" y="582" type="line"/>
			<point x="459" y="631"/>
			<point x="396" y="671"/>
			<point x="317" y="671" type="curve" smooth="yes"/>
			<point x="205" y="671"/>
			<point x="127" y="592"/>
			<point x="127" y="501" type="curve" smooth="yes"/>
			<point x="127" y="430"/>
			<point x="176" y="383"/>
			<point x="230" y="351" type="curve" smooth="yes"/>
			<point x="315" y="301" type="line" smooth="yes"/>
			<point x="367" y="271"/>
			<point x="400" y="233"/>
			<point x="400" y="177" type="curve" smooth="yes"/>
			<point x="400" y="85"/>
			<point x="327" y="25"/>
			<point x="232" y="25" type="curve" smooth="yes"/>
			<point x="150" y="25"/>
			<point x="91" y="61"/>
			<point x="49" y="123" type="curve"/>
			<point x="16" y="100" type="line"/>
			<point x="63" y="27"/>
			<point x="135" y="-12"/>
		</contour>
		<contour>
			<point name="aboveUC" x="354" y="683" type="move"/>
		</contour>
		<contour>
			<point name="baseLC" x="222" y="0" type="move"/>
		</contour>
		<contour>
			<point name="belowLC" x="216" y="-30" type="move"/>
		</contour>
	</outline>
</glyph>
<glyph name="T" format="2">
	<unicode hex="0054"/>
	<advance width="497"/>
	<outline>
		<contour>
			<point x="176" y="0" type="line"/>
			<point x="219" y="0" type="line"/>
			<point x="343" y="622" type="line"/>
			<point x="545" y="622" type="line"/>
			<point x="553" y="659" type="line"/>
			<point x="106" y="659" type="line"/>
			<point x="98" y="622" type="line"/>
			<point x="300" y="622" type="line"/>
		</contour>
	</outline>
	<anchor name="aboverightUC" x="520" y="681"/>
	<anchor name="aboveUC" x="332" y="681"/>
	<anchor name="baseLC" x="194" y="0"/>
	<anchor name="belowLC" x="193" y="-22"/>
</glyph>
<glyph name="U" format="2">
	<unicode hex="0055"/>
	<advance width="600"/>
	<outline>
		<contour>
			<point x="273" y="-12" type="curve" smooth="yes"/>
			<point x="379" y="-12"/>
			<point x="470" y="43"/>
			<point x="509" y="236" type="curve" smooth="yes"/>
			<point x="594" y="659" type="line"/>
			<point x="551" y="659" type="line"/>
			<point x="468" y="242" type="line" smooth="yes"/>
			<point x="435" y="75"/>
			<point x="362" y="25"/>
			<point x="277" y="25" type="curve" smooth="yes"/>
			<point x="175" y="25"/>
			<point x="124" y="86"/>
			<point x="124" y="192" type="curve" smooth="yes"/>
			<point x="124" y="216"/>
			<point x="126" y="242"/>
			<point x="134" y="273" type="curve" smooth="yes"/>
			<point x="211" y="659" type="line"/>
			<point x="168" y="659" type="line"/>
			<point x="90" y="269" type="line" smooth="yes"/>
			<point x="84" y="237"/>
			<point x="81" y="211"/>
			<point x="81" y="184" type="curve" smooth="yes"/>
			<point x="81" y="58"/>
			<point x="152" y="-12"/>
		</contour>
	</outline>
	<anchor name="aboveUC" x="384" y="681"/>
	<anchor name="belowLC" x="245" y="-22"/>
	<anchor name="hornLC" x="575" y="671"/>
	<anchor name="ogonekUC" x="245" y="0"/>
</glyph>
<glyph name="V" format="2">
	<unicode hex="0056"/>
	<advance width="460"/>
	<outline>
		<contour>
			<point x="145" y="0" type="line"/>
			<point x="191" y="0" type="line"/>
			<point x="538" y="659" type="line"/>
			<point x="497" y="659" type="line"/>
			<point x="293" y="267" type="line" smooth="yes"/>
			<point x="256" y="197"/>
			<point x="217" y="118"/>
			<point x="181" y="46" type="curve"/>
			<point x="177" y="46" type="line"/>
			<point x="172" y="120"/>
			<point x="164" y="195"/>
			<point x="157" y="267" type="curve" smooth="yes"/>
			<point x="122" y="659" type="line"/>
			<point x="84" y="659" type="line"/>
		</contour>
	</outline>
	<anchor name="aboveUC" x="305" y="681"/>
	<anchor name="belowLC" x="165" y="-23"/>
</glyph>
<glyph name="W" format="2">
	<unicode hex="0057"/>
	<advance width="734"/>
	<outline>
		<contour>
			<point x="106" y="0" type="line"/>
			<point x="160" y="0" type="line"/>
			<point x="369" y="453" type="line" smooth="yes"/>
			<point x="393" y="506"/>
			<point x="417" y="555"/>
			<point x="436" y="609" type="curve"/>
			<point x="440" y="609" type="line"/>
			<point x="440" y="555"/>
			<point x="441" y="506"/>
			<point x="441" y="453" type="curve" smooth="yes"/>
			<point x="455" y="0" type="line"/>
			<point x="509" y="0" type="line"/>
			<point x="789" y="659" type="line"/>
			<point x="745" y="659" type="line"/>
			<point x="584" y="270" type="line" smooth="yes"/>
			<point x="553" y="198"/>
			<point x="523" y="126"/>
			<point x="494" y="51" type="curve"/>
			<point x="490" y="51" type="line"/>
			<point x="489" y="126"/>
			<point x="487" y="198"/>
			<point x="484" y="270" type="curve" smooth="yes"/>
			<point x="471" y="659" type="line"/>
			<point x="427" y="659" type="line"/>
			<point x="246" y="270" type="line" smooth="yes"/>
			<point x="214" y="198"/>
			<point x="181" y="126"/>
			<point x="148" y="51" type="curve"/>
			<point x="144" y="51" type="line"/>
			<point x="146" y="126"/>
			<point x="145" y="198"/>
			<point x="148" y="270" type="curve" smooth="yes"/>
			<point x="150" y="659" type="line"/>
			<point x="107" y="659" type="line"/>
		</contour>
	</outline>
	<anchor name="aboveUC" x="454" y="681"/>
	<anchor name="belowLC" x="313" y="-23"/>
</glyph>
<glyph name="X" format="2">
	<unicode hex="0058"/>
	<advance width="455"/>
	<outline>
		<contour>
			<point x="-36" y="0" type="line"/>
			<point x="9" y="0" type="line"/>
			<point x="160" y="205" type="line" smooth="yes"/>
			<point x="184" y="237"/>
			<point x="209" y="273"/>
			<point x="237" y="311" type="curve"/>
			<point x="239" y="311" type="line"/>
			<point x="251" y="277"/>
			<point x="263" y="243"/>
			<point x="274" y="211" type="curve" smooth="yes"/>
			<point x="346" y="0" type="line"/>
			<point x="390" y="0" type="line"/>
			<point x="267" y="337" type="line"/>
			<point x="510" y="659" type="line"/>
			<point x="465" y="659" type="line"/>
			<point x="320" y="462" type="line" smooth="yes"/>
			<point x="298" y="432"/>
			<point x="277" y="404"/>
			<point x="253" y="371" type="curve"/>
			<point x="251" y="371" type="line"/>
			<point x="239" y="402"/>
			<point x="231" y="427"/>
			<point x="221" y="457" type="curve" smooth="yes"/>
			<point x="153" y="659" type="line"/>
			<point x="110" y="659" type="line"/>
			<point x="222" y="343" type="line"/>
		</contour>
	</outline>
	<anchor name="aboveUC" x="305" y="681"/>
	<anchor name="belowLC" x="185" y="-23"/>
</glyph>
<glyph name="Y" format="1">
	<unicode hex="0059"/>
	<advance width="433"/>
	<outline>
		<contour>
			<point x="140" y="0" type="line"/>
			<point x="183" y="0" type="line"/>
			<point x="237" y="268" type="line"/>
			<point x="510" y="659" type="line"/>
			<point x="464" y="659" type="line"/>
			<point x="320" y="451" type="line" smooth="yes"/>
			<point x="288" y="404"/>
			<point x="257" y="356"/>
			<point x="224" y="309" type="curve"/>
			<point x="221" y="309" type="line"/>
			<point x="208" y="358"/>
			<point x="197" y="403"/>
			<point x="184" y="451" type="curve" smooth="yes"/>
			<point x="129" y="659" type="line"/>
			<point x="85" y="659" type="line"/>
			<point x="194" y="268" type="line"/>
		</contour>
		<contour>
			<point name="aboveUC" x="309" y="682" type="move"/>
		</contour>
		<contour>
			<point name="belowLC" x="174" y="-30" type="move"/>
		</contour>
	</outline>
</glyph>
<glyph name="Z" format="2">
	<unicode hex="005A"/>
	<advance width="504"/>
	<outline>
		<contour>
			<point x="1" y="0" type="line"/>
			<point x="413" y="0" type="line"/>
			<point x="421" y="34" type="line"/>
			<point x="59" y="34" type="line"/>
			<point x="525" y="635" type="line"/>
			<point x="531" y="659" type="line"/>
			<point x="156" y="659" type="line"/>
			<point x="148" y="625" type="line"/>
			<point x="475" y="625" type="line"/>
			<point x="7" y="24" type="line"/>
		</contour>
	</outline>
	<anchor name="aboveUC" x="341" y="681"/>
	<anchor name="belowLC" x="221" y="-23"/>
</glyph>
<glyph name="bracketleft" format="2">
	<unicode hex="005B"/>
	<advance width="270"/>
	<outline>
		<contour>
			<point x="15" y="-152" type="line"/>
			<point x="166" y="-152" type="line"/>
			<point x="173" y="-124" type="line"/>
			<point x="54" y="-124" type="line"/>
			<point x="214" y="680" type="line"/>
			<point x="335" y="680" type="line"/>
			<point x="338" y="708" type="line"/>
			<point x="187" y="708" type="line"/>
		</contour>
	</outline>
</glyph>
<glyph name="backslash" format="2">
	<unicode hex="005C"/>
	<advance width="347"/>
	<outline>
		<contour>
			<point x="229" y="-160" type="line"/>
			<point x="261" y="-160" type="line"/>
			<point x="121" y="710" type="line"/>
			<point x="89" y="710" type="line"/>
		</contour>
	</outline>
</glyph>
<glyph name="bracketright" format="2">
	<unicode hex="005D"/>
	<advance width="268"/>
	<outline>
		<contour>
			<point x="-61" y="-152" type="line"/>
			<point x="90" y="-152" type="line"/>
			<point x="262" y="708" type="line"/>
			<point x="111" y="708" type="line"/>
			<point x="106" y="681" type="line"/>
			<point x="228" y="681" type="line"/>
			<point x="64" y="-125" type="line"/>
			<point x="-56" y="-125" type="line"/>
		</contour>
	</outline>
</glyph>
<glyph name="asciicircum" format="2">
	<unicode hex="005E"/>
	<advance width="463"/>
	<outline>
		<contour>
			<point x="90" y="289" type="line"/>
			<point x="126" y="289" type="line"/>
			<point x="203" y="493" type="line"/>
			<point x="250" y="626" type="line"/>
			<point x="253" y="626" type="line"/>
			<point x="300" y="493" type="line"/>
			<point x="377" y="289" type="line"/>
			<point x="411" y="289" type="line"/>
			<point x="267" y="670" type="line"/>
			<point x="235" y="670" type="line"/>
		</contour>
	</outline>
</glyph>
<glyph name="underscore" format="2">
	<unicode hex="005F"/>
	<advance width="484"/>
	<outline>
		<contour>
			<point x="-29" y="-115" type="line"/>
			<point x="429" y="-115" type="line"/>
			<point x="436" y="-81" type="line"/>
			<point x="-21" y="-81" type="line"/>
		</contour>
	</outline>
</glyph>
<glyph name="b" format="2">
	<unicode hex="0062"/>
	<advance width="525"/>
	<outline>
		<contour>
			<point x="220" y="-12" type="curve" smooth="yes"/>
			<point x="352" y="-12"/>
			<point x="480" y="134"/>
			<point x="480" y="319" type="curve" smooth="yes"/>
			<point x="480" y="431"/>
			<point x="425" y="492"/>
			<point x="340" y="492" type="curve" smooth="yes"/>
			<point x="274" y="492"/>
			<point x="213" y="453"/>
			<point x="162" y="412" type="curve"/>
			<point x="160" y="412" type="line"/>
			<point x="180" y="509" type="line"/>
			<point x="223" y="720" type="line"/>
			<point x="185" y="720" type="line"/>
			<point x="41" y="0" type="line"/>
			<point x="74" y="0" type="line"/>
			<point x="92" y="67" type="line"/>
			<point x="96" y="67" type="line"/>
			<point x="121" y="19"/>
			<point x="163" y="-12"/>
		</contour>
		<contour>
			<point x="221" y="22" type="curve" smooth="yes"/>
			<point x="175" y="22"/>
			<point x="136" y="47"/>
			<point x="100" y="110" type="curve"/>
			<point x="153" y="368" type="line"/>
			<point x="208" y="420"/>
			<point x="279" y="458"/>
			<point x="333" y="458" type="curve" smooth="yes"/>
			<point x="399" y="458"/>
			<point x="441" y="409"/>
			<point x="441" y="312" type="curve" smooth="yes"/>
			<point x="441" y="166"/>
			<point x="336" y="22"/>
		</contour>
	</outline>
	<anchor name="aboveUC" x="382" y="729"/>
	<anchor name="belowLC" x="221" y="-22"/>
</glyph>
<glyph name="c" format="2">
	<unicode hex="0063"/>
	<advance width="430"/>
	<outline>
		<contour>
			<point x="212" y="-12" type="curve" smooth="yes"/>
			<point x="275" y="-12"/>
			<point x="329" y="18"/>
			<point x="362" y="46" type="curve"/>
			<point x="343" y="72" type="line"/>
			<point x="312" y="47"/>
			<point x="261" y="24"/>
			<point x="217" y="24" type="curve" smooth="yes"/>
			<point x="128" y="24"/>
			<point x="84" y="80"/>
			<point x="84" y="184" type="curve" smooth="yes"/>
			<point x="84" y="331"/>
			<point x="190" y="456"/>
			<point x="298" y="456" type="curve" smooth="yes"/>
			<point x="344" y="456"/>
			<point x="372" y="442"/>
			<point x="397" y="412" type="curve"/>
			<point x="422" y="434" type="line"/>
			<point x="397" y="469"/>
			<point x="358" y="492"/>
			<point x="301" y="492" type="curve" smooth="yes"/>
			<point x="172" y="492"/>
			<point x="42" y="364"/>
			<point x="42" y="178" type="curve" smooth="yes"/>
			<point x="42" y="57"/>
			<point x="109" y="-12"/>
		</contour>
	</outline>
	<anchor name="aboveLC" x="300" y="504"/>
	<anchor name="baseLC" x="201" y="0"/>
	<anchor name="belowLC" x="200" y="-22"/>
</glyph>
<glyph name="d" format="2">
	<unicode hex="0064"/>
	<advance width="528"/>
	<outline>
		<contour>
			<point x="185" y="-12" type="curve" smooth="yes"/>
			<point x="251" y="-12"/>
			<point x="313" y="25"/>
			<point x="362" y="77" type="curve"/>
			<point x="366" y="77" type="line"/>
			<point x="355" y="0" type="line"/>
			<point x="387" y="0" type="line"/>
			<point x="533" y="720" type="line"/>
			<point x="495" y="720" type="line"/>
			<point x="452" y="509" type="line"/>
			<point x="433" y="414" type="line"/>
			<point x="429" y="414" type="line"/>
			<point x="403" y="460"/>
			<point x="362" y="492"/>
			<point x="305" y="492" type="curve" smooth="yes"/>
			<point x="173" y="492"/>
			<point x="45" y="345"/>
			<point x="45" y="161" type="curve" smooth="yes"/>
			<point x="45" y="48"/>
			<point x="100" y="-12"/>
		</contour>
		<contour>
			<point x="192" y="22" type="curve" smooth="yes"/>
			<point x="125" y="22"/>
			<point x="83" y="70"/>
			<point x="83" y="168" type="curve" smooth="yes"/>
			<point x="83" y="313"/>
			<point x="189" y="458"/>
			<point x="304" y="458" type="curve" smooth="yes"/>
			<point x="350" y="458"/>
			<point x="389" y="433"/>
			<point x="425" y="370" type="curve"/>
			<point x="374" y="127" type="line"/>
			<point x="317" y="60"/>
			<point x="255" y="22"/>
		</contour>
	</outline>
	<anchor name="aboveUC" x="349" y="729"/>
	<anchor name="belowLC" x="212" y="-22"/>
</glyph>
<glyph name="e" format="2">
	<unicode hex="0065"/>
	<advance width="471"/>
	<outline>
		<contour>
			<point x="226" y="-12" type="curve" smooth="yes"/>
			<point x="285" y="-12"/>
			<point x="333" y="12"/>
			<point x="370" y="40" type="curve"/>
			<point x="352" y="66" type="line"/>
			<point x="317" y="41"/>
			<point x="279" y="24"/>
			<point x="231" y="24" type="curve" smooth="yes"/>
			<point x="136" y="24"/>
			<point x="62" y="87"/>
			<point x="88" y="238" type="curve"/>
			<point x="423" y="238" type="line"/>
			<point x="429" y="257"/>
			<point x="436" y="288"/>
			<point x="436" y="322" type="curve" smooth="yes"/>
			<point x="436" y="421"/>
			<point x="396" y="492"/>
			<point x="292" y="492" type="curve" smooth="yes"/>
			<point x="169" y="492"/>
			<point x="42" y="368"/>
			<point x="42" y="186" type="curve" smooth="yes"/>
			<point x="42" y="57"/>
			<point x="114" y="-12"/>
		</contour>
		<contour>
			<point x="94" y="272" type="line"/>
			<point x="120" y="380"/>
			<point x="203" y="457"/>
			<point x="288" y="457" type="curve" smooth="yes"/>
			<point x="370" y="457"/>
			<point x="398" y="393"/>
			<point x="398" y="328" type="curve" smooth="yes"/>
			<point x="398" y="308"/>
			<point x="396" y="290"/>
			<point x="392" y="272" type="curve"/>
		</contour>
	</outline>
	<anchor name="aboveLC" x="302" y="504"/>
	<anchor name="baseLC" x="213" y="0"/>
	<anchor name="belowLC" x="211" y="-22"/>
	<anchor name="ogonekLC" x="281" y="0"/>
</glyph>
<glyph name="f" format="2">
	<unicode hex="0066"/>
	<advance width="254"/>
	<outline>
		<contour>
			<point x="47" y="0" type="line"/>
			<point x="85" y="0" type="line"/>
			<point x="174" y="446" type="line"/>
			<point x="280" y="446" type="line"/>
			<point x="287" y="480" type="line"/>
			<point x="181" y="480" type="line"/>
			<point x="204" y="592" type="line" smooth="yes"/>
			<point x="216" y="650"/>
			<point x="247" y="698"/>
			<point x="295" y="698" type="curve" smooth="yes"/>
			<point x="323" y="698"/>
			<point x="339" y="692"/>
			<point x="355" y="683" type="curve"/>
			<point x="369" y="710" type="line"/>
			<point x="352" y="722"/>
			<point x="329" y="732"/>
			<point x="296" y="732" type="curve" smooth="yes"/>
			<point x="235" y="732"/>
			<point x="186" y="686"/>
			<point x="166" y="591" type="curve" smooth="yes"/>
			<point x="143" y="480" type="line"/>
			<point x="79" y="476" type="line"/>
			<point x="74" y="446" type="line"/>
			<point x="136" y="446" type="line"/>
		</contour>
	</outline>
	<anchor name="aboveUC" x="284" y="729"/>
	<anchor name="belowLC" x="65" y="-22"/>
</glyph>
<glyph name="g" format="2">
	<unicode hex="0067"/>
	<advance width="521"/>
	<outline>
		<contour>
			<point x="167" y="-231" type="curve" smooth="yes"/>
			<point x="278" y="-231"/>
			<point x="348" y="-160"/>
			<point x="372" y="-43" type="curve" smooth="yes"/>
			<point x="478" y="480" type="line"/>
			<point x="445" y="480" type="line"/>
			<point x="427" y="413" type="line"/>
			<point x="423" y="413" type="line"/>
			<point x="398" y="460"/>
			<point x="355" y="492"/>
			<point x="299" y="492" type="curve" smooth="yes"/>
			<point x="172" y="492"/>
			<point x="45" y="346"/>
			<point x="45" y="168" type="curve" smooth="yes"/>
			<point x="45" y="58"/>
			<point x="101" y="-2"/>
			<point x="183" y="-2" type="curve" smooth="yes"/>
			<point x="250" y="-2"/>
			<point x="308" y="33"/>
			<point x="362" y="86" type="curve"/>
			<point x="338" y="-27" type="line" smooth="yes"/>
			<point x="317" y="-129"/>
			<point x="264" y="-197"/>
			<point x="169" y="-197" type="curve" smooth="yes"/>
			<point x="114" y="-197"/>
			<point x="61" y="-174"/>
			<point x="27" y="-140" type="curve"/>
			<point x="5" y="-165" type="line"/>
			<point x="45" y="-206"/>
			<point x="102" y="-231"/>
		</contour>
		<contour>
			<point x="190" y="32" type="curve" smooth="yes"/>
			<point x="123" y="32"/>
			<point x="83" y="80"/>
			<point x="83" y="175" type="curve" smooth="yes"/>
			<point x="83" y="314"/>
			<point x="189" y="458"/>
			<point x="298" y="458" type="curve" smooth="yes"/>
			<point x="344" y="458"/>
			<point x="382" y="433"/>
			<point x="418" y="370" type="curve"/>
			<point x="368" y="130" type="line"/>
			<point x="313" y="70"/>
			<point x="244" y="32"/>
		</contour>
	</outline>
	<anchor name="aboveLC" x="310" y="504"/>
	<anchor name="belowLC" x="172" y="-220"/>
</glyph>
<glyph name="h" format="2">
	<unicode hex="0068"/>
	<advance width="508"/>
	<outline>
		<contour>
			<point x="41" y="0" type="line"/>
			<point x="79" y="0" type="line"/>
			<point x="151" y="355" type="line"/>
			<point x="224" y="426"/>
			<point x="281" y="457"/>
			<point x="324" y="457" type="curve" smooth="yes"/>
			<point x="385" y="457"/>
			<point x="410" y="427"/>
			<point x="410" y="367" type="curve" smooth="yes"/>
			<point x="410" y="348"/>
			<point x="408" y="334"/>
			<point x="402" y="305" type="curve" smooth="yes"/>
			<point x="340" y="0" type="line"/>
			<point x="378" y="0" type="line"/>
			<point x="440" y="310" type="line" smooth="yes"/>
			<point x="446" y="338"/>
			<point x="448" y="351"/>
			<point x="448" y="375" type="curve" smooth="yes"/>
			<point x="448" y="444"/>
			<point x="416" y="492"/>
			<point x="334" y="492" type="curve" smooth="yes"/>
			<point x="276" y="492"/>
			<point x="222" y="454"/>
			<point x="160" y="402" type="curve"/>
			<point x="156" y="402" type="line"/>
			<point x="169" y="451" type="line"/>
			<point x="223" y="720" type="line"/>
			<point x="185" y="720" type="line"/>
		</contour>
	</outline>
	<anchor name="aboveUC" x="372" y="729"/>
	<anchor name="belowLC" x="221" y="-22"/>
</glyph>
<glyph name="i" format="1">
	<unicode hex="0069"/>
	<advance width="220"/>
	<outline>
		<component base="dotlessi"/>
		<component base="dotaccentcmb" xOffset="65"/>
		<contour>
			<point name="ogonekLC" x="49" y="0" type="move"/>
		</contour>
		<contour>
			<point name="aboveLC" x="203" y="682" type="move"/>
		</contour>
		<contour>
			<point name="belowLC" x="67" y="-22" type="move"/>
		</contour>
	</outline>
</glyph>
<glyph name="j" format="1">
	<unicode hex="006A"/>
	<advance width="220"/>
	<outline>
		<component base="dotlessj"/>
		<component base="dotaccentcmb" xOffset="59"/>
		<contour>
			<point name="aboveLC" x="202" y="683" type="move"/>
		</contour>
		<contour>
			<point name="belowLC" x="-40" y="-231" type="move"/>
		</contour>
	</outline>
</glyph>
<glyph name="k" format="1">
	<unicode hex="006B"/>
	<advance width="447"/>
	<outline>
		<contour>
			<point x="40" y="0" type="line"/>
			<point x="82" y="0" type="line"/>
			<point x="107" y="125" type="line"/>
			<point x="238" y="258" type="line"/>
			<point x="342" y="0" type="line"/>
			<point x="385" y="0" type="line"/>
			<point x="269" y="285" type="line"/>
			<point x="457" y="480" type="line"/>
			<point x="407" y="480" type="line"/>
			<point x="123" y="190" type="line"/>
			<point x="120" y="190" type="line"/>
			<point x="225" y="719" type="line"/>
			<point x="184" y="719" type="line"/>
		</contour>
		<contour>
			<point name="aboveUC" x="213" y="730" type="move"/>
		</contour>
		<contour>
			<point name="belowLC" x="212" y="-22" type="move"/>
		</contour>
	</outline>
</glyph>
<glyph name="l" format="2">
	<unicode hex="006C"/>
	<advance width="232"/>
	<outline>
		<contour>
			<point x="93" y="-12" type="curve" smooth="yes"/>
			<point x="107" y="-12"/>
			<point x="115" y="-9"/>
			<point x="126" y="-5" type="curve"/>
			<point x="120" y="26" type="line"/>
			<point x="112" y="24"/>
			<point x="110" y="24"/>
			<point x="106" y="24" type="curve" smooth="yes"/>
			<point x="96" y="24"/>
			<point x="92" y="30"/>
			<point x="92" y="39" type="curve" smooth="yes"/>
			<point x="92" y="43"/>
			<point x="92" y="49"/>
			<point x="94" y="59" type="curve" smooth="yes"/>
			<point x="225" y="719" type="line"/>
			<point x="184" y="719" type="line"/>
			<point x="53" y="62" type="line" smooth="yes"/>
			<point x="50" y="50"/>
			<point x="48" y="39"/>
			<point x="48" y="31" type="curve" smooth="yes"/>
			<point x="48" y="3"/>
			<point x="66" y="-12"/>
		</contour>
	</outline>
	<anchor name="aboveUC" x="212" y="731"/>
	<anchor name="belowLC" x="75" y="-22"/>
</glyph>
<glyph name="m" format="1">
	<unicode hex="006D"/>
	<advance width="782"/>
	<outline>
		<contour>
			<point x="40" y="0" type="line"/>
			<point x="82" y="0" type="line"/>
			<point x="153" y="354" type="line"/>
			<point x="219" y="425"/>
			<point x="281" y="455"/>
			<point x="312" y="455" type="curve" smooth="yes"/>
			<point x="370" y="455"/>
			<point x="395" y="425"/>
			<point x="395" y="366" type="curve" smooth="yes"/>
			<point x="395" y="347"/>
			<point x="393" y="333"/>
			<point x="387" y="304" type="curve" smooth="yes"/>
			<point x="326" y="0" type="line"/>
			<point x="367" y="0" type="line"/>
			<point x="438" y="354" type="line"/>
			<point x="505" y="425"/>
			<point x="567" y="455"/>
			<point x="598" y="455" type="curve" smooth="yes"/>
			<point x="656" y="455"/>
			<point x="681" y="425"/>
			<point x="681" y="366" type="curve" smooth="yes"/>
			<point x="681" y="347"/>
			<point x="679" y="333"/>
			<point x="673" y="304" type="curve" smooth="yes"/>
			<point x="611" y="0" type="line"/>
			<point x="653" y="0" type="line"/>
			<point x="715" y="310" type="line" smooth="yes"/>
			<point x="721" y="338"/>
			<point x="723" y="351"/>
			<point x="723" y="375" type="curve" smooth="yes"/>
			<point x="723" y="445"/>
			<point x="690" y="492"/>
			<point x="610" y="492" type="curve" smooth="yes"/>
			<point x="563" y="492"/>
			<point x="501" y="456"/>
			<point x="435" y="392" type="curve"/>
			<point x="432" y="446"/>
			<point x="404" y="492"/>
			<point x="324" y="492" type="curve" smooth="yes"/>
			<point x="277" y="492"/>
			<point x="218" y="454"/>
			<point x="164" y="404" type="curve"/>
			<point x="160" y="404" type="line"/>
			<point x="171" y="480" type="line"/>
			<point x="137" y="480" type="line"/>
		</contour>
		<contour>
			<point name="aboveLC" x="464" y="504" type="move"/>
		</contour>
		<contour>
			<point name="belowLC" x="355" y="-22" type="move"/>
		</contour>
	</outline>
</glyph>
<glyph name="n" format="1">
	<unicode hex="006E"/>
	<advance width="510"/>
	<outline>
		<contour>
			<point x="40" y="0" type="line"/>
			<point x="82" y="0" type="line"/>
			<point x="153" y="354" type="line"/>
			<point x="225" y="425"/>
			<point x="281" y="455"/>
			<point x="323" y="455" type="curve" smooth="yes"/>
			<point x="384" y="455"/>
			<point x="409" y="425"/>
			<point x="409" y="366" type="curve" smooth="yes"/>
			<point x="409" y="347"/>
			<point x="406" y="333"/>
			<point x="401" y="304" type="curve" smooth="yes"/>
			<point x="339" y="0" type="line"/>
			<point x="380" y="0" type="line"/>
			<point x="442" y="310" type="line" smooth="yes"/>
			<point x="448" y="338"/>
			<point x="450" y="351"/>
			<point x="450" y="375" type="curve" smooth="yes"/>
			<point x="450" y="445"/>
			<point x="418" y="492"/>
			<point x="336" y="492" type="curve" smooth="yes"/>
			<point x="277" y="492"/>
			<point x="220" y="454"/>
			<point x="165" y="404" type="curve"/>
			<point x="161" y="404" type="line"/>
			<point x="171" y="480" type="line"/>
			<point x="137" y="480" type="line"/>
		</contour>
		<contour>
			<point name="aboveLC" x="324" y="504" type="move"/>
		</contour>
		<contour>
			<point name="belowLC" x="221" y="-22" type="move"/>
		</contour>
	</outline>
</glyph>
<glyph name="o" format="2">
	<unicode hex="006F"/>
	<advance width="503"/>
	<outline>
		<contour>
			<point x="206" y="-12" type="curve" smooth="yes"/>
			<point x="336" y="-12"/>
			<point x="458" y="123"/>
			<point x="458" y="302" type="curve" smooth="yes"/>
			<point x="458" y="422"/>
			<point x="395" y="492"/>
			<point x="297" y="492" type="curve" smooth="yes"/>
			<point x="166" y="492"/>
			<point x="44" y="357"/>
			<point x="44" y="178" type="curve" smooth="yes"/>
			<point x="44" y="57"/>
			<point x="108" y="-12"/>
		</contour>
		<contour>
			<point x="209" y="22" type="curve" smooth="yes"/>
			<point x="129" y="22"/>
			<point x="83" y="78"/>
			<point x="83" y="183" type="curve" smooth="yes"/>
			<point x="83" y="332"/>
			<point x="190" y="458"/>
			<point x="294" y="458" type="curve" smooth="yes"/>
			<point x="374" y="458"/>
			<point x="420" y="402"/>
			<point x="420" y="296" type="curve" smooth="yes"/>
			<point x="420" y="148"/>
			<point x="313" y="22"/>
		</contour>
	</outline>
	<anchor name="aboveLC" x="320" y="504"/>
	<anchor name="belowLC" x="191" y="-22"/>
	<anchor name="hornLC" x="392" y="480"/>
	<anchor name="ogonekLC" x="192" y="0"/>
</glyph>
<glyph name="p" format="2">
	<unicode hex="0070"/>
	<advance width="523"/>
	<outline>
		<contour>
			<point x="-2" y="-218" type="line"/>
			<point x="36" y="-218" type="line"/>
			<point x="69" y="-43" type="line"/>
			<point x="91" y="66" type="line"/>
			<point x="93" y="66" type="line"/>
			<point x="120" y="21"/>
			<point x="163" y="-12"/>
			<point x="220" y="-12" type="curve" smooth="yes"/>
			<point x="352" y="-12"/>
			<point x="480" y="134"/>
			<point x="480" y="319" type="curve" smooth="yes"/>
			<point x="480" y="430"/>
			<point x="425" y="492"/>
			<point x="340" y="492" type="curve" smooth="yes"/>
			<point x="274" y="492"/>
			<point x="214" y="453"/>
			<point x="163" y="411" type="curve"/>
			<point x="159" y="411" type="line"/>
			<point x="170" y="480" type="line"/>
			<point x="138" y="480" type="line"/>
		</contour>
		<contour>
			<point x="221" y="22" type="curve" smooth="yes"/>
			<point x="175" y="22"/>
			<point x="136" y="45"/>
			<point x="100" y="106" type="curve"/>
			<point x="153" y="367" type="line"/>
			<point x="208" y="420"/>
			<point x="279" y="458"/>
			<point x="333" y="458" type="curve" smooth="yes"/>
			<point x="399" y="458"/>
			<point x="441" y="409"/>
			<point x="441" y="312" type="curve" smooth="yes"/>
			<point x="441" y="166"/>
			<point x="336" y="22"/>
		</contour>
	</outline>
	<anchor name="aboveLC" x="331" y="504"/>
	<anchor name="belowLC" x="23" y="-216"/>
</glyph>
<glyph name="q" format="2">
	<unicode hex="0071"/>
	<advance width="524"/>
	<outline>
		<contour>
			<point x="304" y="-217" type="line"/>
			<point x="346" y="-217" type="line"/>
			<point x="485" y="480" type="line"/>
			<point x="451" y="480" type="line"/>
			<point x="432" y="414" type="line"/>
			<point x="429" y="414" type="line"/>
			<point x="403" y="461"/>
			<point x="361" y="492"/>
			<point x="305" y="492" type="curve" smooth="yes"/>
			<point x="172" y="492"/>
			<point x="44" y="346"/>
			<point x="44" y="161" type="curve" smooth="yes"/>
			<point x="44" y="49"/>
			<point x="100" y="-12"/>
			<point x="184" y="-12" type="curve" smooth="yes"/>
			<point x="250" y="-12"/>
			<point x="312" y="25"/>
			<point x="363" y="78" type="curve"/>
			<point x="365" y="78" type="line"/>
			<point x="339" y="-43" type="line"/>
		</contour>
		<contour>
			<point x="193" y="24" type="curve" smooth="yes"/>
			<point x="127" y="24"/>
			<point x="86" y="72"/>
			<point x="86" y="169" type="curve" smooth="yes"/>
			<point x="86" y="313"/>
			<point x="190" y="456"/>
			<point x="304" y="456" type="curve" smooth="yes"/>
			<point x="349" y="456"/>
			<point x="388" y="431"/>
			<point x="423" y="369" type="curve"/>
			<point x="373" y="128" type="line"/>
			<point x="316" y="62"/>
			<point x="255" y="24"/>
		</contour>
	</outline>
	<anchor name="aboveLC" x="319" y="504"/>
	<anchor name="belowLC" x="329" y="-216"/>
</glyph>
<glyph name="r" format="2">
	<unicode hex="0072"/>
	<advance width="317"/>
	<outline>
		<contour>
			<point x="40" y="0" type="line"/>
			<point x="82" y="0" type="line"/>
			<point x="145" y="318" type="line"/>
			<point x="188" y="404"/>
			<point x="249" y="453"/>
			<point x="300" y="453" type="curve" smooth="yes"/>
			<point x="318" y="453"/>
			<point x="329" y="451"/>
			<point x="338" y="447" type="curve"/>
			<point x="354" y="484" type="line"/>
			<point x="340" y="490"/>
			<point x="324" y="492"/>
			<point x="311" y="492" type="curve" smooth="yes"/>
			<point x="249" y="492"/>
			<point x="200" y="446"/>
			<point x="161" y="389" type="curve"/>
			<point x="157" y="389" type="line"/>
			<point x="171" y="480" type="line"/>
			<point x="137" y="480" type="line"/>
		</contour>
	</outline>
	<anchor name="aboveLC" x="241" y="504"/>
	<anchor name="belowLC" x="66" y="-22"/>
	<anchor name="center" x="121" y="219"/>
</glyph>
<glyph name="s" format="1">
	<unicode hex="0073"/>
	<advance width="389"/>
	<outline>
		<contour>
			<point x="159" y="-12" type="curve" smooth="yes"/>
			<point x="253" y="-12"/>
			<point x="327" y="43"/>
			<point x="327" y="131" type="curve" smooth="yes"/>
			<point x="327" y="183"/>
			<point x="304" y="212"/>
			<point x="207" y="267" type="curve" smooth="yes"/>
			<point x="162" y="293"/>
			<point x="118" y="319"/>
			<point x="118" y="363" type="curve" smooth="yes"/>
			<point x="118" y="414"/>
			<point x="167" y="457"/>
			<point x="226" y="457" type="curve" smooth="yes"/>
			<point x="274" y="457"/>
			<point x="306" y="437"/>
			<point x="331" y="409" type="curve"/>
			<point x="360" y="432" type="line"/>
			<point x="325" y="471"/>
			<point x="283" y="492"/>
			<point x="228" y="492" type="curve" smooth="yes"/>
			<point x="150" y="492"/>
			<point x="78" y="438"/>
			<point x="78" y="357" type="curve" smooth="yes"/>
			<point x="78" y="307"/>
			<point x="118" y="270"/>
			<point x="185" y="233" type="curve" smooth="yes"/>
			<point x="269" y="185"/>
			<point x="287" y="162"/>
			<point x="287" y="124" type="curve" smooth="yes"/>
			<point x="287" y="66"/>
			<point x="230" y="23"/>
			<point x="164" y="23" type="curve" smooth="yes"/>
			<point x="103" y="23"/>
			<point x="55" y="57"/>
			<point x="28" y="99" type="curve"/>
			<point x="-1" y="77" type="line"/>
			<point x="27" y="29"/>
			<point x="91" y="-12"/>
		</contour>
		<contour>
			<point name="aboveLC" x="252" y="504" type="move"/>
		</contour>
		<contour>
			<point name="baseLC" x="161" y="0" type="move"/>
		</contour>
		<contour>
			<point name="belowLC" x="160" y="-22" type="move"/>
		</contour>
	</outline>
</glyph>
<glyph name="t" format="1">
	<unicode hex="0074"/>
	<advance width="299"/>
	<outline>
		<contour>
			<point x="174" y="-12" type="curve" smooth="yes"/>
			<point x="205" y="-12"/>
			<point x="232" y="0"/>
			<point x="251" y="10" type="curve"/>
			<point x="240" y="41" type="line"/>
			<point x="224" y="33"/>
			<point x="205" y="24"/>
			<point x="182" y="24" type="curve" smooth="yes"/>
			<point x="130" y="24"/>
			<point x="114" y="47"/>
			<point x="114" y="91" type="curve" smooth="yes"/>
			<point x="114" y="105"/>
			<point x="116" y="117"/>
			<point x="118" y="129" type="curve" smooth="yes"/>
			<point x="183" y="444" type="line"/>
			<point x="313" y="444" type="line"/>
			<point x="321" y="480" type="line"/>
			<point x="191" y="480" type="line"/>
			<point x="223" y="637" type="line"/>
			<point x="188" y="637" type="line"/>
			<point x="151" y="480" type="line"/>
			<point x="73" y="476" type="line"/>
			<point x="67" y="444" type="line"/>
			<point x="142" y="444" type="line"/>
			<point x="77" y="131" type="line" smooth="yes"/>
			<point x="74" y="114"/>
			<point x="73" y="101"/>
			<point x="73" y="83" type="curve" smooth="yes"/>
			<point x="73" y="32"/>
			<point x="99" y="-12"/>
		</contour>
		<contour>
			<point name="aboveLC" x="206" y="637" type="move"/>
		</contour>
		<contour>
			<point name="baseLC" x="163" y="0" type="move"/>
		</contour>
		<contour>
			<point name="belowLC" x="153" y="-22" type="move"/>
		</contour>
	</outline>
</glyph>
<glyph name="u" format="2">
	<unicode hex="0075"/>
	<advance width="508"/>
	<outline>
		<contour>
			<point x="176" y="-12" type="curve" smooth="yes"/>
			<point x="234" y="-12"/>
			<point x="292" y="28"/>
			<point x="347" y="79" type="curve"/>
			<point x="351" y="79" type="line"/>
			<point x="340" y="0" type="line"/>
			<point x="372" y="0" type="line"/>
			<point x="468" y="480" type="line"/>
			<point x="430" y="480" type="line"/>
			<point x="359" y="125" type="line"/>
			<point x="286" y="53"/>
			<point x="229" y="23"/>
			<point x="186" y="23" type="curve" smooth="yes"/>
			<point x="125" y="23"/>
			<point x="100" y="53"/>
			<point x="100" y="113" type="curve" smooth="yes"/>
			<point x="100" y="132"/>
			<point x="102" y="146"/>
			<point x="108" y="175" type="curve" smooth="yes"/>
			<point x="170" y="480" type="line"/>
			<point x="132" y="480" type="line"/>
			<point x="70" y="170" type="line" smooth="yes"/>
			<point x="64" y="142"/>
			<point x="62" y="129"/>
			<point x="62" y="105" type="curve" smooth="yes"/>
			<point x="62" y="36"/>
			<point x="94" y="-12"/>
		</contour>
	</outline>
	<anchor name="aboveLC" x="311" y="504"/>
	<anchor name="baseLC" x="192" y="0"/>
	<anchor name="belowLC" x="222" y="-23"/>
	<anchor name="hornLC" x="452" y="490"/>
	<anchor name="ogonekLC" x="332" y="0"/>
</glyph>
<glyph name="v" format="2">
	<unicode hex="0076"/>
	<advance width="417"/>
	<outline>
		<contour>
			<point x="135" y="0" type="line"/>
			<point x="184" y="0" type="line"/>
			<point x="447" y="480" type="line"/>
			<point x="407" y="480" type="line"/>
			<point x="243" y="174" type="line" smooth="yes"/>
			<point x="217" y="128"/>
			<point x="192" y="80"/>
			<point x="168" y="33" type="curve"/>
			<point x="164" y="33" type="line"/>
			<point x="156" y="78"/>
			<point x="151" y="128"/>
			<point x="143" y="174" type="curve" smooth="yes"/>
			<point x="96" y="480" type="line"/>
			<point x="58" y="480" type="line"/>
		</contour>
	</outline>
	<anchor name="aboveLC" x="255" y="504"/>
	<anchor name="belowLC" x="164" y="-22"/>
</glyph>
<glyph name="w" format="2">
	<unicode hex="0077"/>
	<advance width="681"/>
	<outline>
		<contour>
			<point x="110" y="0" type="line"/>
			<point x="164" y="0" type="line"/>
			<point x="302" y="302" type="line" smooth="yes"/>
			<point x="324" y="348"/>
			<point x="345" y="400"/>
			<point x="365" y="446" type="curve"/>
			<point x="369" y="446" type="line"/>
			<point x="372" y="400"/>
			<point x="372" y="348"/>
			<point x="375" y="302" type="curve" smooth="yes"/>
			<point x="395" y="0" type="line"/>
			<point x="449" y="0" type="line"/>
			<point x="676" y="480" type="line"/>
			<point x="638" y="480" type="line"/>
			<point x="490" y="163" type="line" smooth="yes"/>
			<point x="468" y="120"/>
			<point x="450" y="76"/>
			<point x="430" y="34" type="curve"/>
			<point x="426" y="34" type="line"/>
			<point x="425" y="76"/>
			<point x="421" y="120"/>
			<point x="420" y="163" type="curve" smooth="yes"/>
			<point x="397" y="480" type="line"/>
			<point x="348" y="480" type="line"/>
			<point x="203" y="163" type="line" smooth="yes"/>
			<point x="184" y="120"/>
			<point x="166" y="76"/>
			<point x="146" y="34" type="curve"/>
			<point x="142" y="34" type="line"/>
			<point x="138" y="76"/>
			<point x="135" y="120"/>
			<point x="132" y="163" type="curve" smooth="yes"/>
			<point x="106" y="480" type="line"/>
			<point x="68" y="480" type="line"/>
		</contour>
	</outline>
	<anchor name="aboveLC" x="375" y="504"/>
	<anchor name="belowLC" x="284" y="-22"/>
</glyph>
<glyph name="x" format="2">
	<unicode hex="0078"/>
	<advance width="390"/>
	<outline>
		<contour>
			<point x="-47" y="0" type="line"/>
			<point x="-3" y="0" type="line"/>
			<point x="114" y="133" type="line" smooth="yes"/>
			<point x="143" y="165"/>
			<point x="168" y="193"/>
			<point x="191" y="223" type="curve"/>
			<point x="195" y="223" type="line"/>
			<point x="209" y="193"/>
			<point x="222" y="161"/>
			<point x="234" y="131" type="curve" smooth="yes"/>
			<point x="286" y="0" type="line"/>
			<point x="326" y="0" type="line"/>
			<point x="223" y="245" type="line"/>
			<point x="427" y="480" type="line"/>
			<point x="384" y="480" type="line"/>
			<point x="278" y="357" type="line" smooth="yes"/>
			<point x="254" y="329"/>
			<point x="231" y="303"/>
			<point x="208" y="277" type="curve"/>
			<point x="204" y="277" type="line"/>
			<point x="192" y="305"/>
			<point x="184" y="328"/>
			<point x="172" y="357" type="curve" smooth="yes"/>
			<point x="122" y="480" type="line"/>
			<point x="82" y="480" type="line"/>
			<point x="177" y="253" type="line"/>
		</contour>
	</outline>
	<anchor name="aboveLC" x="257" y="505"/>
	<anchor name="belowLC" x="157" y="-22"/>
</glyph>
<glyph name="y" format="2">
	<unicode hex="0079"/>
	<advance width="417"/>
	<outline>
		<contour>
			<point x="-32" y="-219" type="curve" smooth="yes"/>
			<point x="46" y="-219"/>
			<point x="102" y="-154"/>
			<point x="152" y="-61" type="curve" smooth="yes"/>
			<point x="448" y="480" type="line"/>
			<point x="408" y="480" type="line"/>
			<point x="244" y="176" type="line"/>
			<point x="219" y="130"/>
			<point x="193" y="82"/>
			<point x="169" y="36" type="curve"/>
			<point x="165" y="36" type="line"/>
			<point x="158" y="80"/>
			<point x="152" y="131"/>
			<point x="145" y="176" type="curve" smooth="yes"/>
			<point x="97" y="480" type="line"/>
			<point x="58" y="480" type="line"/>
			<point x="139" y="-9" type="line"/>
			<point x="118" y="-51" type="line" smooth="yes"/>
			<point x="77" y="-132"/>
			<point x="28" y="-185"/>
			<point x="-30" y="-185" type="curve" smooth="yes"/>
			<point x="-44" y="-185"/>
			<point x="-56" y="-183"/>
			<point x="-67" y="-179" type="curve"/>
			<point x="-79" y="-208" type="line"/>
			<point x="-65" y="-217"/>
			<point x="-48" y="-219"/>
		</contour>
	</outline>
	<anchor name="aboveLC" x="255" y="504"/>
	<anchor name="belowLC" x="91" y="-239"/>
</glyph>
<glyph name="z" format="2">
	<unicode hex="007A"/>
	<advance width="391"/>
	<outline>
		<contour>
			<point x="-10" y="0" type="line"/>
			<point x="324" y="0" type="line"/>
			<point x="332" y="36" type="line"/>
			<point x="50" y="36" type="line"/>
			<point x="409" y="455" type="line"/>
			<point x="413" y="480" type="line"/>
			<point x="115" y="480" type="line"/>
			<point x="107" y="444" type="line"/>
			<point x="352" y="444" type="line"/>
			<point x="-6" y="25" type="line"/>
		</contour>
	</outline>
	<anchor name="aboveLC" x="264" y="504"/>
	<anchor name="belowLC" x="163" y="-22"/>
	<anchor name="center" x="203" y="241"/>
</glyph>
<glyph name="braceleft" format="2">
	<unicode hex="007B"/>
	<advance width="268"/>
	<outline>
		<contour>
			<point x="131" y="-152" type="curve" smooth="yes"/>
			<point x="165" y="-152" type="line"/>
			<point x="172" y="-124" type="line"/>
			<point x="144" y="-124" type="line" smooth="yes"/>
			<point x="96" y="-124"/>
			<point x="82" y="-105"/>
			<point x="82" y="-66" type="curve" smooth="yes"/>
			<point x="82" y="0"/>
			<point x="139" y="148"/>
			<point x="139" y="218" type="curve" smooth="yes"/>
			<point x="139" y="240"/>
			<point x="133" y="261"/>
			<point x="100" y="274" type="curve"/>
			<point x="101" y="278" type="line"/>
			<point x="144" y="290"/>
			<point x="163" y="325"/>
			<point x="176" y="386" type="curve" smooth="yes"/>
			<point x="188" y="449"/>
			<point x="196" y="517"/>
			<point x="207" y="576" type="curve" smooth="yes"/>
			<point x="221" y="646"/>
			<point x="242" y="680"/>
			<point x="302" y="680" type="curve" smooth="yes"/>
			<point x="332" y="680" type="line"/>
			<point x="337" y="708" type="line"/>
			<point x="302" y="708" type="line" smooth="yes"/>
			<point x="228" y="708"/>
			<point x="193" y="681"/>
			<point x="173" y="580" type="curve" smooth="yes"/>
			<point x="159" y="512"/>
			<point x="152" y="439"/>
			<point x="140" y="375" type="curve" smooth="yes"/>
			<point x="132" y="335"/>
			<point x="112" y="294"/>
			<point x="42" y="293" type="curve"/>
			<point x="35" y="263" type="line"/>
			<point x="94" y="262"/>
			<point x="105" y="234"/>
			<point x="105" y="210" type="curve" smooth="yes"/>
			<point x="105" y="146"/>
			<point x="46" y="-5"/>
			<point x="46" y="-76" type="curve" smooth="yes"/>
			<point x="46" y="-129"/>
			<point x="73" y="-152"/>
		</contour>
	</outline>
</glyph>
<glyph name="bar" format="2">
	<unicode hex="007C"/>
	<advance width="216"/>
	<outline>
		<contour>
			<point x="99" y="-250" type="line"/>
			<point x="131" y="-250" type="line"/>
			<point x="131" y="750" type="line"/>
			<point x="99" y="750" type="line"/>
		</contour>
	</outline>
</glyph>
<glyph name="braceright" format="1">
	<unicode hex="007D"/>
	<advance width="270"/>
	<outline>
		<contour>
			<point x="-61" y="-152" type="line"/>
			<point x="-25" y="-152" type="line" smooth="yes"/>
			<point x="47" y="-152"/>
			<point x="82" y="-125"/>
			<point x="102" y="-24" type="curve" smooth="yes"/>
			<point x="116" y="44"/>
			<point x="124" y="117"/>
			<point x="136" y="181" type="curve" smooth="yes"/>
			<point x="144" y="221"/>
			<point x="165" y="262"/>
			<point x="234" y="263" type="curve"/>
			<point x="242" y="293" type="line"/>
			<point x="182" y="294"/>
			<point x="172" y="322"/>
			<point x="172" y="346" type="curve" smooth="yes"/>
			<point x="172" y="410"/>
			<point x="229" y="561"/>
			<point x="229" y="632" type="curve" smooth="yes"/>
			<point x="229" y="685"/>
			<point x="203" y="708"/>
			<point x="145" y="708" type="curve" smooth="yes"/>
			<point x="111" y="708" type="line"/>
			<point x="104" y="680" type="line"/>
			<point x="133" y="680" type="line" smooth="yes"/>
			<point x="181" y="680"/>
			<point x="194" y="661"/>
			<point x="194" y="622" type="curve" smooth="yes"/>
			<point x="194" y="556"/>
			<point x="139" y="408"/>
			<point x="139" y="338" type="curve" smooth="yes"/>
			<point x="139" y="316"/>
			<point x="145" y="294"/>
			<point x="176" y="282" type="curve"/>
			<point x="176" y="278" type="line"/>
			<point x="133" y="266"/>
			<point x="113" y="231"/>
			<point x="101" y="170" type="curve" smooth="yes"/>
			<point x="89" y="107"/>
			<point x="81" y="39"/>
			<point x="69" y="-20" type="curve" smooth="yes"/>
			<point x="56" y="-90"/>
			<point x="34" y="-124"/>
			<point x="-25" y="-124" type="curve" smooth="yes"/>
			<point x="-55" y="-124" type="line"/>
		</contour>
	</outline>
</glyph>
<glyph name="asciitilde" format="2">
	<unicode hex="007E"/>
	<advance width="461"/>
	<outline>
		<contour>
			<point x="326" y="270" type="curve" smooth="yes"/>
			<point x="363" y="270"/>
			<point x="402" y="296"/>
			<point x="430" y="350" type="curve"/>
			<point x="403" y="365" type="line"/>
			<point x="380" y="320"/>
			<point x="356" y="302"/>
			<point x="326" y="302" type="curve" smooth="yes"/>
			<point x="272" y="302"/>
			<point x="225" y="392"/>
			<point x="153" y="392" type="curve" smooth="yes"/>
			<point x="116" y="392"/>
			<point x="76" y="366"/>
			<point x="49" y="312" type="curve"/>
			<point x="75" y="297" type="line"/>
			<point x="99" y="342"/>
			<point x="123" y="360"/>
			<point x="152" y="360" type="curve" smooth="yes"/>
			<point x="206" y="360"/>
			<point x="253" y="270"/>
		</contour>
	</outline>
</glyph>
<glyph name="exclamdown" format="2">
	<unicode hex="00A1"/>
	<advance width="250"/>
	<outline>
		<contour>
			<point x="23" y="-192" type="line"/>
			<point x="62" y="-192" type="line"/>
			<point x="155" y="303" type="line"/>
			<point x="124" y="303" type="line"/>
			<point x="37" y="-122" type="line"/>
		</contour>
		<contour>
			<point x="159" y="406" type="curve" smooth="yes"/>
			<point x="185" y="406"/>
			<point x="207" y="433"/>
			<point x="207" y="458" type="curve" smooth="yes"/>
			<point x="207" y="476"/>
			<point x="195" y="492"/>
			<point x="175" y="492" type="curve" smooth="yes"/>
			<point x="149" y="492"/>
			<point x="129" y="467"/>
			<point x="129" y="442" type="curve" smooth="yes"/>
			<point x="129" y="422"/>
			<point x="139" y="406"/>
		</contour>
	</outline>
</glyph>
<glyph name="cent" format="2">
	<unicode hex="00A2"/>
	<advance width="461"/>
	<outline>
		<contour>
			<point x="246" y="100" type="curve" smooth="yes"/>
			<point x="318" y="100"/>
			<point x="363" y="129"/>
			<point x="403" y="154" type="curve"/>
			<point x="386" y="180" type="line"/>
			<point x="351" y="156"/>
			<point x="306" y="133"/>
			<point x="251" y="133" type="curve" smooth="yes"/>
			<point x="164" y="133"/>
			<point x="121" y="196"/>
			<point x="121" y="295" type="curve" smooth="yes"/>
			<point x="121" y="435"/>
			<point x="229" y="526"/>
			<point x="318" y="526" type="curve" smooth="yes"/>
			<point x="372" y="526"/>
			<point x="401" y="505"/>
			<point x="429" y="474" type="curve"/>
			<point x="453" y="495" type="line"/>
			<point x="426" y="530"/>
			<point x="384" y="560"/>
			<point x="321" y="560" type="curve" smooth="yes"/>
			<point x="210" y="560"/>
			<point x="81" y="458"/>
			<point x="81" y="288" type="curve" smooth="yes"/>
			<point x="81" y="167"/>
			<point x="145" y="100"/>
		</contour>
		<contour>
			<point x="198" y="-11" type="line"/>
			<point x="230" y="-11" type="line"/>
			<point x="364" y="667" type="line"/>
			<point x="332" y="667" type="line"/>
		</contour>
	</outline>
</glyph>
<glyph name="sterling" format="2">
	<unicode hex="00A3"/>
	<advance width="461"/>
	<outline>
		<contour>
			<point x="8" y="0" type="line"/>
			<point x="362" y="0" type="line"/>
			<point x="367" y="34" type="line"/>
			<point x="93" y="34" type="line"/>
			<point x="93" y="38" type="line"/>
			<point x="163" y="99"/>
			<point x="197" y="173"/>
			<point x="197" y="276" type="curve" smooth="yes"/>
			<point x="197" y="330"/>
			<point x="187" y="394"/>
			<point x="187" y="443" type="curve" smooth="yes"/>
			<point x="187" y="546"/>
			<point x="248" y="618"/>
			<point x="333" y="618" type="curve" smooth="yes"/>
			<point x="383" y="618"/>
			<point x="416" y="589"/>
			<point x="436" y="550" type="curve"/>
			<point x="464" y="569" type="line"/>
			<point x="443" y="614"/>
			<point x="397" y="652"/>
			<point x="335" y="652" type="curve" smooth="yes"/>
			<point x="225" y="652"/>
			<point x="150" y="572"/>
			<point x="150" y="439" type="curve" smooth="yes"/>
			<point x="150" y="387"/>
			<point x="160" y="319"/>
			<point x="160" y="269" type="curve" smooth="yes"/>
			<point x="160" y="168"/>
			<point x="114" y="75"/>
			<point x="13" y="22" type="curve"/>
		</contour>
		<contour>
			<point x="64" y="293" type="line"/>
			<point x="350" y="293" type="line"/>
			<point x="357" y="326" type="line"/>
			<point x="160" y="326" type="line"/>
			<point x="71" y="322" type="line"/>
		</contour>
	</outline>
</glyph>
<glyph name="currency" format="1">
	<unicode hex="00A4"/>
	<advance width="462"/>
	<outline>
		<contour>
			<point x="34" y="127" type="line"/>
			<point x="106" y="190" type="line"/>
			<point x="129" y="160"/>
			<point x="164" y="144"/>
			<point x="208" y="144" type="curve" smooth="yes"/>
			<point x="253" y="144"/>
			<point x="297" y="163"/>
			<point x="332" y="194" type="curve"/>
			<point x="386" y="124" type="line"/>
			<point x="412" y="145" type="line"/>
			<point x="357" y="218" type="line"/>
			<point x="391" y="258"/>
			<point x="413" y="311"/>
			<point x="413" y="369" type="curve" smooth="yes"/>
			<point x="413" y="399"/>
			<point x="408" y="426"/>
			<point x="398" y="447" type="curve"/>
			<point x="474" y="514" type="line"/>
			<point x="453" y="540" type="line"/>
			<point x="379" y="475" type="line"/>
			<point x="355" y="503"/>
			<point x="321" y="519"/>
			<point x="279" y="519" type="curve" smooth="yes"/>
			<point x="236" y="519"/>
			<point x="195" y="502"/>
			<point x="161" y="475" type="curve"/>
			<point x="114" y="538" type="line"/>
			<point x="87" y="516" type="line"/>
			<point x="135" y="452" type="line"/>
			<point x="97" y="411"/>
			<point x="74" y="355"/>
			<point x="74" y="294" type="curve" smooth="yes"/>
			<point x="74" y="264"/>
			<point x="79" y="239"/>
			<point x="87" y="218" type="curve"/>
			<point x="13" y="153" type="line"/>
		</contour>
		<contour>
			<point x="211" y="179" type="curve" smooth="yes"/>
			<point x="148" y="179"/>
			<point x="113" y="222"/>
			<point x="113" y="301" type="curve" smooth="yes"/>
			<point x="113" y="405"/>
			<point x="196" y="485"/>
			<point x="275" y="485" type="curve" smooth="yes"/>
			<point x="339" y="485"/>
			<point x="373" y="442"/>
			<point x="373" y="363" type="curve" smooth="yes"/>
			<point x="373" y="259"/>
			<point x="291" y="179"/>
		</contour>
	</outline>
</glyph>
<glyph name="yen" format="2">
	<unicode hex="00A5"/>
	<advance width="462"/>
	<outline>
		<contour>
			<point x="161" y="0" type="line"/>
			<point x="202" y="0" type="line"/>
			<point x="233" y="161" type="line"/>
			<point x="393" y="161" type="line"/>
			<point x="401" y="191" type="line"/>
			<point x="240" y="191" type="line"/>
			<point x="256" y="272" type="line"/>
			<point x="416" y="272" type="line"/>
			<point x="423" y="303" type="line"/>
			<point x="278" y="303" type="line"/>
			<point x="503" y="640" type="line"/>
			<point x="460" y="640" type="line"/>
			<point x="334" y="443" type="line"/>
			<point x="303" y="399"/>
			<point x="276" y="355"/>
			<point x="243" y="304" type="curve"/>
			<point x="239" y="304" type="line"/>
			<point x="228" y="355"/>
			<point x="216" y="399"/>
			<point x="205" y="443" type="curve" smooth="yes"/>
			<point x="153" y="640" type="line"/>
			<point x="111" y="640" type="line"/>
			<point x="207" y="303" type="line"/>
			<point x="62" y="303" type="line"/>
			<point x="54" y="272" type="line"/>
			<point x="215" y="272" type="line"/>
			<point x="199" y="191" type="line"/>
			<point x="39" y="191" type="line"/>
			<point x="32" y="161" type="line"/>
			<point x="192" y="161" type="line"/>
		</contour>
	</outline>
</glyph>
<glyph name="brokenbar" format="2">
	<unicode hex="00A6"/>
	<advance width="216"/>
	<outline>
		<contour>
			<point x="99" y="277" type="line"/>
			<point x="131" y="277" type="line"/>
			<point x="131" y="750" type="line"/>
			<point x="99" y="750" type="line"/>
		</contour>
		<contour>
			<point x="99" y="-250" type="line"/>
			<point x="131" y="-250" type="line"/>
			<point x="131" y="219" type="line"/>
			<point x="99" y="219" type="line"/>
		</contour>
	</outline>
</glyph>
<glyph name="section" format="2">
	<unicode hex="00A7"/>
	<advance width="459"/>
	<outline>
		<contour>
			<point x="283" y="140" type="line"/>
			<point x="366" y="171"/>
			<point x="414" y="204"/>
			<point x="414" y="292" type="curve" smooth="yes"/>
			<point x="414" y="440"/>
			<point x="193" y="443"/>
			<point x="193" y="556" type="curve" smooth="yes"/>
			<point x="193" y="613"/>
			<point x="241" y="648"/>
			<point x="288" y="648" type="curve" smooth="yes"/>
			<point x="334" y="648"/>
			<point x="373" y="622"/>
			<point x="403" y="587" type="curve"/>
			<point x="430" y="612" type="line"/>
			<point x="394" y="649"/>
			<point x="347" y="681"/>
			<point x="290" y="681" type="curve" smooth="yes"/>
			<point x="215" y="681"/>
			<point x="156" y="631"/>
			<point x="156" y="550" type="curve" smooth="yes"/>
			<point x="156" y="419"/>
			<point x="378" y="417"/>
			<point x="378" y="285" type="curve" smooth="yes"/>
			<point x="378" y="215"/>
			<point x="339" y="190"/>
			<point x="267" y="167" type="curve"/>
		</contour>
		<contour>
			<point x="176" y="-47" type="curve" smooth="yes"/>
			<point x="259" y="-47"/>
			<point x="322" y="15"/>
			<point x="322" y="92" type="curve" smooth="yes"/>
			<point x="322" y="234"/>
			<point x="97" y="220"/>
			<point x="97" y="350" type="curve" smooth="yes"/>
			<point x="97" y="415"/>
			<point x="141" y="451"/>
			<point x="206" y="474" type="curve"/>
			<point x="193" y="500" type="line"/>
			<point x="117" y="476"/>
			<point x="61" y="425"/>
			<point x="61" y="343" type="curve" smooth="yes"/>
			<point x="61" y="197"/>
			<point x="285" y="209"/>
			<point x="285" y="85" type="curve" smooth="yes"/>
			<point x="285" y="27"/>
			<point x="236" y="-14"/>
			<point x="178" y="-14" type="curve" smooth="yes"/>
			<point x="130" y="-14"/>
			<point x="84" y="11"/>
			<point x="48" y="50" type="curve"/>
			<point x="24" y="22" type="line"/>
			<point x="67" y="-21"/>
			<point x="119" y="-47"/>
		</contour>
	</outline>
</glyph>
<glyph name="copyright" format="2">
	<unicode hex="00A9"/>
	<advance width="661"/>
	<outline>
		<contour>
			<point x="298" y="-12" type="curve" smooth="yes"/>
			<point x="514" y="-12"/>
			<point x="654" y="188"/>
			<point x="654" y="376" type="curve" smooth="yes"/>
			<point x="654" y="540"/>
			<point x="549" y="652"/>
			<point x="395" y="652" type="curve" smooth="yes"/>
			<point x="179" y="652"/>
			<point x="39" y="453"/>
			<point x="39" y="264" type="curve" smooth="yes"/>
			<point x="39" y="101"/>
			<point x="144" y="-12"/>
		</contour>
		<contour>
			<point x="300" y="16" type="curve" smooth="yes"/>
			<point x="159" y="16"/>
			<point x="69" y="116"/>
			<point x="69" y="269" type="curve" smooth="yes"/>
			<point x="69" y="435"/>
			<point x="197" y="625"/>
			<point x="393" y="625" type="curve" smooth="yes"/>
			<point x="534" y="625"/>
			<point x="624" y="525"/>
			<point x="624" y="372" type="curve" smooth="yes"/>
			<point x="624" y="205"/>
			<point x="496" y="16"/>
		</contour>
		<contour>
			<point x="323" y="124" type="curve" smooth="yes"/>
			<point x="380" y="124"/>
			<point x="417" y="146"/>
			<point x="457" y="176" type="curve"/>
			<point x="440" y="200" type="line"/>
			<point x="405" y="174"/>
			<point x="371" y="155"/>
			<point x="327" y="155" type="curve" smooth="yes"/>
			<point x="260" y="155"/>
			<point x="218" y="197"/>
			<point x="218" y="280" type="curve" smooth="yes"/>
			<point x="218" y="396"/>
			<point x="307" y="479"/>
			<point x="380" y="479" type="curve" smooth="yes"/>
			<point x="415" y="479"/>
			<point x="435" y="468"/>
			<point x="454" y="442" type="curve"/>
			<point x="478" y="460" type="line"/>
			<point x="458" y="492"/>
			<point x="431" y="510"/>
			<point x="383" y="510" type="curve" smooth="yes"/>
			<point x="292" y="510"/>
			<point x="183" y="420"/>
			<point x="183" y="273" type="curve" smooth="yes"/>
			<point x="183" y="173"/>
			<point x="242" y="124"/>
		</contour>
	</outline>
</glyph>
<glyph name="logicalnot" format="2">
	<unicode hex="00AC"/>
	<advance width="461"/>
	<outline>
		<contour>
			<point x="406" y="109" type="line"/>
			<point x="441" y="109" type="line"/>
			<point x="441" y="347" type="line"/>
			<point x="48" y="347" type="line"/>
			<point x="48" y="315" type="line"/>
			<point x="406" y="315" type="line"/>
		</contour>
	</outline>
</glyph>
<glyph name="registered" format="2">
	<unicode hex="00AE"/>
	<advance width="382"/>
	<outline>
		<contour>
			<point x="223" y="330" type="curve" smooth="yes"/>
			<point x="331" y="330"/>
			<point x="417" y="432"/>
			<point x="417" y="543" type="curve" smooth="yes"/>
			<point x="417" y="640"/>
			<point x="346" y="707"/>
			<point x="261" y="707" type="curve" smooth="yes"/>
			<point x="151" y="707"/>
			<point x="67" y="603"/>
			<point x="67" y="494" type="curve" smooth="yes"/>
			<point x="67" y="395"/>
			<point x="138" y="330"/>
		</contour>
		<contour>
			<point x="225" y="356" type="curve" smooth="yes"/>
			<point x="144" y="356"/>
			<point x="96" y="416"/>
			<point x="96" y="498" type="curve" smooth="yes"/>
			<point x="96" y="595"/>
			<point x="169" y="681"/>
			<point x="259" y="681" type="curve" smooth="yes"/>
			<point x="338" y="681"/>
			<point x="388" y="621"/>
			<point x="388" y="539" type="curve" smooth="yes"/>
			<point x="388" y="440"/>
			<point x="314" y="356"/>
		</contour>
		<contour>
			<point x="163" y="418" type="line"/>
			<point x="192" y="418" type="line"/>
			<point x="208" y="492" type="line"/>
			<point x="246" y="492" type="line"/>
			<point x="272" y="418" type="line"/>
			<point x="302" y="418" type="line"/>
			<point x="273" y="499" type="line"/>
			<point x="301" y="509"/>
			<point x="323" y="533"/>
			<point x="323" y="565" type="curve" smooth="yes"/>
			<point x="323" y="603"/>
			<point x="300" y="623"/>
			<point x="262" y="623" type="curve" smooth="yes"/>
			<point x="205" y="623" type="line"/>
		</contour>
		<contour>
			<point x="214" y="518" type="line"/>
			<point x="228" y="597" type="line"/>
			<point x="256" y="597" type="line" smooth="yes"/>
			<point x="282" y="597"/>
			<point x="293" y="584"/>
			<point x="293" y="563" type="curve" smooth="yes"/>
			<point x="293" y="534"/>
			<point x="272" y="518"/>
			<point x="239" y="518" type="curve" smooth="yes"/>
		</contour>
	</outline>
</glyph>
<glyph name="degree" format="2">
	<unicode hex="00B0"/>
	<advance width="290"/>
	<outline>
		<contour>
			<point x="200" y="451" type="curve" smooth="yes"/>
			<point x="266" y="451"/>
			<point x="318" y="512"/>
			<point x="318" y="584" type="curve" smooth="yes"/>
			<point x="318" y="643"/>
			<point x="277" y="684"/>
			<point x="222" y="684" type="curve" smooth="yes"/>
			<point x="157" y="684"/>
			<point x="105" y="623"/>
			<point x="105" y="552" type="curve" smooth="yes"/>
			<point x="105" y="492"/>
			<point x="146" y="451"/>
		</contour>
		<contour>
			<point x="202" y="479" type="curve" smooth="yes"/>
			<point x="161" y="479"/>
			<point x="135" y="512"/>
			<point x="135" y="555" type="curve" smooth="yes"/>
			<point x="135" y="605"/>
			<point x="169" y="656"/>
			<point x="220" y="656" type="curve" smooth="yes"/>
			<point x="262" y="656"/>
			<point x="287" y="623"/>
			<point x="287" y="580" type="curve" smooth="yes"/>
			<point x="287" y="530"/>
			<point x="254" y="479"/>
		</contour>
	</outline>
</glyph>
<glyph name="plusminus" format="2">
	<unicode hex="00B1"/>
	<advance width="461"/>
	<outline>
		<contour>
			<point x="227" y="114" type="line"/>
			<point x="262" y="114" type="line"/>
			<point x="262" y="317" type="line"/>
			<point x="441" y="317" type="line"/>
			<point x="441" y="350" type="line"/>
			<point x="262" y="350" type="line"/>
			<point x="262" y="548" type="line"/>
			<point x="227" y="548" type="line"/>
			<point x="227" y="350" type="line"/>
			<point x="48" y="350" type="line"/>
			<point x="48" y="317" type="line"/>
			<point x="227" y="317" type="line"/>
		</contour>
		<contour>
			<point x="48" y="0" type="line"/>
			<point x="441" y="0" type="line"/>
			<point x="441" y="33" type="line"/>
			<point x="48" y="33" type="line"/>
		</contour>
	</outline>
</glyph>
<glyph name="mu.math" format="1">
	<unicode hex="00B5"/>
	<advance width="514"/>
	<outline>
		<contour>
			<point x="174" y="480" type="line"/>
			<point x="133" y="480" type="line"/>
			<point x="-3" y="-198" type="line"/>
			<point x="38" y="-198" type="line"/>
			<point x="68" y="-42" type="line"/>
			<point x="85" y="54" type="line"/>
			<point x="100" y="6"/>
			<point x="138" y="-11"/>
			<point x="184" y="-11" type="curve" smooth="yes"/>
			<point x="239" y="-11"/>
			<point x="292" y="28"/>
			<point x="348" y="78" type="curve"/>
			<point x="352" y="78" type="line"/>
			<point x="341" y="0" type="line"/>
			<point x="376" y="0" type="line"/>
			<point x="472" y="480" type="line"/>
			<point x="431" y="480" type="line"/>
			<point x="360" y="126" type="line"/>
			<point x="288" y="56"/>
			<point x="232" y="25"/>
			<point x="190" y="25" type="curve" smooth="yes"/>
			<point x="130" y="25"/>
			<point x="105" y="55"/>
			<point x="105" y="114" type="curve" smooth="yes"/>
			<point x="105" y="133"/>
			<point x="107" y="147"/>
			<point x="113" y="176" type="curve" smooth="yes"/>
		</contour>
	</outline>
</glyph>
<glyph name="paragraph" format="2">
	<unicode hex="00B6"/>
	<advance width="488"/>
	<outline>
		<contour>
			<point x="290" y="-80" type="line"/>
			<point x="329" y="-80" type="line"/>
			<point x="476" y="659" type="line"/>
			<point x="438" y="659" type="line"/>
		</contour>
		<contour>
			<point x="299" y="243" type="curve" smooth="yes"/>
			<point x="303" y="243" type="line"/>
			<point x="388" y="659" type="line"/>
			<point x="337" y="659" type="line" smooth="yes"/>
			<point x="204" y="659"/>
			<point x="75" y="577"/>
			<point x="75" y="415" type="curve" smooth="yes"/>
			<point x="75" y="302"/>
			<point x="177" y="243"/>
		</contour>
	</outline>
</glyph>
<glyph name="questiondown" format="2">
	<unicode hex="00BF"/>
	<advance width="386"/>
	<outline>
		<contour>
			<point x="127" y="-200" type="curve" smooth="yes"/>
			<point x="187" y="-200"/>
			<point x="243" y="-169"/>
			<point x="277" y="-132" type="curve"/>
			<point x="254" y="-107" type="line"/>
			<point x="223" y="-142"/>
			<point x="177" y="-167"/>
			<point x="131" y="-167" type="curve" smooth="yes"/>
			<point x="69" y="-167"/>
			<point x="32" y="-128"/>
			<point x="32" y="-63" type="curve" smooth="yes"/>
			<point x="32" y="78"/>
			<point x="236" y="126"/>
			<point x="243" y="300" type="curve"/>
			<point x="208" y="303" type="line"/>
			<point x="199" y="142"/>
			<point x="-6" y="95"/>
			<point x="-6" y="-70" type="curve" smooth="yes"/>
			<point x="-6" y="-152"/>
			<point x="45" y="-200"/>
		</contour>
		<contour>
			<point x="243" y="408" type="curve" smooth="yes"/>
			<point x="268" y="408"/>
			<point x="290" y="435"/>
			<point x="290" y="459" type="curve" smooth="yes"/>
			<point x="290" y="478"/>
			<point x="278" y="494"/>
			<point x="258" y="494" type="curve" smooth="yes"/>
			<point x="232" y="494"/>
			<point x="212" y="469"/>
			<point x="212" y="444" type="curve" smooth="yes"/>
			<point x="212" y="424"/>
			<point x="222" y="408"/>
		</contour>
	</outline>
</glyph>
<glyph name="AE" format="2">
	<unicode hex="00C6"/>
	<advance width="780"/>
	<outline>
		<contour>
			<point x="-32" y="0" type="line"/>
			<point x="15" y="0" type="line"/>
			<point x="297" y="390" type="line" smooth="yes"/>
			<point x="353" y="468"/>
			<point x="409" y="546"/>
			<point x="465" y="625" type="curve"/>
			<point x="469" y="625" type="line"/>
			<point x="344" y="0" type="line"/>
			<point x="685" y="0" type="line"/>
			<point x="693" y="34" type="line"/>
			<point x="390" y="34" type="line"/>
			<point x="451" y="333" type="line"/>
			<point x="695" y="333" type="line"/>
			<point x="703" y="367" type="line"/>
			<point x="457" y="367" type="line"/>
			<point x="509" y="625" type="line"/>
			<point x="801" y="625" type="line"/>
			<point x="809" y="659" type="line"/>
			<point x="451" y="659" type="line"/>
		</contour>
		<contour>
			<point x="151" y="219" type="line"/>
			<point x="414" y="219" type="line"/>
			<point x="423" y="253" type="line"/>
			<point x="160" y="253" type="line"/>
		</contour>
	</outline>
	<anchor name="aboveUC" x="620" y="681"/>
</glyph>
<glyph name="Eth" format="2">
	<unicode hex="00D0"/>
	<advance width="598"/>
	<outline>
		<contour>
			<point x="51" y="332" type="line"/>
			<point x="332" y="332" type="line"/>
			<point x="339" y="367" type="line"/>
			<point x="133" y="367" type="line"/>
			<point x="59" y="363" type="line"/>
		</contour>
		<component base="D" xOffset="20"/>
	</outline>
	<anchor name="aboveUC" x="374" y="681"/>
	<anchor name="belowLC" x="263" y="-22"/>
</glyph>
<glyph name="multiply" format="2">
	<unicode hex="00D7"/>
	<advance width="461"/>
	<outline>
		<contour>
			<point x="88" y="145" type="line"/>
			<point x="244" y="309" type="line"/>
			<point x="400" y="145" type="line"/>
			<point x="423" y="168" type="line"/>
			<point x="267" y="332" type="line"/>
			<point x="423" y="494" type="line"/>
			<point x="400" y="516" type="line"/>
			<point x="244" y="355" type="line"/>
			<point x="88" y="516" type="line"/>
			<point x="66" y="494" type="line"/>
			<point x="222" y="332" type="line"/>
			<point x="66" y="168" type="line"/>
		</contour>
	</outline>
</glyph>
<glyph name="Oslash" format="2">
	<unicode hex="00D8"/>
	<advance width="618"/>
	<outline>
		<contour>
			<point x="27" y="-24" type="line"/>
			<point x="650" y="658" type="line"/>
			<point x="629" y="680" type="line"/>
			<point x="1" y="-2" type="line"/>
		</contour>
		<component base="O"/>
	</outline>
	<anchor name="aboveUC" x="392" y="681"/>
</glyph>
<glyph name="Thorn" format="2">
	<unicode hex="00DE"/>
	<advance width="542"/>
	<outline>
		<contour>
			<point x="39" y="0" type="line"/>
			<point x="79" y="0" type="line"/>
			<point x="112" y="166" type="line"/>
			<point x="234" y="166" type="line" smooth="yes"/>
			<point x="403" y="166"/>
			<point x="512" y="238"/>
			<point x="512" y="386" type="curve" smooth="yes"/>
			<point x="512" y="492"/>
			<point x="439" y="538"/>
			<point x="319" y="538" type="curve" smooth="yes"/>
			<point x="187" y="538" type="line"/>
			<point x="211" y="660" type="line"/>
			<point x="171" y="660" type="line"/>
		</contour>
		<contour>
			<point x="120" y="200" type="line"/>
			<point x="180" y="504" type="line"/>
			<point x="300" y="504" type="line" smooth="yes"/>
			<point x="413" y="504"/>
			<point x="472" y="469"/>
			<point x="472" y="382" type="curve" smooth="yes"/>
			<point x="472" y="262"/>
			<point x="389" y="200"/>
			<point x="230" y="200" type="curve" smooth="yes"/>
		</contour>
	</outline>
</glyph>
<glyph name="germandbls" format="2">
	<unicode hex="00DF"/>
	<advance width="524"/>
	<outline>
		<contour>
			<point x="318" y="-12" type="curve" smooth="yes"/>
			<point x="408" y="-12"/>
			<point x="472" y="54"/>
			<point x="472" y="134" type="curve" smooth="yes"/>
			<point x="472" y="261"/>
			<point x="324" y="271"/>
			<point x="324" y="362" type="curve" smooth="yes"/>
			<point x="324" y="451"/>
			<point x="478" y="478"/>
			<point x="478" y="610" type="curve" smooth="yes"/>
			<point x="478" y="689"/>
			<point x="426" y="731"/>
			<point x="349" y="731" type="curve" smooth="yes"/>
			<point x="244" y="731"/>
			<point x="169" y="641"/>
			<point x="148" y="536" type="curve" smooth="yes"/>
			<point x="40" y="0" type="line"/>
			<point x="82" y="0" type="line"/>
			<point x="186" y="524" type="line" smooth="yes"/>
			<point x="206" y="618"/>
			<point x="267" y="695"/>
			<point x="346" y="695" type="curve" smooth="yes"/>
			<point x="410" y="695"/>
			<point x="437" y="657"/>
			<point x="437" y="607" type="curve" smooth="yes"/>
			<point x="437" y="491"/>
			<point x="283" y="467"/>
			<point x="283" y="354" type="curve" smooth="yes"/>
			<point x="283" y="252"/>
			<point x="432" y="239"/>
			<point x="432" y="127" type="curve" smooth="yes"/>
			<point x="432" y="67"/>
			<point x="380" y="23"/>
			<point x="319" y="23" type="curve" smooth="yes"/>
			<point x="275" y="23"/>
			<point x="238" y="39"/>
			<point x="205" y="67" type="curve"/>
			<point x="185" y="41" type="line"/>
			<point x="221" y="5"/>
			<point x="271" y="-12"/>
		</contour>
	</outline>
</glyph>
<glyph name="ae" format="2">
	<unicode hex="00E6"/>
	<advance width="765"/>
	<outline>
		<contour>
			<point x="158" y="-12" type="curve" smooth="yes"/>
			<point x="230" y="-12"/>
			<point x="300" y="27"/>
			<point x="368" y="94" type="curve"/>
			<point x="388" y="33"/>
			<point x="448" y="-12"/>
			<point x="518" y="-12" type="curve" smooth="yes"/>
			<point x="581" y="-12"/>
			<point x="626" y="12"/>
			<point x="663" y="40" type="curve"/>
			<point x="646" y="64" type="line"/>
			<point x="611" y="39"/>
			<point x="574" y="22"/>
			<point x="523" y="22" type="curve" smooth="yes"/>
			<point x="426" y="22"/>
			<point x="370" y="112"/>
			<point x="394" y="238" type="curve"/>
			<point x="716" y="238" type="line"/>
			<point x="723" y="258"/>
			<point x="730" y="288"/>
			<point x="730" y="322" type="curve" smooth="yes"/>
			<point x="730" y="420"/>
			<point x="689" y="492"/>
			<point x="586" y="492" type="curve" smooth="yes"/>
			<point x="519" y="492"/>
			<point x="452" y="448"/>
			<point x="407" y="378" type="curve"/>
			<point x="401" y="456"/>
			<point x="353" y="492"/>
			<point x="282" y="492" type="curve" smooth="yes"/>
			<point x="227" y="492"/>
			<point x="166" y="468"/>
			<point x="122" y="442" type="curve"/>
			<point x="138" y="413" type="line"/>
			<point x="181" y="439"/>
			<point x="237" y="458"/>
			<point x="278" y="458" type="curve" smooth="yes"/>
			<point x="348" y="458"/>
			<point x="374" y="420"/>
			<point x="374" y="354" type="curve" smooth="yes"/>
			<point x="374" y="335"/>
			<point x="372" y="320"/>
			<point x="366" y="296" type="curve"/>
			<point x="169" y="288"/>
			<point x="38" y="236"/>
			<point x="38" y="103" type="curve" smooth="yes"/>
			<point x="38" y="27"/>
			<point x="94" y="-12"/>
		</contour>
		<contour>
			<point x="168" y="22" type="curve" smooth="yes"/>
			<point x="116" y="22"/>
			<point x="76" y="52"/>
			<point x="76" y="111" type="curve" smooth="yes"/>
			<point x="76" y="211"/>
			<point x="190" y="260"/>
			<point x="361" y="264" type="curve"/>
			<point x="351" y="212"/>
			<point x="350" y="178"/>
			<point x="357" y="125" type="curve"/>
			<point x="289" y="54"/>
			<point x="218" y="22"/>
		</contour>
		<contour>
			<point x="400" y="271" type="line"/>
			<point x="426" y="381"/>
			<point x="508" y="458"/>
			<point x="582" y="458" type="curve" smooth="yes"/>
			<point x="665" y="458"/>
			<point x="694" y="394"/>
			<point x="694" y="328" type="curve" smooth="yes"/>
			<point x="694" y="307"/>
			<point x="692" y="290"/>
			<point x="688" y="271" type="curve"/>
		</contour>
	</outline>
	<anchor name="aboveLC" x="440" y="522"/>
	<anchor name="belowLC" x="340" y="-22"/>
</glyph>
<glyph name="eth" format="2">
	<unicode hex="00F0"/>
	<advance width="518"/>
	<outline>
		<contour>
			<point x="212" y="-12" type="curve" smooth="yes"/>
			<point x="356" y="-12"/>
			<point x="455" y="143"/>
			<point x="455" y="344" type="curve" smooth="yes"/>
			<point x="455" y="533"/>
			<point x="370" y="645"/>
			<point x="224" y="724" type="curve"/>
			<point x="202" y="697" type="line"/>
			<point x="345" y="616"/>
			<point x="414" y="519"/>
			<point x="414" y="337" type="curve" smooth="yes"/>
			<point x="414" y="171"/>
			<point x="335" y="24"/>
			<point x="219" y="24" type="curve" smooth="yes"/>
			<point x="136" y="24"/>
			<point x="89" y="93"/>
			<point x="89" y="171" type="curve" smooth="yes"/>
			<point x="89" y="289"/>
			<point x="166" y="406"/>
			<point x="282" y="406" type="curve" smooth="yes"/>
			<point x="345" y="406"/>
			<point x="387" y="357"/>
			<point x="417" y="308" type="curve"/>
			<point x="427" y="343" type="line"/>
			<point x="393" y="401"/>
			<point x="342" y="442"/>
			<point x="282" y="442" type="curve" smooth="yes"/>
			<point x="140" y="442"/>
			<point x="48" y="307"/>
			<point x="48" y="166" type="curve" smooth="yes"/>
			<point x="48" y="67"/>
			<point x="115" y="-12"/>
		</contour>
		<contour>
			<point x="185" y="519" type="line"/>
			<point x="508" y="655" type="line"/>
			<point x="496" y="686" type="line"/>
			<point x="174" y="549" type="line"/>
		</contour>
	</outline>
	<anchor name="aboveUC" x="354" y="731"/>
	<anchor name="belowLC" x="211" y="-22"/>
</glyph>
<glyph name="divide" format="2">
	<unicode hex="00F7"/>
	<advance width="461"/>
	<outline>
		<contour>
			<point x="48" y="315" type="line"/>
			<point x="441" y="315" type="line"/>
			<point x="441" y="347" type="line"/>
			<point x="48" y="347" type="line"/>
		</contour>
		<contour>
			<point x="244" y="110" type="curve" smooth="yes"/>
			<point x="265" y="110"/>
			<point x="279" y="128"/>
			<point x="279" y="148" type="curve" smooth="yes"/>
			<point x="279" y="168"/>
			<point x="265" y="184"/>
			<point x="244" y="184" type="curve" smooth="yes"/>
			<point x="224" y="184"/>
			<point x="210" y="168"/>
			<point x="210" y="148" type="curve" smooth="yes"/>
			<point x="210" y="128"/>
			<point x="224" y="110"/>
		</contour>
		<contour>
			<point x="244" y="474" type="curve" smooth="yes"/>
			<point x="265" y="474"/>
			<point x="279" y="492"/>
			<point x="279" y="512" type="curve" smooth="yes"/>
			<point x="279" y="532"/>
			<point x="265" y="548"/>
			<point x="244" y="548" type="curve" smooth="yes"/>
			<point x="224" y="548"/>
			<point x="210" y="532"/>
			<point x="210" y="512" type="curve" smooth="yes"/>
			<point x="210" y="492"/>
			<point x="224" y="474"/>
		</contour>
	</outline>
</glyph>
<glyph name="oslash" format="2">
	<unicode hex="00F8"/>
	<advance width="503"/>
	<outline>
		<contour>
			<point x="206" y="-12" type="curve" smooth="yes"/>
			<point x="336" y="-12"/>
			<point x="458" y="123"/>
			<point x="458" y="302" type="curve" smooth="yes"/>
			<point x="458" y="423"/>
			<point x="394" y="492"/>
			<point x="297" y="492" type="curve" smooth="yes"/>
			<point x="166" y="492"/>
			<point x="44" y="357"/>
			<point x="44" y="178" type="curve" smooth="yes"/>
			<point x="44" y="57"/>
			<point x="108" y="-12"/>
		</contour>
		<contour>
			<point x="208" y="22" type="curve" smooth="yes"/>
			<point x="128" y="22"/>
			<point x="82" y="78"/>
			<point x="82" y="183" type="curve" smooth="yes"/>
			<point x="82" y="330"/>
			<point x="188" y="458"/>
			<point x="294" y="458" type="curve" smooth="yes"/>
			<point x="375" y="458"/>
			<point x="421" y="402"/>
			<point x="421" y="296" type="curve" smooth="yes"/>
			<point x="421" y="150"/>
			<point x="315" y="22"/>
		</contour>
		<contour>
			<point x="21" y="-23" type="line"/>
			<point x="510" y="479" type="line"/>
			<point x="487" y="501" type="line"/>
			<point x="-1" y="-1" type="line"/>
		</contour>
	</outline>
	<anchor name="aboveLC" x="320" y="504"/>
	<anchor name="belowLC" x="191" y="-22"/>
</glyph>
<glyph name="Aogonek" format="2">
	<unicode hex="0104"/>
	<advance width="488"/>
	<outline>
		<contour>
			<point x="387" y="-215" type="curve" smooth="yes"/>
			<point x="415" y="-215"/>
			<point x="440" y="-205"/>
			<point x="464" y="-183" type="curve"/>
			<point x="451" y="-160" type="line"/>
			<point x="430" y="-175"/>
			<point x="416" y="-181"/>
			<point x="397" y="-181" type="curve" smooth="yes"/>
			<point x="370" y="-181"/>
			<point x="351" y="-163"/>
			<point x="351" y="-136" type="curve" smooth="yes"/>
			<point x="351" y="-87"/>
			<point x="396" y="-38"/>
			<point x="443" y="0" type="curve"/>
			<point x="362" y="659" type="line"/>
			<point x="315" y="659" type="line"/>
			<point x="-48" y="0" type="line"/>
			<point x="0" y="0" type="line"/>
			<point x="210" y="391" type="line" smooth="yes"/>
			<point x="251" y="467"/>
			<point x="289" y="536"/>
			<point x="328" y="616" type="curve"/>
			<point x="332" y="616" type="line"/>
			<point x="339" y="538"/>
			<point x="348" y="464"/>
			<point x="355" y="391" type="curve" smooth="yes"/>
			<point x="400" y="0" type="line"/>
			<point x="405" y="0" type="line"/>
			<point x="363" y="-32"/>
			<point x="309" y="-90"/>
			<point x="309" y="-147" type="curve" smooth="yes"/>
			<point x="309" y="-192"/>
			<point x="343" y="-215"/>
		</contour>
		<contour>
			<point x="105" y="229" type="line"/>
			<point x="389" y="229" type="line"/>
			<point x="397" y="264" type="line"/>
			<point x="115" y="264" type="line"/>
		</contour>
	</outline>
	<anchor name="aboveUC" x="335" y="681"/>
</glyph>
<glyph name="aogonek" format="2">
	<unicode hex="0105"/>
	<advance width="527"/>
	<outline>
		<contour>
			<point x="328" y="-213" type="curve" smooth="yes"/>
			<point x="357" y="-213"/>
			<point x="381" y="-202"/>
			<point x="406" y="-180" type="curve"/>
			<point x="392" y="-159" type="line"/>
			<point x="371" y="-173"/>
			<point x="358" y="-179"/>
			<point x="338" y="-179" type="curve" smooth="yes"/>
			<point x="313" y="-179"/>
			<point x="296" y="-162"/>
			<point x="296" y="-133" type="curve" smooth="yes"/>
			<point x="296" y="-83"/>
			<point x="337" y="-34"/>
			<point x="389" y="0" type="curve"/>
			<point x="485" y="480" type="line"/>
			<point x="451" y="480" type="line"/>
			<point x="432" y="414" type="line"/>
			<point x="429" y="414" type="line"/>
			<point x="403" y="461"/>
			<point x="361" y="492"/>
			<point x="305" y="492" type="curve" smooth="yes"/>
			<point x="172" y="492"/>
			<point x="44" y="346"/>
			<point x="44" y="161" type="curve" smooth="yes"/>
			<point x="44" y="49"/>
			<point x="100" y="-12"/>
			<point x="184" y="-12" type="curve" smooth="yes"/>
			<point x="250" y="-12"/>
			<point x="312" y="25"/>
			<point x="361" y="76" type="curve"/>
			<point x="365" y="76" type="line"/>
			<point x="356" y="9" type="line"/>
			<point x="309" y="-22"/>
			<point x="256" y="-84"/>
			<point x="256" y="-143" type="curve" smooth="yes"/>
			<point x="256" y="-190"/>
			<point x="287" y="-213"/>
		</contour>
		<contour>
			<point x="193" y="24" type="curve" smooth="yes"/>
			<point x="127" y="24"/>
			<point x="86" y="72"/>
			<point x="86" y="169" type="curve" smooth="yes"/>
			<point x="86" y="313"/>
			<point x="190" y="456"/>
			<point x="304" y="456" type="curve" smooth="yes"/>
			<point x="349" y="456"/>
			<point x="388" y="431"/>
			<point x="423" y="369" type="curve"/>
			<point x="373" y="128" type="line"/>
			<point x="316" y="62"/>
			<point x="255" y="24"/>
		</contour>
	</outline>
	<anchor name="aboveLC" x="311" y="504"/>
</glyph>
<glyph name="dcroat" format="2">
	<unicode hex="0111"/>
	<advance width="525"/>
	<outline>
		<contour>
			<point x="184" y="-12" type="curve" smooth="yes"/>
			<point x="250" y="-12"/>
			<point x="312" y="25"/>
			<point x="361" y="76" type="curve"/>
			<point x="365" y="76" type="line"/>
			<point x="354" y="0" type="line"/>
			<point x="389" y="0" type="line"/>
			<point x="534" y="719" type="line"/>
			<point x="493" y="719" type="line"/>
			<point x="446" y="487" type="line"/>
			<point x="427" y="391" type="line"/>
			<point x="423" y="391" type="line"/>
			<point x="400" y="438"/>
			<point x="358" y="469"/>
			<point x="302" y="469" type="curve" smooth="yes"/>
			<point x="170" y="469"/>
			<point x="44" y="325"/>
			<point x="44" y="161" type="curve" smooth="yes"/>
			<point x="44" y="49"/>
			<point x="100" y="-12"/>
		</contour>
		<contour>
			<point x="193" y="24" type="curve" smooth="yes"/>
			<point x="127" y="24"/>
			<point x="86" y="72"/>
			<point x="86" y="169" type="curve" smooth="yes"/>
			<point x="86" y="294"/>
			<point x="188" y="433"/>
			<point x="301" y="433" type="curve" smooth="yes"/>
			<point x="346" y="433"/>
			<point x="385" y="408"/>
			<point x="418" y="346" type="curve"/>
			<point x="373" y="128" type="line"/>
			<point x="316" y="62"/>
			<point x="255" y="24"/>
		</contour>
		<contour>
			<point x="299" y="578" type="line"/>
			<point x="505" y="578" type="line"/>
			<point x="579" y="582" type="line"/>
			<point x="587" y="612" type="line"/>
			<point x="307" y="612" type="line"/>
		</contour>
	</outline>
</glyph>
<glyph name="Eogonek" format="2">
	<unicode hex="0118"/>
	<advance width="488"/>
	<outline>
		<contour>
			<point x="310" y="-215" type="curve" smooth="yes"/>
			<point x="338" y="-215"/>
			<point x="362" y="-205"/>
			<point x="386" y="-183" type="curve"/>
			<point x="373" y="-161" type="line"/>
			<point x="352" y="-177"/>
			<point x="338" y="-182"/>
			<point x="319" y="-182" type="curve" smooth="yes"/>
			<point x="292" y="-182"/>
			<point x="272" y="-165"/>
			<point x="272" y="-137" type="curve" smooth="yes"/>
			<point x="272" y="-80"/>
			<point x="343" y="-1"/>
			<point x="393" y="0" type="curve"/>
			<point x="401" y="34" type="line"/>
			<point x="85" y="34" type="line"/>
			<point x="146" y="333" type="line"/>
			<point x="403" y="333" type="line"/>
			<point x="411" y="367" type="line"/>
			<point x="152" y="367" type="line"/>
			<point x="203" y="625" type="line"/>
			<point x="509" y="625" type="line"/>
			<point x="517" y="659" type="line"/>
			<point x="171" y="659" type="line"/>
			<point x="39" y="0" type="line"/>
			<point x="328" y="0" type="line"/>
			<point x="287" y="-32"/>
			<point x="233" y="-90"/>
			<point x="233" y="-148" type="curve" smooth="yes"/>
			<point x="233" y="-192"/>
			<point x="266" y="-215"/>
		</contour>
	</outline>
	<anchor name="aboveUC" x="362" y="681"/>
</glyph>
<glyph name="eogonek" format="2">
	<unicode hex="0119"/>
	<advance width="471"/>
	<outline>
		<contour>
			<point x="256" y="-213" type="curve" smooth="yes"/>
			<point x="284" y="-213"/>
			<point x="308" y="-202"/>
			<point x="333" y="-180" type="curve"/>
			<point x="319" y="-159" type="line"/>
			<point x="299" y="-173"/>
			<point x="285" y="-179"/>
			<point x="266" y="-179" type="curve" smooth="yes"/>
			<point x="241" y="-179"/>
			<point x="223" y="-162"/>
			<point x="223" y="-133" type="curve" smooth="yes"/>
			<point x="223" y="-84"/>
			<point x="264" y="-30"/>
			<point x="370" y="40" type="curve"/>
			<point x="352" y="70" type="line"/>
			<point x="317" y="45"/>
			<point x="274" y="24"/>
			<point x="231" y="24" type="curve" smooth="yes"/>
			<point x="136" y="24"/>
			<point x="62" y="87"/>
			<point x="88" y="238" type="curve"/>
			<point x="423" y="238" type="line"/>
			<point x="429" y="257"/>
			<point x="436" y="288"/>
			<point x="436" y="322" type="curve" smooth="yes"/>
			<point x="436" y="421"/>
			<point x="396" y="492"/>
			<point x="292" y="492" type="curve" smooth="yes"/>
			<point x="169" y="492"/>
			<point x="42" y="368"/>
			<point x="42" y="186" type="curve" smooth="yes"/>
			<point x="42" y="57"/>
			<point x="114" y="-12"/>
			<point x="225" y="-12" type="curve" smooth="yes"/>
			<point x="241" y="-12"/>
			<point x="262" y="-8"/>
			<point x="279" y="-3" type="curve"/>
			<point x="279" y="4" type="line"/>
			<point x="220" y="-41"/>
			<point x="183" y="-89"/>
			<point x="183" y="-143" type="curve" smooth="yes"/>
			<point x="183" y="-190"/>
			<point x="214" y="-213"/>
		</contour>
		<contour>
			<point x="94" y="272" type="line"/>
			<point x="120" y="380"/>
			<point x="203" y="457"/>
			<point x="288" y="457" type="curve" smooth="yes"/>
			<point x="370" y="457"/>
			<point x="398" y="393"/>
			<point x="398" y="328" type="curve" smooth="yes"/>
			<point x="398" y="308"/>
			<point x="396" y="290"/>
			<point x="392" y="272" type="curve"/>
		</contour>
	</outline>
	<anchor name="aboveLC" x="302" y="504"/>
</glyph>
<glyph name="Hbar" format="1">
	<unicode hex="0126"/>
	<advance width="637"/>
	<outline>
		<contour>
			<point x="79" y="494" type="line"/>
			<point x="650" y="494" type="line"/>
			<point x="657" y="527" type="line"/>
			<point x="162" y="527" type="line"/>
			<point x="86" y="525" type="line"/>
		</contour>
		<component base="H" xOffset="14"/>
	</outline>
</glyph>
<glyph name="hbar" format="2">
	<unicode hex="0127"/>
	<advance width="527"/>
	<outline>
		<contour>
			<point x="58" y="0" type="line"/>
			<point x="100" y="0" type="line"/>
			<point x="166" y="331" type="line"/>
			<point x="238" y="401"/>
			<point x="294" y="432"/>
			<point x="337" y="432" type="curve" smooth="yes"/>
			<point x="397" y="432"/>
			<point x="422" y="402"/>
			<point x="422" y="343" type="curve" smooth="yes"/>
			<point x="422" y="324"/>
			<point x="420" y="310"/>
			<point x="414" y="281" type="curve" smooth="yes"/>
			<point x="357" y="0" type="line"/>
			<point x="398" y="0" type="line"/>
			<point x="456" y="287" type="line" smooth="yes"/>
			<point x="462" y="314"/>
			<point x="464" y="328"/>
			<point x="464" y="352" type="curve" smooth="yes"/>
			<point x="464" y="421"/>
			<point x="431" y="469"/>
			<point x="349" y="469" type="curve" smooth="yes"/>
			<point x="291" y="469"/>
			<point x="237" y="432"/>
			<point x="176" y="380" type="curve"/>
			<point x="172" y="380" type="line"/>
			<point x="185" y="430" type="line"/>
			<point x="243" y="719" type="line"/>
			<point x="202" y="719" type="line"/>
		</contour>
		<contour>
			<point x="84" y="577" type="line"/>
			<point x="398" y="577" type="line"/>
			<point x="405" y="612" type="line"/>
			<point x="181" y="612" type="line"/>
			<point x="89" y="608" type="line"/>
		</contour>
	</outline>
</glyph>
<glyph name="Iogonek" format="2">
	<unicode hex="012E"/>
	<advance width="222"/>
	<outline>
		<contour>
			<point x="26" y="-215" type="curve" smooth="yes"/>
			<point x="54" y="-215"/>
			<point x="79" y="-205"/>
			<point x="104" y="-183" type="curve"/>
			<point x="90" y="-160" type="line"/>
			<point x="69" y="-175"/>
			<point x="56" y="-181"/>
			<point x="37" y="-181" type="curve" smooth="yes"/>
			<point x="10" y="-181"/>
			<point x="-10" y="-163"/>
			<point x="-10" y="-136" type="curve" smooth="yes"/>
			<point x="-10" y="-87"/>
			<point x="36" y="-38"/>
			<point x="82" y="0" type="curve"/>
			<point x="213" y="659" type="line"/>
			<point x="170" y="659" type="line"/>
			<point x="39" y="0" type="line"/>
			<point x="44" y="0" type="line"/>
			<point x="3" y="-32"/>
			<point x="-51" y="-90"/>
			<point x="-51" y="-147" type="curve" smooth="yes"/>
			<point x="-51" y="-192"/>
			<point x="-18" y="-215"/>
		</contour>
	</outline>
	<anchor name="aboveUC" x="195" y="681"/>
</glyph>
<glyph name="dotlessi" format="2">
	<unicode hex="0131"/>
	<advance width="220"/>
	<outline>
		<contour>
			<point x="40" y="0" type="line"/>
			<point x="82" y="0" type="line"/>
			<point x="178" y="480" type="line"/>
			<point x="137" y="480" type="line"/>
		</contour>
	</outline>
	<anchor name="aboveLC" x="163" y="504"/>
	<anchor name="belowLC" x="62" y="-22"/>
	<anchor name="ogonekLC" x="62" y="0"/>
</glyph>
<glyph name="IJ" format="1">
	<unicode hex="0132"/>
	<advance width="444"/>
	<outline>
		<contour>
			<point x="179" y="-153" type="curve" smooth="yes"/>
			<point x="246" y="-153"/>
			<point x="284" y="-98"/>
			<point x="302" y="-10" type="curve" smooth="yes"/>
			<point x="435" y="659" type="line"/>
			<point x="392" y="659" type="line"/>
			<point x="257" y="-16" type="line" smooth="yes"/>
			<point x="245" y="-77"/>
			<point x="219" y="-115"/>
			<point x="180" y="-115" type="curve" smooth="yes"/>
			<point x="155" y="-115"/>
			<point x="145" y="-110"/>
			<point x="132" y="-102" type="curve"/>
			<point x="117" y="-136" type="line"/>
			<point x="133" y="-145"/>
			<point x="151" y="-153"/>
		</contour>
		<contour>
			<point x="39" y="0" type="line"/>
			<point x="82" y="0" type="line"/>
			<point x="213" y="659" type="line"/>
			<point x="170" y="659" type="line"/>
		</contour>
	</outline>
</glyph>
<glyph name="kgreenlandic" format="2">
	<unicode hex="0138"/>
	<advance width="444"/>
	<outline>
		<contour>
			<point x="41" y="0" type="line"/>
			<point x="79" y="0" type="line"/>
			<point x="105" y="125" type="line"/>
			<point x="238" y="260" type="line"/>
			<point x="343" y="0" type="line"/>
			<point x="383" y="0" type="line"/>
			<point x="267" y="285" type="line"/>
			<point x="454" y="480" type="line"/>
			<point x="407" y="480" type="line"/>
			<point x="120" y="187" type="line"/>
			<point x="118" y="187" type="line"/>
			<point x="176" y="480" type="line"/>
			<point x="137" y="480" type="line"/>
		</contour>
	</outline>
</glyph>
<glyph name="Lslash" format="2">
	<unicode hex="0141"/>
	<advance width="452"/>
	<outline>
		<contour>
			<point x="10" y="232" type="line"/>
			<point x="110" y="272" type="line"/>
			<point x="139" y="282" type="line"/>
			<point x="367" y="374" type="line"/>
			<point x="354" y="406" type="line"/>
			<point x="147" y="323" type="line"/>
			<point x="118" y="312" type="line"/>
			<point x="-3" y="264" type="line"/>
		</contour>
		<component base="L" xOffset="12"/>
	</outline>
	<anchor name="aboveUC" x="216" y="681"/>
	<anchor name="belowLC" x="233" y="-22"/>
</glyph>
<glyph name="lslash" format="2">
	<unicode hex="0142"/>
	<advance width="257"/>
	<outline>
		<contour>
			<point x="34" y="344" type="line"/>
			<point x="141" y="392" type="line"/>
			<point x="169" y="403" type="line"/>
			<point x="297" y="461" type="line"/>
			<point x="284" y="491" type="line"/>
			<point x="177" y="442" type="line"/>
			<point x="149" y="431" type="line"/>
			<point x="21" y="373" type="line"/>
		</contour>
		<component base="l" xOffset="13"/>
	</outline>
	<anchor name="aboveUC" x="224" y="730"/>
	<anchor name="belowLC" x="79" y="-22"/>
</glyph>
<glyph name="Eng" format="2">
	<unicode hex="014A"/>
	<advance width="592"/>
	<outline>
		<contour>
			<point x="334" y="-12" type="curve" smooth="yes"/>
			<point x="469" y="-12"/>
			<point x="566" y="213"/>
			<point x="566" y="452" type="curve" smooth="yes"/>
			<point x="566" y="607"/>
			<point x="494" y="671"/>
			<point x="388" y="671" type="curve" smooth="yes"/>
			<point x="332" y="671"/>
			<point x="249" y="631"/>
			<point x="197" y="581" type="curve"/>
			<point x="213" y="659" type="line"/>
			<point x="170" y="659" type="line"/>
			<point x="39" y="0" type="line"/>
			<point x="82" y="0" type="line"/>
			<point x="188" y="534" type="line"/>
			<point x="251" y="599"/>
			<point x="332" y="634"/>
			<point x="380" y="634" type="curve" smooth="yes"/>
			<point x="465" y="634"/>
			<point x="523" y="586"/>
			<point x="523" y="446" type="curve" smooth="yes"/>
			<point x="523" y="239"/>
			<point x="435" y="25"/>
			<point x="334" y="25" type="curve" smooth="yes"/>
			<point x="314" y="25"/>
			<point x="294" y="29"/>
			<point x="277" y="38" type="curve"/>
			<point x="261" y="6" type="line"/>
			<point x="280" y="-6"/>
			<point x="309" y="-12"/>
		</contour>
	</outline>
	<anchor name="aboveUC" x="405" y="681"/>
	<anchor name="belowLC" x="245" y="-22"/>
</glyph>
<glyph name="eng" format="2">
	<unicode hex="014B"/>
	<advance width="509"/>
	<outline>
		<contour>
			<point x="241" y="-230" type="curve" smooth="yes"/>
			<point x="308" y="-230"/>
			<point x="343" y="-176"/>
			<point x="360" y="-92" type="curve" smooth="yes"/>
			<point x="440" y="310" type="line" smooth="yes"/>
			<point x="446" y="338"/>
			<point x="448" y="351"/>
			<point x="448" y="375" type="curve" smooth="yes"/>
			<point x="448" y="444"/>
			<point x="416" y="492"/>
			<point x="334" y="492" type="curve" smooth="yes"/>
			<point x="276" y="492"/>
			<point x="222" y="454"/>
			<point x="163" y="403" type="curve"/>
			<point x="159" y="403" type="line"/>
			<point x="170" y="480" type="line"/>
			<point x="138" y="480" type="line"/>
			<point x="41" y="0" type="line"/>
			<point x="79" y="0" type="line"/>
			<point x="151" y="355" type="line"/>
			<point x="224" y="426"/>
			<point x="281" y="457"/>
			<point x="324" y="457" type="curve" smooth="yes"/>
			<point x="385" y="457"/>
			<point x="410" y="427"/>
			<point x="410" y="367" type="curve" smooth="yes"/>
			<point x="410" y="348"/>
			<point x="408" y="334"/>
			<point x="402" y="305" type="curve" smooth="yes"/>
			<point x="320" y="-95" type="line" smooth="yes"/>
			<point x="306" y="-160"/>
			<point x="281" y="-197"/>
			<point x="240" y="-197" type="curve" smooth="yes"/>
			<point x="222" y="-197"/>
			<point x="206" y="-195"/>
			<point x="192" y="-187" type="curve"/>
			<point x="180" y="-214" type="line"/>
			<point x="197" y="-226"/>
			<point x="216" y="-230"/>
		</contour>
	</outline>
	<anchor name="aboveLC" x="323" y="504"/>
	<anchor name="belowLC" x="164" y="-220"/>
</glyph>
<glyph name="OE" format="2">
	<unicode hex="0152"/>
	<advance width="805"/>
	<outline>
		<contour>
			<point x="333" y="0" type="curve" smooth="yes"/>
			<point x="710" y="0" type="line"/>
			<point x="718" y="34" type="line"/>
			<point x="425" y="34" type="line"/>
			<point x="486" y="333" type="line"/>
			<point x="720" y="333" type="line"/>
			<point x="728" y="367" type="line"/>
			<point x="491" y="367" type="line"/>
			<point x="543" y="625" type="line"/>
			<point x="826" y="625" type="line"/>
			<point x="834" y="659" type="line"/>
			<point x="414" y="659" type="line" smooth="yes"/>
			<point x="184" y="659"/>
			<point x="62" y="483"/>
			<point x="62" y="256" type="curve" smooth="yes"/>
			<point x="62" y="102"/>
			<point x="151" y="0"/>
		</contour>
		<contour>
			<point x="335" y="34" type="line" smooth="yes"/>
			<point x="178" y="34"/>
			<point x="102" y="125"/>
			<point x="102" y="259" type="curve" smooth="yes"/>
			<point x="102" y="458"/>
			<point x="214" y="625"/>
			<point x="413" y="625" type="curve" smooth="yes"/>
			<point x="505" y="625" type="line"/>
			<point x="386" y="34" type="line"/>
		</contour>
	</outline>
	<anchor name="aboveUC" x="580" y="681"/>
</glyph>
<glyph name="oe" format="2">
	<unicode hex="0153"/>
	<advance width="821"/>
	<outline>
		<contour>
			<point x="205" y="-12" type="curve" smooth="yes"/>
			<point x="290" y="-12"/>
			<point x="372" y="47"/>
			<point x="417" y="141" type="curve"/>
			<point x="430" y="41"/>
			<point x="490" y="-12"/>
			<point x="576" y="-12" type="curve" smooth="yes"/>
			<point x="636" y="-12"/>
			<point x="683" y="12"/>
			<point x="719" y="40" type="curve"/>
			<point x="701" y="66" type="line"/>
			<point x="666" y="41"/>
			<point x="629" y="23"/>
			<point x="581" y="23" type="curve" smooth="yes"/>
			<point x="498" y="23"/>
			<point x="432" y="87"/>
			<point x="454" y="238" type="curve"/>
			<point x="772" y="238" type="line"/>
			<point x="778" y="258"/>
			<point x="786" y="288"/>
			<point x="786" y="322" type="curve" smooth="yes"/>
			<point x="786" y="421"/>
			<point x="745" y="492"/>
			<point x="641" y="492" type="curve" smooth="yes"/>
			<point x="569" y="492"/>
			<point x="493" y="439"/>
			<point x="451" y="349" type="curve"/>
			<point x="437" y="441"/>
			<point x="381" y="492"/>
			<point x="296" y="492" type="curve" smooth="yes"/>
			<point x="166" y="492"/>
			<point x="44" y="358"/>
			<point x="44" y="178" type="curve" smooth="yes"/>
			<point x="44" y="58"/>
			<point x="107" y="-12"/>
		</contour>
		<contour>
			<point x="210" y="24" type="curve" smooth="yes"/>
			<point x="130" y="24"/>
			<point x="85" y="80"/>
			<point x="85" y="184" type="curve" smooth="yes"/>
			<point x="85" y="331"/>
			<point x="191" y="456"/>
			<point x="293" y="456" type="curve" smooth="yes"/>
			<point x="372" y="456"/>
			<point x="417" y="401"/>
			<point x="417" y="297" type="curve" smooth="yes"/>
			<point x="417" y="149"/>
			<point x="312" y="24"/>
		</contour>
		<contour>
			<point x="461" y="271" type="line"/>
			<point x="485" y="380"/>
			<point x="560" y="457"/>
			<point x="637" y="457" type="curve" smooth="yes"/>
			<point x="719" y="457"/>
			<point x="747" y="393"/>
			<point x="747" y="328" type="curve" smooth="yes"/>
			<point x="747" y="307"/>
			<point x="745" y="290"/>
			<point x="742" y="271" type="curve"/>
		</contour>
	</outline>
	<anchor name="aboveLC" x="468" y="504"/>
	<anchor name="belowLC" x="389" y="-22"/>
</glyph>
<glyph name="Tbar" format="2">
	<unicode hex="0166"/>
	<advance width="496"/>
	<outline>
		<contour>
			<point x="122" y="331" type="line"/>
			<point x="402" y="331" type="line"/>
			<point x="409" y="364" type="line"/>
			<point x="214" y="364" type="line"/>
			<point x="129" y="362" type="line"/>
		</contour>
		<component base="T"/>
	</outline>
	<anchor name="aboveUC" x="332" y="681"/>
	<anchor name="belowLC" x="192" y="-22"/>
</glyph>
<glyph name="tbar" format="2">
	<unicode hex="0167"/>
	<advance width="299"/>
	<outline>
		<contour>
			<point x="24" y="236" type="line"/>
			<point x="270" y="236" type="line"/>
			<point x="277" y="269" type="line"/>
			<point x="109" y="269" type="line"/>
			<point x="30" y="265" type="line"/>
		</contour>
		<component base="t"/>
	</outline>
	<anchor name="aboveLC" x="206" y="637"/>
	<anchor name="belowLC" x="153" y="-22"/>
</glyph>
<glyph name="Uogonek" format="2">
	<unicode hex="0172"/>
	<advance width="599"/>
	<outline>
		<contour>
			<point x="214" y="-215" type="curve" smooth="yes"/>
			<point x="242" y="-215"/>
			<point x="266" y="-205"/>
			<point x="291" y="-183" type="curve"/>
			<point x="277" y="-161" type="line"/>
			<point x="256" y="-177"/>
			<point x="242" y="-182"/>
			<point x="223" y="-182" type="curve" smooth="yes"/>
			<point x="196" y="-182"/>
			<point x="176" y="-165"/>
			<point x="176" y="-137" type="curve" smooth="yes"/>
			<point x="176" y="-91"/>
			<point x="221" y="-31"/>
			<point x="315" y="-10" type="curve" smooth="yes"/>
			<point x="415" y="12"/>
			<point x="475" y="78"/>
			<point x="507" y="234" type="curve" smooth="yes"/>
			<point x="592" y="659" type="line"/>
			<point x="552" y="659" type="line"/>
			<point x="469" y="241" type="line" smooth="yes"/>
			<point x="436" y="73"/>
			<point x="361" y="23"/>
			<point x="276" y="23" type="curve" smooth="yes"/>
			<point x="173" y="23"/>
			<point x="121" y="84"/>
			<point x="121" y="191" type="curve" smooth="yes"/>
			<point x="121" y="215"/>
			<point x="124" y="241"/>
			<point x="131" y="272" type="curve" smooth="yes"/>
			<point x="209" y="659" type="line"/>
			<point x="169" y="659" type="line"/>
			<point x="90" y="267" type="line" smooth="yes"/>
			<point x="84" y="235"/>
			<point x="81" y="210"/>
			<point x="81" y="183" type="curve" smooth="yes"/>
			<point x="81" y="58"/>
			<point x="152" y="-12"/>
			<point x="272" y="-12" type="curve"/>
			<point x="258" y="0" type="line"/>
			<point x="199" y="-23"/>
			<point x="138" y="-82"/>
			<point x="138" y="-148" type="curve" smooth="yes"/>
			<point x="138" y="-192"/>
			<point x="171" y="-215"/>
		</contour>
	</outline>
	<anchor name="aboveUC" x="383" y="681"/>
</glyph>
<glyph name="uogonek" format="2">
	<unicode hex="0173"/>
	<advance width="508"/>
	<outline>
		<contour>
			<point x="296" y="-203" type="curve" smooth="yes"/>
			<point x="313" y="-203"/>
			<point x="335" y="-196"/>
			<point x="354" y="-185" type="curve"/>
			<point x="343" y="-160" type="line"/>
			<point x="329" y="-167"/>
			<point x="318" y="-171"/>
			<point x="302" y="-171" type="curve" smooth="yes"/>
			<point x="280" y="-171"/>
			<point x="264" y="-156"/>
			<point x="264" y="-131" type="curve" smooth="yes"/>
			<point x="264" y="-85"/>
			<point x="308" y="-38"/>
			<point x="378" y="0" type="curve"/>
			<point x="474" y="480" type="line"/>
			<point x="435" y="480" type="line"/>
			<point x="364" y="125" type="line"/>
			<point x="292" y="53"/>
			<point x="234" y="23"/>
			<point x="192" y="23" type="curve" smooth="yes"/>
			<point x="131" y="23"/>
			<point x="106" y="53"/>
			<point x="106" y="113" type="curve" smooth="yes"/>
			<point x="106" y="132"/>
			<point x="108" y="146"/>
			<point x="114" y="175" type="curve" smooth="yes"/>
			<point x="175" y="480" type="line"/>
			<point x="137" y="480" type="line"/>
			<point x="75" y="170" type="line" smooth="yes"/>
			<point x="69" y="142"/>
			<point x="67" y="129"/>
			<point x="67" y="105" type="curve" smooth="yes"/>
			<point x="67" y="36"/>
			<point x="99" y="-12"/>
			<point x="181" y="-12" type="curve" smooth="yes"/>
			<point x="240" y="-12"/>
			<point x="294" y="28"/>
			<point x="352" y="79" type="curve"/>
			<point x="356" y="79" type="line"/>
			<point x="347" y="9" type="line"/>
			<point x="284" y="-24"/>
			<point x="228" y="-83"/>
			<point x="228" y="-140" type="curve" smooth="yes"/>
			<point x="228" y="-182"/>
			<point x="257" y="-203"/>
		</contour>
	</outline>
	<anchor name="aboveLC" x="311" y="504"/>
</glyph>
<glyph name="longs" format="2">
	<unicode hex="017F"/>
	<advance width="254"/>
	<outline>
		<contour>
			<point x="47" y="0" type="line"/>
			<point x="85" y="0" type="line"/>
			<point x="204" y="592" type="line" smooth="yes"/>
			<point x="216" y="650"/>
			<point x="247" y="698"/>
			<point x="296" y="698" type="curve" smooth="yes"/>
			<point x="323" y="698"/>
			<point x="339" y="692"/>
			<point x="355" y="682" type="curve"/>
			<point x="369" y="710" type="line"/>
			<point x="352" y="722"/>
			<point x="329" y="732"/>
			<point x="296" y="732" type="curve" smooth="yes"/>
			<point x="235" y="732"/>
			<point x="185" y="687"/>
			<point x="166" y="591" type="curve" smooth="yes"/>
		</contour>
		<contour>
			<point x="74" y="446" type="line"/>
			<point x="157" y="446" type="line"/>
			<point x="164" y="480" type="line"/>
			<point x="145" y="480" type="line"/>
			<point x="79" y="476" type="line"/>
		</contour>
	</outline>
	<anchor name="aboveUC" x="284" y="729"/>
	<anchor name="belowLC" x="65" y="-22"/>
</glyph>
<glyph name="bstroke" format="2">
	<unicode hex="0180"/>
	<advance width="543"/>
	<outline>
		<contour>
			<point x="240" y="-12" type="curve" smooth="yes"/>
			<point x="371" y="-12"/>
			<point x="495" y="129"/>
			<point x="495" y="305" type="curve" smooth="yes"/>
			<point x="495" y="411"/>
			<point x="439" y="469"/>
			<point x="355" y="469" type="curve" smooth="yes"/>
			<point x="289" y="469"/>
			<point x="229" y="431"/>
			<point x="178" y="390" type="curve"/>
			<point x="176" y="390" type="line"/>
			<point x="196" y="487" type="line"/>
			<point x="243" y="719" type="line"/>
			<point x="202" y="719" type="line"/>
			<point x="58" y="0" type="line"/>
			<point x="93" y="0" type="line"/>
			<point x="112" y="66" type="line"/>
			<point x="115" y="66" type="line"/>
			<point x="141" y="19"/>
			<point x="183" y="-12"/>
		</contour>
		<contour>
			<point x="240" y="24" type="curve" smooth="yes"/>
			<point x="195" y="24"/>
			<point x="156" y="49"/>
			<point x="121" y="111" type="curve"/>
			<point x="168" y="344" type="line"/>
			<point x="223" y="395"/>
			<point x="293" y="433"/>
			<point x="346" y="433" type="curve" smooth="yes"/>
			<point x="412" y="433"/>
			<point x="453" y="387"/>
			<point x="453" y="297" type="curve" smooth="yes"/>
			<point x="453" y="161"/>
			<point x="353" y="24"/>
		</contour>
		<contour>
			<point x="84" y="577" type="line"/>
			<point x="398" y="577" type="line"/>
			<point x="405" y="612" type="line"/>
			<point x="181" y="612" type="line"/>
			<point x="89" y="608" type="line"/>
		</contour>
	</outline>
</glyph>
<glyph name="Bhook" format="2">
	<unicode hex="0181"/>
	<advance width="675"/>
	<outline>
		<contour>
			<point x="187" y="0" type="line"/>
			<point x="354" y="0" type="line" smooth="yes"/>
			<point x="511" y="0"/>
			<point x="620" y="65"/>
			<point x="620" y="207" type="curve" smooth="yes"/>
			<point x="620" y="289"/>
			<point x="560" y="332"/>
			<point x="495" y="347" type="curve"/>
			<point x="495" y="351" type="line"/>
			<point x="560" y="362"/>
			<point x="645" y="419"/>
			<point x="645" y="516" type="curve" smooth="yes"/>
			<point x="645" y="613"/>
			<point x="574" y="671"/>
			<point x="404" y="671" type="curve" smooth="yes"/>
			<point x="169" y="671"/>
			<point x="62" y="507"/>
			<point x="62" y="393" type="curve" smooth="yes"/>
			<point x="62" y="329"/>
			<point x="92" y="287"/>
			<point x="140" y="264" type="curve"/>
			<point x="161" y="295" type="line"/>
			<point x="121" y="318"/>
			<point x="103" y="345"/>
			<point x="103" y="397" type="curve" smooth="yes"/>
			<point x="103" y="488"/>
			<point x="195" y="635"/>
			<point x="392" y="635" type="curve" smooth="yes"/>
			<point x="408" y="635" type="line" smooth="yes"/>
			<point x="552" y="635"/>
			<point x="601" y="589"/>
			<point x="601" y="512" type="curve" smooth="yes"/>
			<point x="601" y="427"/>
			<point x="530" y="367"/>
			<point x="385" y="367" type="curve" smooth="yes"/>
			<point x="302" y="367" type="line"/>
			<point x="360" y="651" type="line"/>
			<point x="317" y="651" type="line"/>
		</contour>
		<contour>
			<point x="236" y="36" type="line"/>
			<point x="296" y="332" type="line"/>
			<point x="401" y="332" type="line" smooth="yes"/>
			<point x="513" y="332"/>
			<point x="577" y="285"/>
			<point x="577" y="204" type="curve" smooth="yes"/>
			<point x="577" y="82"/>
			<point x="482" y="36"/>
			<point x="339" y="36" type="curve" smooth="yes"/>
		</contour>
	</outline>
	<anchor name="aboveUC" x="458" y="681"/>
	<anchor name="belowLC" x="386" y="-22"/>
</glyph>
<glyph name="Oopen" format="2">
	<unicode hex="0186"/>
	<advance width="538"/>
	<outline>
		<contour>
			<point x="195" y="-12" type="curve" smooth="yes"/>
			<point x="379" y="-12"/>
			<point x="512" y="171"/>
			<point x="512" y="397" type="curve" smooth="yes"/>
			<point x="512" y="573"/>
			<point x="436" y="671"/>
			<point x="307" y="671" type="curve" smooth="yes"/>
			<point x="232" y="671"/>
			<point x="164" y="636"/>
			<point x="120" y="594" type="curve"/>
			<point x="141" y="565" type="line"/>
			<point x="186" y="606"/>
			<point x="245" y="634"/>
			<point x="303" y="634" type="curve" smooth="yes"/>
			<point x="411" y="634"/>
			<point x="469" y="544"/>
			<point x="469" y="393" type="curve" smooth="yes"/>
			<point x="469" y="194"/>
			<point x="352" y="25"/>
			<point x="198" y="25" type="curve" smooth="yes"/>
			<point x="128" y="25"/>
			<point x="79" y="52"/>
			<point x="41" y="106" type="curve"/>
			<point x="16" y="81" type="line"/>
			<point x="54" y="21"/>
			<point x="112" y="-12"/>
		</contour>
	</outline>
	<anchor name="aboveUC" x="320" y="681"/>
	<anchor name="baseLC" x="211" y="0"/>
	<anchor name="belowLC" x="193" y="-22"/>
	<anchor name="ogonekUC" x="212" y="0"/>
</glyph>
<glyph name="Dhook" format="1">
	<unicode hex="018A"/>
	<advance width="699"/>
	<outline>
		<contour>
			<point x="187" y="0" type="line"/>
			<point x="320" y="0" type="line" smooth="yes"/>
			<point x="549" y="0"/>
			<point x="671" y="175"/>
			<point x="671" y="413" type="curve" smooth="yes"/>
			<point x="671" y="566"/>
			<point x="593" y="671"/>
			<point x="404" y="671" type="curve" smooth="yes"/>
			<point x="169" y="671"/>
			<point x="62" y="507"/>
			<point x="62" y="393" type="curve" smooth="yes"/>
			<point x="62" y="329"/>
			<point x="92" y="287"/>
			<point x="139" y="264" type="curve"/>
			<point x="164" y="297" type="line"/>
			<point x="122" y="322"/>
			<point x="103" y="349"/>
			<point x="103" y="397" type="curve" smooth="yes"/>
			<point x="103" y="489"/>
			<point x="195" y="635"/>
			<point x="394" y="635" type="curve" smooth="yes"/>
			<point x="403" y="635" type="line" smooth="yes"/>
			<point x="564" y="635"/>
			<point x="628" y="543"/>
			<point x="628" y="410" type="curve" smooth="yes"/>
			<point x="628" y="201"/>
			<point x="517" y="36"/>
			<point x="318" y="36" type="curve" smooth="yes"/>
			<point x="236" y="36" type="line"/>
			<point x="360" y="651" type="line"/>
			<point x="317" y="651" type="line"/>
		</contour>
		<contour>
			<point name="aboveUC" x="464" y="679" type="move"/>
		</contour>
		<contour>
			<point name="belowLC" x="343" y="-20" type="move"/>
		</contour>
	</outline>
</glyph>
<glyph name="Schwa" format="2">
	<unicode hex="018F"/>
	<advance width="615"/>
	<outline>
		<contour>
			<point x="264" y="-12" type="curve" smooth="yes"/>
			<point x="444" y="-12"/>
			<point x="590" y="162"/>
			<point x="590" y="397" type="curve" smooth="yes"/>
			<point x="590" y="560"/>
			<point x="525" y="671"/>
			<point x="382" y="671" type="curve" smooth="yes"/>
			<point x="310" y="671"/>
			<point x="241" y="637"/>
			<point x="194" y="593" type="curve"/>
			<point x="216" y="567" type="line"/>
			<point x="259" y="607"/>
			<point x="318" y="637"/>
			<point x="379" y="637" type="curve" smooth="yes"/>
			<point x="505" y="637"/>
			<point x="550" y="538"/>
			<point x="550" y="391" type="curve" smooth="yes"/>
			<point x="550" y="182"/>
			<point x="426" y="22"/>
			<point x="267" y="22" type="curve" smooth="yes"/>
			<point x="147" y="22"/>
			<point x="80" y="124"/>
			<point x="103" y="293" type="curve"/>
			<point x="549" y="293" type="line"/>
			<point x="556" y="326" type="line"/>
			<point x="73" y="326" type="line"/>
			<point x="66" y="293"/>
			<point x="62" y="266"/>
			<point x="62" y="227" type="curve" smooth="yes"/>
			<point x="62" y="90"/>
			<point x="134" y="-12"/>
		</contour>
	</outline>
	<anchor name="aboveUC" x="388" y="681"/>
	<anchor name="belowLC" x="275" y="-22"/>
</glyph>
<glyph name="Eopen" format="2">
	<unicode hex="0190"/>
	<advance width="526"/>
	<outline>
		<contour>
			<point x="216" y="-12" type="curve" smooth="yes"/>
			<point x="313" y="-12"/>
			<point x="384" y="23"/>
			<point x="455" y="86" type="curve"/>
			<point x="435" y="111" type="line"/>
			<point x="374" y="58"/>
			<point x="305" y="25"/>
			<point x="220" y="25" type="curve" smooth="yes"/>
			<point x="126" y="25"/>
			<point x="67" y="71"/>
			<point x="67" y="151" type="curve" smooth="yes"/>
			<point x="67" y="249"/>
			<point x="179" y="332"/>
			<point x="314" y="332" type="curve" smooth="yes"/>
			<point x="375" y="332" type="line"/>
			<point x="381" y="367" type="line"/>
			<point x="338" y="367" type="line" smooth="yes"/>
			<point x="217" y="367"/>
			<point x="172" y="421"/>
			<point x="172" y="488" type="curve" smooth="yes"/>
			<point x="172" y="574"/>
			<point x="250" y="634"/>
			<point x="342" y="634" type="curve" smooth="yes"/>
			<point x="411" y="634"/>
			<point x="459" y="606"/>
			<point x="485" y="557" type="curve"/>
			<point x="513" y="575" type="line"/>
			<point x="490" y="631"/>
			<point x="425" y="671"/>
			<point x="344" y="671" type="curve" smooth="yes"/>
			<point x="227" y="671"/>
			<point x="129" y="592"/>
			<point x="129" y="488" type="curve" smooth="yes"/>
			<point x="129" y="417"/>
			<point x="178" y="370"/>
			<point x="225" y="355" type="curve"/>
			<point x="225" y="351" type="line"/>
			<point x="134" y="329"/>
			<point x="23" y="258"/>
			<point x="23" y="142" type="curve" smooth="yes"/>
			<point x="23" y="47"/>
			<point x="97" y="-12"/>
		</contour>
	</outline>
	<anchor name="aboveUC" x="353" y="681"/>
	<anchor name="baseLC" x="215" y="0"/>
	<anchor name="belowLC" x="206" y="-22"/>
	<anchor name="ogonekUC" x="215" y="0"/>
</glyph>
<glyph name="florin" format="2">
	<unicode hex="0192"/>
	<advance width="254"/>
	<outline>
		<contour>
			<point x="-52" y="-230" type="curve" smooth="yes"/>
			<point x="15" y="-230"/>
			<point x="50" y="-176"/>
			<point x="67" y="-92" type="curve" smooth="yes"/>
			<point x="174" y="446" type="line"/>
			<point x="280" y="446" type="line"/>
			<point x="287" y="480" type="line"/>
			<point x="181" y="480" type="line"/>
			<point x="204" y="592" type="line" smooth="yes"/>
			<point x="216" y="650"/>
			<point x="247" y="698"/>
			<point x="295" y="698" type="curve" smooth="yes"/>
			<point x="323" y="698"/>
			<point x="339" y="692"/>
			<point x="355" y="683" type="curve"/>
			<point x="369" y="710" type="line"/>
			<point x="352" y="722"/>
			<point x="329" y="732"/>
			<point x="296" y="732" type="curve" smooth="yes"/>
			<point x="235" y="732"/>
			<point x="186" y="686"/>
			<point x="166" y="591" type="curve" smooth="yes"/>
			<point x="143" y="480" type="line"/>
			<point x="79" y="476" type="line"/>
			<point x="74" y="446" type="line"/>
			<point x="136" y="446" type="line"/>
			<point x="27" y="-95" type="line" smooth="yes"/>
			<point x="13" y="-156"/>
			<point x="-12" y="-197"/>
			<point x="-53" y="-197" type="curve" smooth="yes"/>
			<point x="-71" y="-197"/>
			<point x="-87" y="-195"/>
			<point x="-101" y="-187" type="curve"/>
			<point x="-113" y="-216" type="line"/>
			<point x="-96" y="-226"/>
			<point x="-77" y="-230"/>
		</contour>
	</outline>
	<anchor name="aboveUC" x="284" y="729"/>
	<anchor name="belowLC" x="-36" y="-226"/>
</glyph>
<glyph name="Ghook" format="2">
	<unicode hex="0193"/>
	<advance width="575"/>
	<outline>
		<contour>
			<point x="519" y="583" type="curve"/>
			<point x="557" y="577" type="line"/>
			<point x="541" y="619"/>
			<point x="539" y="649"/>
			<point x="539" y="680" type="curve" smooth="yes"/>
			<point x="539" y="726"/>
			<point x="561" y="757"/>
			<point x="598" y="757" type="curve" smooth="yes"/>
			<point x="617" y="757"/>
			<point x="625" y="753"/>
			<point x="637" y="745" type="curve"/>
			<point x="653" y="774" type="line"/>
			<point x="638" y="785"/>
			<point x="618" y="793"/>
			<point x="598" y="793" type="curve" smooth="yes"/>
			<point x="536" y="793"/>
			<point x="503" y="748"/>
			<point x="503" y="690" type="curve" smooth="yes"/>
			<point x="503" y="659"/>
			<point x="507" y="627"/>
		</contour>
		<component base="G"/>
	</outline>
	<anchor name="aboveUC" x="346" y="681"/>
	<anchor name="belowLC" x="273" y="-22"/>
</glyph>
<glyph name="Iotalatin" format="2">
	<unicode hex="0196"/>
	<advance width="222"/>
	<outline>
		<contour>
			<point x="93" y="-8" type="curve" smooth="yes"/>
			<point x="107" y="-8"/>
			<point x="115" y="-6"/>
			<point x="127" y="-1" type="curve"/>
			<point x="121" y="31" type="line"/>
			<point x="113" y="29"/>
			<point x="110" y="29"/>
			<point x="106" y="29" type="curve" smooth="yes"/>
			<point x="96" y="29"/>
			<point x="92" y="35"/>
			<point x="92" y="43" type="curve" smooth="yes"/>
			<point x="92" y="48"/>
			<point x="92" y="54"/>
			<point x="94" y="64" type="curve" smooth="yes"/>
			<point x="213" y="659" type="line"/>
			<point x="170" y="659" type="line"/>
			<point x="51" y="65" type="line" smooth="yes"/>
			<point x="49" y="53"/>
			<point x="47" y="42"/>
			<point x="47" y="35" type="curve" smooth="yes"/>
			<point x="47" y="7"/>
			<point x="66" y="-8"/>
		</contour>
	</outline>
	<anchor name="aboveUC" x="195" y="681"/>
	<anchor name="belowLC" x="77" y="-22"/>
</glyph>
<glyph name="Istroke" format="2">
	<unicode hex="0197"/>
	<advance width="254"/>
	<outline>
		<contour>
			<point x="46" y="332" type="line"/>
			<point x="234" y="332" type="line"/>
			<point x="242" y="367" type="line"/>
			<point x="129" y="367" type="line"/>
			<point x="54" y="363" type="line"/>
		</contour>
		<component base="I" xOffset="14"/>
	</outline>
	<anchor name="aboveUC" x="210" y="681"/>
	<anchor name="belowLC" x="71" y="-22"/>
</glyph>
<glyph name="lbar" format="2">
	<unicode hex="019A"/>
	<advance width="276"/>
	<outline>
		<contour>
			<point x="39" y="380" type="line"/>
			<point x="280" y="380" type="line"/>
			<point x="288" y="414" type="line"/>
			<point x="147" y="414" type="line"/>
			<point x="46" y="409" type="line"/>
		</contour>
		<component base="l" xOffset="22"/>
	</outline>
	<anchor name="aboveUC" x="234" y="731"/>
	<anchor name="belowLC" x="106" y="-22"/>
</glyph>
<glyph name="lambdastroke" format="2">
	<unicode hex="019B"/>
	<advance width="416"/>
	<outline>
		<contour>
			<point x="102" y="498" type="line"/>
			<point x="422" y="634" type="line"/>
			<point x="412" y="662" type="line"/>
			<point x="92" y="526" type="line"/>
		</contour>
		<component base="lambda.latin"/>
	</outline>
</glyph>
<glyph name="nlong" format="2">
	<unicode hex="019E"/>
	<advance width="510"/>
	<outline>
		<contour>
			<point x="296" y="-217" type="line"/>
			<point x="337" y="-217" type="line"/>
			<point x="442" y="310" type="line" smooth="yes"/>
			<point x="448" y="338"/>
			<point x="450" y="351"/>
			<point x="450" y="375" type="curve" smooth="yes"/>
			<point x="450" y="445"/>
			<point x="418" y="492"/>
			<point x="336" y="492" type="curve" smooth="yes"/>
			<point x="277" y="492"/>
			<point x="220" y="454"/>
			<point x="165" y="404" type="curve"/>
			<point x="161" y="404" type="line"/>
			<point x="171" y="480" type="line"/>
			<point x="137" y="480" type="line"/>
			<point x="40" y="0" type="line"/>
			<point x="82" y="0" type="line"/>
			<point x="153" y="354" type="line"/>
			<point x="225" y="425"/>
			<point x="281" y="455"/>
			<point x="323" y="455" type="curve" smooth="yes"/>
			<point x="384" y="455"/>
			<point x="409" y="425"/>
			<point x="409" y="366" type="curve" smooth="yes"/>
			<point x="409" y="347"/>
			<point x="406" y="333"/>
			<point x="401" y="304" type="curve" smooth="yes"/>
		</contour>
	</outline>
	<anchor name="aboveLC" x="322" y="504"/>
	<anchor name="belowLC" x="171" y="-218"/>
</glyph>
<glyph name="Ohorn" format="2">
	<unicode hex="01A0"/>
	<advance width="617"/>
	<outline>
		<contour>
			<point x="507" y="617" type="line"/>
			<point x="573" y="628"/>
			<point x="633" y="669"/>
			<point x="633" y="747" type="curve" smooth="yes"/>
			<point x="633" y="762"/>
			<point x="631" y="775"/>
			<point x="624" y="793" type="curve"/>
			<point x="587" y="778" type="line"/>
			<point x="593" y="764"/>
			<point x="594" y="752"/>
			<point x="594" y="740" type="curve" smooth="yes"/>
			<point x="594" y="683"/>
			<point x="549" y="646"/>
			<point x="477" y="643" type="curve"/>
		</contour>
		<component base="O"/>
	</outline>
	<anchor name="aboveUC" x="406" y="681"/>
	<anchor name="belowLC" x="272" y="-22"/>
</glyph>
<glyph name="ohorn" format="2">
	<unicode hex="01A1"/>
	<advance width="504"/>
	<outline>
		<contour>
			<point x="402" y="441" type="line"/>
			<point x="458" y="452"/>
			<point x="532" y="488"/>
			<point x="532" y="571" type="curve" smooth="yes"/>
			<point x="532" y="588"/>
			<point x="529" y="607"/>
			<point x="523" y="625" type="curve"/>
			<point x="488" y="609" type="line"/>
			<point x="493" y="594"/>
			<point x="495" y="579"/>
			<point x="494" y="567" type="curve" smooth="yes"/>
			<point x="491" y="504"/>
			<point x="444" y="471"/>
			<point x="373" y="466" type="curve"/>
		</contour>
		<component base="o"/>
	</outline>
	<anchor name="aboveLC" x="317" y="504"/>
	<anchor name="belowLC" x="189" y="-22"/>
</glyph>
<glyph name="Uhorn" format="2">
	<unicode hex="01AF"/>
	<advance width="606"/>
	<outline>
		<contour>
			<point x="585" y="633" type="line"/>
			<point x="652" y="644"/>
			<point x="713" y="684"/>
			<point x="713" y="761" type="curve" smooth="yes"/>
			<point x="713" y="776"/>
			<point x="711" y="790"/>
			<point x="704" y="808" type="curve"/>
			<point x="668" y="793" type="line"/>
			<point x="674" y="779"/>
			<point x="674" y="767"/>
			<point x="674" y="755" type="curve" smooth="yes"/>
			<point x="674" y="698"/>
			<point x="629" y="662"/>
			<point x="559" y="659" type="curve"/>
		</contour>
		<component base="U"/>
	</outline>
	<anchor name="aboveUC" x="383" y="681"/>
	<anchor name="belowLC" x="244" y="-22"/>
</glyph>
<glyph name="uhorn" format="2">
	<unicode hex="01B0"/>
	<advance width="528"/>
	<outline>
		<contour>
			<point x="467" y="455" type="line"/>
			<point x="507" y="464"/>
			<point x="580" y="502"/>
			<point x="580" y="586" type="curve" smooth="yes"/>
			<point x="580" y="602"/>
			<point x="578" y="621"/>
			<point x="571" y="640" type="curve"/>
			<point x="536" y="624" type="line"/>
			<point x="541" y="609"/>
			<point x="544" y="594"/>
			<point x="543" y="582" type="curve" smooth="yes"/>
			<point x="539" y="518"/>
			<point x="492" y="484"/>
			<point x="441" y="480" type="curve"/>
		</contour>
		<component base="u"/>
	</outline>
	<anchor name="aboveLC" x="311" y="504"/>
	<anchor name="belowLC" x="222" y="-23"/>
</glyph>
<glyph name="wynn" format="2">
	<unicode hex="01BF"/>
	<advance width="513"/>
	<outline>
		<contour>
			<point x="-3" y="-217" type="line"/>
			<point x="38" y="-217" type="line"/>
			<point x="60" y="-100" type="line"/>
			<point x="77" y="-12" type="line"/>
			<point x="311" y="52"/>
			<point x="480" y="213"/>
			<point x="480" y="373" type="curve" smooth="yes"/>
			<point x="480" y="447"/>
			<point x="435" y="492"/>
			<point x="354" y="492" type="curve" smooth="yes"/>
			<point x="290" y="492"/>
			<point x="231" y="466"/>
			<point x="161" y="395" type="curve"/>
			<point x="159" y="395" type="line"/>
			<point x="171" y="480" type="line"/>
			<point x="137" y="480" type="line"/>
		</contour>
		<contour>
			<point x="86" y="26" type="curve"/>
			<point x="151" y="347" type="line"/>
			<point x="236" y="439"/>
			<point x="290" y="456"/>
			<point x="346" y="456" type="curve" smooth="yes"/>
			<point x="406" y="456"/>
			<point x="438" y="416"/>
			<point x="438" y="362" type="curve" smooth="yes"/>
			<point x="438" y="230"/>
			<point x="288" y="84"/>
		</contour>
	</outline>
	<anchor name="aboveLC" x="323" y="504"/>
	<anchor name="belowLC" x="24" y="-218"/>
</glyph>
<glyph name="clickalveolar" format="2">
	<unicode hex="01C2"/>
	<advance width="316"/>
	<outline>
		<contour>
			<point x="30" y="265" type="line"/>
			<point x="290" y="265" type="line"/>
			<point x="298" y="299" type="line"/>
			<point x="115" y="299" type="line"/>
			<point x="36" y="294" type="line"/>
		</contour>
		<contour>
			<point x="61" y="421" type="line"/>
			<point x="321" y="421" type="line"/>
			<point x="328" y="454" type="line"/>
			<point x="146" y="454" type="line"/>
			<point x="66" y="450" type="line"/>
		</contour>
		<component base="l.a" xOffset="50"/>
	</outline>
	<anchor name="aboveUC" x="252" y="729"/>
	<anchor name="belowLC" x="85" y="-22"/>
</glyph>
<glyph name="clickretroflex" format="1">
	<unicode hex="01C3"/>
	<advance width="202"/>
	<outline>
		<contour>
			<point x="77" y="179" type="line"/>
			<point x="109" y="179" type="line"/>
			<point x="196" y="600" type="line"/>
			<point x="220" y="719" type="line"/>
			<point x="178" y="719" type="line"/>
			<point x="156" y="600" type="line"/>
		</contour>
		<contour>
			<point x="58" y="-12" type="curve" smooth="yes"/>
			<point x="84" y="-12"/>
			<point x="105" y="13"/>
			<point x="105" y="39" type="curve" smooth="yes"/>
			<point x="105" y="60"/>
			<point x="94" y="76"/>
			<point x="73" y="76" type="curve" smooth="yes"/>
			<point x="47" y="76"/>
			<point x="24" y="49"/>
			<point x="24" y="23" type="curve" smooth="yes"/>
			<point x="24" y="4"/>
			<point x="37" y="-12"/>
		</contour>
	</outline>
</glyph>
<glyph name="gstroke" format="2">
	<unicode hex="01E5"/>
	<advance width="525"/>
	<outline>
		<contour>
			<point x="262" y="239" type="line"/>
			<point x="521" y="239" type="line"/>
			<point x="529" y="273" type="line"/>
			<point x="397" y="273" type="line"/>
			<point x="269" y="268" type="line"/>
		</contour>
		<component base="g"/>
	</outline>
	<anchor name="aboveLC" x="310" y="504"/>
	<anchor name="belowLC" x="173" y="-220"/>
</glyph>
<glyph name="Oogonek" format="2">
	<unicode hex="01EA"/>
	<advance width="617"/>
	<outline>
		<contour>
			<point x="248" y="-204" type="curve" smooth="yes"/>
			<point x="265" y="-204"/>
			<point x="287" y="-197"/>
			<point x="306" y="-186" type="curve"/>
			<point x="295" y="-160" type="line"/>
			<point x="281" y="-168"/>
			<point x="269" y="-172"/>
			<point x="254" y="-172" type="curve" smooth="yes"/>
			<point x="232" y="-172"/>
			<point x="216" y="-156"/>
			<point x="216" y="-131" type="curve" smooth="yes"/>
			<point x="216" y="-90"/>
			<point x="252" y="-29"/>
			<point x="336" y="-6" type="curve" smooth="yes"/>
			<point x="496" y="39"/>
			<point x="589" y="231"/>
			<point x="589" y="397" type="curve" smooth="yes"/>
			<point x="589" y="558"/>
			<point x="518" y="671"/>
			<point x="374" y="671" type="curve" smooth="yes"/>
			<point x="178" y="671"/>
			<point x="62" y="443"/>
			<point x="62" y="262" type="curve" smooth="yes"/>
			<point x="62" y="101"/>
			<point x="132" y="-12"/>
			<point x="277" y="-12" type="curve"/>
			<point x="286" y="4" type="line"/>
			<point x="225" y="-29"/>
			<point x="179" y="-87"/>
			<point x="179" y="-140" type="curve" smooth="yes"/>
			<point x="179" y="-183"/>
			<point x="208" y="-204"/>
		</contour>
		<contour>
			<point x="279" y="23" type="curve" smooth="yes"/>
			<point x="155" y="23"/>
			<point x="102" y="123"/>
			<point x="102" y="267" type="curve" smooth="yes"/>
			<point x="102" y="422"/>
			<point x="199" y="637"/>
			<point x="371" y="637" type="curve" smooth="yes"/>
			<point x="496" y="637"/>
			<point x="548" y="536"/>
			<point x="548" y="393" type="curve" smooth="yes"/>
			<point x="548" y="237"/>
			<point x="451" y="23"/>
		</contour>
	</outline>
	<anchor name="aboveUC" x="392" y="681"/>
</glyph>
<glyph name="oogonek" format="2">
	<unicode hex="01EB"/>
	<advance width="503"/>
	<outline>
		<contour>
			<point x="165" y="-213" type="curve" smooth="yes"/>
			<point x="193" y="-213"/>
			<point x="217" y="-202"/>
			<point x="241" y="-180" type="curve"/>
			<point x="228" y="-160" type="line"/>
			<point x="207" y="-175"/>
			<point x="194" y="-181"/>
			<point x="174" y="-181" type="curve" smooth="yes"/>
			<point x="149" y="-181"/>
			<point x="131" y="-163"/>
			<point x="131" y="-134" type="curve" smooth="yes"/>
			<point x="131" y="-91"/>
			<point x="160" y="-40"/>
			<point x="258" y="-6" type="curve" smooth="yes"/>
			<point x="384" y="38"/>
			<point x="458" y="160"/>
			<point x="458" y="302" type="curve" smooth="yes"/>
			<point x="458" y="423"/>
			<point x="394" y="492"/>
			<point x="297" y="492" type="curve" smooth="yes"/>
			<point x="166" y="492"/>
			<point x="44" y="357"/>
			<point x="44" y="178" type="curve" smooth="yes"/>
			<point x="44" y="57"/>
			<point x="108" y="-12"/>
			<point x="206" y="-12" type="curve"/>
			<point x="216" y="2" type="line"/>
			<point x="144" y="-26"/>
			<point x="93" y="-87"/>
			<point x="93" y="-143" type="curve" smooth="yes"/>
			<point x="93" y="-190"/>
			<point x="124" y="-213"/>
		</contour>
		<contour>
			<point x="209" y="22" type="curve" smooth="yes"/>
			<point x="129" y="22"/>
			<point x="83" y="78"/>
			<point x="83" y="183" type="curve" smooth="yes"/>
			<point x="83" y="332"/>
			<point x="190" y="458"/>
			<point x="294" y="458" type="curve" smooth="yes"/>
			<point x="374" y="458"/>
			<point x="420" y="402"/>
			<point x="420" y="296" type="curve" smooth="yes"/>
			<point x="420" y="148"/>
			<point x="313" y="22"/>
		</contour>
	</outline>
	<anchor name="aboveLC" x="318" y="504"/>
</glyph>
<glyph name="Wynn" format="2">
	<unicode hex="01F7"/>
	<advance width="531"/>
	<outline>
		<contour>
			<point x="10" y="-144" type="line"/>
			<point x="53" y="-144" type="line"/>
			<point x="82" y="-2" type="line"/>
			<point x="421" y="179"/>
			<point x="539" y="375"/>
			<point x="539" y="534" type="curve" smooth="yes"/>
			<point x="539" y="632"/>
			<point x="482" y="671"/>
			<point x="403" y="671" type="curve" smooth="yes"/>
			<point x="329" y="671"/>
			<point x="257" y="625"/>
			<point x="195" y="573" type="curve"/>
			<point x="212" y="659" type="line"/>
			<point x="170" y="659" type="line"/>
		</contour>
		<contour>
			<point x="90" y="43" type="curve"/>
			<point x="186" y="523" type="line"/>
			<point x="259" y="593"/>
			<point x="346" y="634"/>
			<point x="394" y="634" type="curve" smooth="yes"/>
			<point x="449" y="634"/>
			<point x="496" y="605"/>
			<point x="496" y="524" type="curve" smooth="yes"/>
			<point x="496" y="392"/>
			<point x="393" y="212"/>
		</contour>
	</outline>
	<anchor name="aboveUC" x="374" y="681"/>
	<anchor name="belowLC" x="44" y="-146"/>
</glyph>
<glyph name="Yogh" format="2">
	<unicode hex="021C"/>
	<advance width="469"/>
	<outline>
		<contour>
			<point x="15" y="-154" type="line"/>
			<point x="300" y="-52"/>
			<point x="407" y="87"/>
			<point x="407" y="211" type="curve" smooth="yes"/>
			<point x="407" y="292"/>
			<point x="345" y="338"/>
			<point x="250" y="326" type="curve"/>
			<point x="374" y="400"/>
			<point x="439" y="468"/>
			<point x="439" y="561" type="curve" smooth="yes"/>
			<point x="439" y="630"/>
			<point x="393" y="671"/>
			<point x="316" y="671" type="curve" smooth="yes"/>
			<point x="222" y="671"/>
			<point x="158" y="632"/>
			<point x="78" y="562" type="curve"/>
			<point x="101" y="536" type="line"/>
			<point x="177" y="602"/>
			<point x="232" y="634"/>
			<point x="309" y="634" type="curve" smooth="yes"/>
			<point x="362" y="634"/>
			<point x="396" y="602"/>
			<point x="396" y="547" type="curve" smooth="yes"/>
			<point x="396" y="475"/>
			<point x="353" y="412"/>
			<point x="122" y="290" type="curve"/>
			<point x="137" y="261" type="line"/>
			<point x="183" y="288"/>
			<point x="220" y="297"/>
			<point x="257" y="297" type="curve" smooth="yes"/>
			<point x="324" y="297"/>
			<point x="364" y="264"/>
			<point x="364" y="203" type="curve" smooth="yes"/>
			<point x="364" y="112"/>
			<point x="280" y="-20"/>
			<point x="2" y="-121" type="curve"/>
		</contour>
	</outline>
	<anchor name="aboveUC" x="303" y="681"/>
	<anchor name="belowLC" x="174" y="-146"/>
</glyph>
<glyph name="yogh" format="2">
	<unicode hex="021D"/>
	<advance width="403"/>
	<outline>
		<contour>
			<point x="-6" y="-229" type="line"/>
			<point x="239" y="-127"/>
			<point x="336" y="-26"/>
			<point x="336" y="86" type="curve" smooth="yes"/>
			<point x="336" y="157"/>
			<point x="290" y="198"/>
			<point x="198" y="192" type="curve"/>
			<point x="312" y="260"/>
			<point x="362" y="318"/>
			<point x="362" y="396" type="curve" smooth="yes"/>
			<point x="362" y="455"/>
			<point x="321" y="492"/>
			<point x="253" y="492" type="curve" smooth="yes"/>
			<point x="179" y="492"/>
			<point x="121" y="456"/>
			<point x="48" y="390" type="curve"/>
			<point x="67" y="367" type="line"/>
			<point x="135" y="427"/>
			<point x="187" y="456"/>
			<point x="246" y="456" type="curve" smooth="yes"/>
			<point x="292" y="456"/>
			<point x="320" y="429"/>
			<point x="320" y="386" type="curve" smooth="yes"/>
			<point x="320" y="324"/>
			<point x="282" y="264"/>
			<point x="84" y="162" type="curve"/>
			<point x="98" y="134" type="line"/>
			<point x="139" y="155"/>
			<point x="172" y="162"/>
			<point x="201" y="162" type="curve" smooth="yes"/>
			<point x="258" y="162"/>
			<point x="293" y="131"/>
			<point x="293" y="79" type="curve" smooth="yes"/>
			<point x="293" y="-9"/>
			<point x="211" y="-100"/>
			<point x="-17" y="-196" type="curve"/>
		</contour>
	</outline>
	<anchor name="aboveLC" x="233" y="504"/>
	<anchor name="belowLC" x="134" y="-218"/>
</glyph>
<glyph name="OU" format="2">
	<unicode hex="0222"/>
	<advance width="647"/>
	<outline>
		<contour>
			<point x="279" y="-12" type="curve" smooth="yes"/>
			<point x="473" y="-12"/>
			<point x="595" y="82"/>
			<point x="595" y="213" type="curve" smooth="yes"/>
			<point x="595" y="317"/>
			<point x="529" y="374"/>
			<point x="427" y="395" type="curve"/>
			<point x="425" y="375" type="line"/>
			<point x="521" y="398"/>
			<point x="573" y="449"/>
			<point x="603" y="585" type="curve" smooth="yes"/>
			<point x="619" y="659" type="line"/>
			<point x="576" y="659" type="line"/>
			<point x="562" y="592" type="line" smooth="yes"/>
			<point x="529" y="436"/>
			<point x="461" y="404"/>
			<point x="377" y="404" type="curve" smooth="yes"/>
			<point x="274" y="404"/>
			<point x="219" y="443"/>
			<point x="219" y="543" type="curve" smooth="yes"/>
			<point x="219" y="566"/>
			<point x="220" y="591"/>
			<point x="228" y="623" type="curve" smooth="yes"/>
			<point x="237" y="659" type="line"/>
			<point x="194" y="659" type="line"/>
			<point x="184" y="618" type="line" smooth="yes"/>
			<point x="176" y="585"/>
			<point x="176" y="561"/>
			<point x="176" y="535" type="curve" smooth="yes"/>
			<point x="176" y="451"/>
			<point x="221" y="396"/>
			<point x="307" y="378" type="curve"/>
			<point x="310" y="397" type="line"/>
			<point x="187" y="383"/>
			<point x="48" y="309"/>
			<point x="48" y="163" type="curve" smooth="yes"/>
			<point x="48" y="48"/>
			<point x="145" y="-12"/>
		</contour>
		<contour>
			<point x="283" y="25" type="curve" smooth="yes"/>
			<point x="175" y="25"/>
			<point x="91" y="74"/>
			<point x="91" y="167" type="curve" smooth="yes"/>
			<point x="91" y="285"/>
			<point x="204" y="367"/>
			<point x="364" y="367" type="curve" smooth="yes"/>
			<point x="469" y="367"/>
			<point x="551" y="314"/>
			<point x="551" y="210" type="curve" smooth="yes"/>
			<point x="551" y="104"/>
			<point x="440" y="25"/>
		</contour>
	</outline>
	<anchor name="aboveUC" x="401" y="681"/>
	<anchor name="belowLC" x="273" y="-22"/>
</glyph>
<glyph name="ou" format="2">
	<unicode hex="0223"/>
	<advance width="524"/>
	<outline>
		<contour>
			<point x="230" y="25" type="curve" smooth="yes"/>
			<point x="145" y="25"/>
			<point x="86" y="85"/>
			<point x="86" y="166" type="curve" smooth="yes"/>
			<point x="86" y="260"/>
			<point x="154" y="349"/>
			<point x="261" y="392" type="curve"/>
			<point x="366" y="342"/>
			<point x="418" y="290"/>
			<point x="418" y="199" type="curve" smooth="yes"/>
			<point x="418" y="119"/>
			<point x="347" y="25"/>
		</contour>
		<contour>
			<point x="226" y="-12" type="curve" smooth="yes"/>
			<point x="373" y="-12"/>
			<point x="461" y="99"/>
			<point x="461" y="204" type="curve" smooth="yes"/>
			<point x="461" y="291"/>
			<point x="414" y="344"/>
			<point x="368" y="379" type="curve"/>
			<point x="368" y="383" type="line"/>
			<point x="467" y="442"/>
			<point x="517" y="535"/>
			<point x="517" y="635" type="curve" smooth="yes"/>
			<point x="517" y="668"/>
			<point x="512" y="692"/>
			<point x="498" y="722" type="curve"/>
			<point x="462" y="707" type="line"/>
			<point x="471" y="684"/>
			<point x="477" y="658"/>
			<point x="477" y="634" type="curve" smooth="yes"/>
			<point x="477" y="547"/>
			<point x="436" y="458"/>
			<point x="336" y="398" type="curve"/>
			<point x="227" y="454"/>
			<point x="196" y="503"/>
			<point x="196" y="574" type="curve" smooth="yes"/>
			<point x="196" y="624"/>
			<point x="218" y="672"/>
			<point x="255" y="715" type="curve"/>
			<point x="223" y="731" type="line"/>
			<point x="186" y="687"/>
			<point x="154" y="633"/>
			<point x="154" y="568" type="curve" smooth="yes"/>
			<point x="154" y="496"/>
			<point x="188" y="455"/>
			<point x="233" y="415" type="curve"/>
			<point x="233" y="411" type="line"/>
			<point x="140" y="371"/>
			<point x="45" y="288"/>
			<point x="45" y="157" type="curve" smooth="yes"/>
			<point x="45" y="61"/>
			<point x="116" y="-12"/>
		</contour>
	</outline>
	<anchor name="aboveUC" x="358" y="731"/>
	<anchor name="belowLC" x="218" y="-22"/>
</glyph>
<glyph name="dotlessj" format="1">
	<unicode hex="0237"/>
	<advance width="220"/>
	<outline>
		<contour>
			<point x="-57" y="-229" type="curve" smooth="yes"/>
			<point x="9" y="-229"/>
			<point x="45" y="-176"/>
			<point x="64" y="-88" type="curve" smooth="yes"/>
			<point x="178" y="480" type="line"/>
			<point x="137" y="480" type="line"/>
			<point x="21" y="-93" type="line" smooth="yes"/>
			<point x="7" y="-154"/>
			<point x="-17" y="-193"/>
			<point x="-57" y="-193" type="curve" smooth="yes"/>
			<point x="-81" y="-193"/>
			<point x="-92" y="-188"/>
			<point x="-104" y="-180" type="curve"/>
			<point x="-120" y="-213" type="line"/>
			<point x="-103" y="-222"/>
			<point x="-86" y="-229"/>
		</contour>
		<contour>
			<point name="aboveLC" x="164" y="504" type="move"/>
		</contour>
	</outline>
</glyph>
<glyph name="Astroke" format="2">
	<unicode hex="023A"/>
	<advance width="488"/>
	<outline>
		<contour>
			<point x="94" y="-41" type="line"/>
			<point x="457" y="689" type="line"/>
			<point x="432" y="702" type="line"/>
			<point x="69" y="-28" type="line"/>
		</contour>
		<component base="A"/>
	</outline>
	<anchor name="aboveUC" x="334" y="681"/>
	<anchor name="belowLC" x="212" y="-22"/>
</glyph>
<glyph name="Cstroke" format="2">
	<unicode hex="023B"/>
	<advance width="540"/>
	<outline>
		<contour>
			<point x="117" y="-41" type="line"/>
			<point x="511" y="689" type="line"/>
			<point x="486" y="702" type="line"/>
			<point x="92" y="-28" type="line"/>
		</contour>
		<component base="C"/>
	</outline>
	<anchor name="aboveUC" x="383" y="681"/>
	<anchor name="belowLC" x="261" y="-22"/>
</glyph>
<glyph name="cstroke" format="2">
	<unicode hex="023C"/>
	<advance width="430"/>
	<outline>
		<contour>
			<point x="120" y="-43" type="line"/>
			<point x="405" y="512" type="line"/>
			<point x="381" y="524" type="line"/>
			<point x="95" y="-30" type="line"/>
		</contour>
		<component base="c"/>
	</outline>
	<anchor name="aboveLC" x="300" y="504"/>
	<anchor name="belowLC" x="200" y="-22"/>
</glyph>
<glyph name="Lbar" format="2">
	<unicode hex="023D"/>
	<advance width="460"/>
	<outline>
		<contour>
			<point x="47" y="335" type="line"/>
			<point x="354" y="335" type="line"/>
			<point x="361" y="370" type="line"/>
			<point x="134" y="370" type="line"/>
			<point x="54" y="366" type="line"/>
		</contour>
		<component base="L" xOffset="20"/>
	</outline>
	<anchor name="aboveUC" x="224" y="681"/>
	<anchor name="belowLC" x="241" y="-22"/>
</glyph>
<glyph name="Glottalstop" format="2">
	<unicode hex="0241"/>
	<advance width="467"/>
	<outline>
		<contour>
			<point x="145" y="0" type="line"/>
			<point x="185" y="0" type="line"/>
			<point x="236" y="253" type="line"/>
			<point x="383" y="303"/>
			<point x="477" y="396"/>
			<point x="477" y="514" type="curve" smooth="yes"/>
			<point x="477" y="618"/>
			<point x="406" y="671"/>
			<point x="307" y="671" type="curve" smooth="yes"/>
			<point x="215" y="671"/>
			<point x="136" y="628"/>
			<point x="87" y="584" type="curve"/>
			<point x="107" y="557" type="line"/>
			<point x="154" y="597"/>
			<point x="225" y="637"/>
			<point x="303" y="637" type="curve" smooth="yes"/>
			<point x="389" y="637"/>
			<point x="436" y="590"/>
			<point x="436" y="506" type="curve" smooth="yes"/>
			<point x="436" y="415"/>
			<point x="369" y="332"/>
			<point x="201" y="277" type="curve"/>
		</contour>
	</outline>
	<anchor name="aboveUC" x="312" y="681"/>
	<anchor name="belowLC" x="162" y="-22"/>
</glyph>
<glyph name="Bstroke" format="2">
	<unicode hex="0243"/>
	<advance width="578"/>
	<outline>
		<contour>
			<point x="57" y="0" type="line"/>
			<point x="251" y="0" type="line" smooth="yes"/>
			<point x="409" y="0"/>
			<point x="517" y="66"/>
			<point x="517" y="208" type="curve" smooth="yes"/>
			<point x="517" y="290"/>
			<point x="457" y="334"/>
			<point x="392" y="348" type="curve"/>
			<point x="392" y="352" type="line"/>
			<point x="456" y="363"/>
			<point x="542" y="420"/>
			<point x="542" y="517" type="curve" smooth="yes"/>
			<point x="542" y="606"/>
			<point x="472" y="659"/>
			<point x="349" y="659" type="curve" smooth="yes"/>
			<point x="189" y="659" type="line"/>
		</contour>
		<contour>
			<point x="19" y="178" type="line"/>
			<point x="297" y="178" type="line"/>
			<point x="304" y="211" type="line"/>
			<point x="100" y="211" type="line"/>
			<point x="27" y="209" type="line"/>
		</contour>
		<contour>
			<point x="102" y="34" type="line"/>
			<point x="164" y="334" type="line"/>
			<point x="299" y="334" type="line" smooth="yes"/>
			<point x="412" y="334"/>
			<point x="478" y="279"/>
			<point x="478" y="205" type="curve" smooth="yes"/>
			<point x="478" y="81"/>
			<point x="380" y="34"/>
			<point x="236" y="34" type="curve" smooth="yes"/>
		</contour>
		<contour>
			<point x="170" y="367" type="line"/>
			<point x="222" y="626" type="line"/>
			<point x="332" y="626" type="line" smooth="yes"/>
			<point x="449" y="626"/>
			<point x="501" y="584"/>
			<point x="501" y="514" type="curve" smooth="yes"/>
			<point x="501" y="428"/>
			<point x="428" y="367"/>
			<point x="282" y="367" type="curve" smooth="yes"/>
		</contour>
	</outline>
</glyph>
<glyph name="Ubar" format="2">
	<unicode hex="0244"/>
	<advance width="636"/>
	<outline>
		<contour>
			<point x="43" y="335" type="line"/>
			<point x="618" y="335" type="line"/>
			<point x="625" y="370" type="line"/>
			<point x="130" y="370" type="line"/>
			<point x="51" y="366" type="line"/>
		</contour>
		<component base="U" xOffset="16"/>
	</outline>
	<anchor name="aboveUC" x="400" y="681"/>
	<anchor name="belowLC" x="261" y="-22"/>
</glyph>
<glyph name="Jstroke" format="2">
	<unicode hex="0248"/>
	<advance width="457"/>
	<outline>
		<contour>
			<point x="192" y="335" type="line"/>
			<point x="439" y="335" type="line"/>
			<point x="446" y="370" type="line"/>
			<point x="330" y="370" type="line"/>
			<point x="200" y="366" type="line"/>
		</contour>
		<component base="J"/>
	</outline>
	<anchor name="aboveUC" x="413" y="681"/>
	<anchor name="belowLC" x="136" y="-22"/>
</glyph>
<glyph name="aturned" format="2">
	<unicode hex="0250"/>
	<advance width="478"/>
	<outline>
		<contour>
			<point x="215" y="-12" type="curve" smooth="yes"/>
			<point x="274" y="-12"/>
			<point x="335" y="14"/>
			<point x="386" y="43" type="curve"/>
			<point x="369" y="73" type="line"/>
			<point x="320" y="44"/>
			<point x="268" y="24"/>
			<point x="221" y="24" type="curve" smooth="yes"/>
			<point x="145" y="24"/>
			<point x="112" y="51"/>
			<point x="112" y="127" type="curve" smooth="yes"/>
			<point x="112" y="145"/>
			<point x="114" y="160"/>
			<point x="120" y="183" type="curve"/>
			<point x="322" y="197"/>
			<point x="454" y="260"/>
			<point x="454" y="388" type="curve" smooth="yes"/>
			<point x="454" y="456"/>
			<point x="404" y="492"/>
			<point x="346" y="492" type="curve" smooth="yes"/>
			<point x="284" y="492"/>
			<point x="216" y="456"/>
			<point x="166" y="418" type="curve"/>
			<point x="164" y="418" type="line"/>
			<point x="171" y="480" type="line"/>
			<point x="137" y="480" type="line"/>
			<point x="79" y="186" type="line" smooth="yes"/>
			<point x="75" y="167"/>
			<point x="71" y="142"/>
			<point x="71" y="124" type="curve" smooth="yes"/>
			<point x="71" y="24"/>
			<point x="125" y="-12"/>
		</contour>
		<contour>
			<point x="125" y="217" type="curve"/>
			<point x="157" y="374" type="line"/>
			<point x="220" y="428"/>
			<point x="280" y="456"/>
			<point x="332" y="456" type="curve" smooth="yes"/>
			<point x="377" y="456"/>
			<point x="413" y="432"/>
			<point x="413" y="377" type="curve" smooth="yes"/>
			<point x="413" y="281"/>
			<point x="295" y="228"/>
		</contour>
	</outline>
	<anchor name="aboveLC" x="311" y="504"/>
	<anchor name="belowLC" x="221" y="-22"/>
	<anchor name="ogonekLC" x="279" y="0"/>
</glyph>
<glyph name="alphalatin" format="2">
	<unicode hex="0251"/>
	<advance width="528"/>
	<outline>
		<contour>
			<point x="184" y="-12" type="curve" smooth="yes"/>
			<point x="250" y="-12"/>
			<point x="312" y="25"/>
			<point x="361" y="76" type="curve"/>
			<point x="365" y="76" type="line"/>
			<point x="360" y="51"/>
			<point x="358" y="40"/>
			<point x="358" y="30" type="curve" smooth="yes"/>
			<point x="359" y="4"/>
			<point x="377" y="-8"/>
			<point x="399" y="-8" type="curve" smooth="yes"/>
			<point x="412" y="-8"/>
			<point x="421" y="-6"/>
			<point x="433" y="-1" type="curve"/>
			<point x="427" y="30" type="line"/>
			<point x="421" y="28"/>
			<point x="417" y="28"/>
			<point x="413" y="28" type="curve" smooth="yes"/>
			<point x="403" y="28"/>
			<point x="399" y="34"/>
			<point x="399" y="42" type="curve" smooth="yes"/>
			<point x="399" y="46"/>
			<point x="399" y="52"/>
			<point x="401" y="62" type="curve" smooth="yes"/>
			<point x="485" y="480" type="line"/>
			<point x="451" y="480" type="line"/>
			<point x="432" y="414" type="line"/>
			<point x="429" y="414" type="line"/>
			<point x="403" y="461"/>
			<point x="361" y="492"/>
			<point x="305" y="492" type="curve" smooth="yes"/>
			<point x="172" y="492"/>
			<point x="44" y="346"/>
			<point x="44" y="161" type="curve" smooth="yes"/>
			<point x="44" y="49"/>
			<point x="100" y="-12"/>
		</contour>
		<contour>
			<point x="193" y="24" type="curve" smooth="yes"/>
			<point x="127" y="24"/>
			<point x="86" y="72"/>
			<point x="86" y="169" type="curve" smooth="yes"/>
			<point x="86" y="313"/>
			<point x="190" y="456"/>
			<point x="304" y="456" type="curve" smooth="yes"/>
			<point x="349" y="456"/>
			<point x="388" y="431"/>
			<point x="423" y="369" type="curve"/>
			<point x="373" y="128" type="line"/>
			<point x="316" y="62"/>
			<point x="255" y="24"/>
		</contour>
	</outline>
	<anchor name="aboveLC" x="312" y="504"/>
	<anchor name="belowLC" x="223" y="-22"/>
</glyph>
<glyph name="alphalatinturned" format="1">
	<unicode hex="0252"/>
	<advance width="561"/>
	<outline>
		<contour>
			<point x="221" y="-12" type="curve" smooth="yes"/>
			<point x="354" y="-12"/>
			<point x="482" y="134"/>
			<point x="482" y="319" type="curve" smooth="yes"/>
			<point x="482" y="432"/>
			<point x="426" y="492"/>
			<point x="342" y="492" type="curve" smooth="yes"/>
			<point x="276" y="492"/>
			<point x="216" y="453"/>
			<point x="164" y="411" type="curve"/>
			<point x="161" y="411" type="line"/>
			<point x="167" y="434"/>
			<point x="168" y="445"/>
			<point x="168" y="452" type="curve" smooth="yes"/>
			<point x="167" y="480"/>
			<point x="150" y="492"/>
			<point x="128" y="492" type="curve" smooth="yes"/>
			<point x="114" y="492"/>
			<point x="106" y="490"/>
			<point x="94" y="486" type="curve"/>
			<point x="97" y="452" type="line"/>
			<point x="107" y="456"/>
			<point x="110" y="456"/>
			<point x="113" y="456" type="curve" smooth="yes"/>
			<point x="123" y="456"/>
			<point x="127" y="450"/>
			<point x="127" y="442" type="curve" smooth="yes"/>
			<point x="127" y="438"/>
			<point x="127" y="432"/>
			<point x="125" y="422" type="curve"/>
			<point x="41" y="0" type="line"/>
			<point x="76" y="0" type="line"/>
			<point x="94" y="66" type="line"/>
			<point x="98" y="66" type="line"/>
			<point x="123" y="19"/>
			<point x="165" y="-12"/>
		</contour>
		<contour>
			<point x="222" y="24" type="curve" smooth="yes"/>
			<point x="177" y="24"/>
			<point x="139" y="49"/>
			<point x="103" y="111" type="curve"/>
			<point x="155" y="366" type="line"/>
			<point x="210" y="419"/>
			<point x="280" y="456"/>
			<point x="333" y="456" type="curve" smooth="yes"/>
			<point x="399" y="456"/>
			<point x="440" y="408"/>
			<point x="440" y="312" type="curve" smooth="yes"/>
			<point x="440" y="167"/>
			<point x="336" y="24"/>
		</contour>
		<contour>
			<point name="aboveLC" x="323" y="504" type="move"/>
		</contour>
		<contour>
			<point name="belowLC" x="223" y="-22" type="move"/>
		</contour>
	</outline>
</glyph>
<glyph name="bhook" format="2">
	<unicode hex="0253"/>
	<advance width="525"/>
	<outline>
		<contour>
			<point x="220" y="-12" type="curve" smooth="yes"/>
			<point x="352" y="-12"/>
			<point x="480" y="134"/>
			<point x="480" y="318" type="curve" smooth="yes"/>
			<point x="480" y="430"/>
			<point x="424" y="490"/>
			<point x="340" y="490" type="curve" smooth="yes"/>
			<point x="274" y="490"/>
			<point x="213" y="452"/>
			<point x="161" y="410" type="curve"/>
			<point x="159" y="410" type="line"/>
			<point x="180" y="508" type="line"/>
			<point x="197" y="589" type="line" smooth="yes"/>
			<point x="210" y="655"/>
			<point x="245" y="698"/>
			<point x="300" y="698" type="curve" smooth="yes"/>
			<point x="329" y="698"/>
			<point x="349" y="691"/>
			<point x="367" y="679" type="curve"/>
			<point x="384" y="706" type="line"/>
			<point x="361" y="722"/>
			<point x="337" y="732"/>
			<point x="300" y="732" type="curve" smooth="yes"/>
			<point x="232" y="732"/>
			<point x="178" y="688"/>
			<point x="158" y="588" type="curve" smooth="yes"/>
			<point x="41" y="0" type="line"/>
			<point x="74" y="0" type="line"/>
			<point x="92" y="67" type="line"/>
			<point x="96" y="67" type="line"/>
			<point x="121" y="19"/>
			<point x="163" y="-12"/>
		</contour>
		<contour>
			<point x="221" y="22" type="curve" smooth="yes"/>
			<point x="175" y="22"/>
			<point x="136" y="47"/>
			<point x="100" y="110" type="curve"/>
			<point x="153" y="367" type="line"/>
			<point x="208" y="418"/>
			<point x="279" y="456"/>
			<point x="332" y="456" type="curve" smooth="yes"/>
			<point x="399" y="456"/>
			<point x="441" y="408"/>
			<point x="441" y="311" type="curve" smooth="yes"/>
			<point x="441" y="166"/>
			<point x="336" y="22"/>
		</contour>
	</outline>
	<anchor name="aboveUC" x="382" y="729"/>
	<anchor name="belowLC" x="231" y="-22"/>
</glyph>
<glyph name="oopen" format="2">
	<unicode hex="0254"/>
	<advance width="429"/>
	<outline>
		<contour>
			<point x="118" y="-12" type="curve" smooth="yes"/>
			<point x="253" y="-12"/>
			<point x="381" y="108"/>
			<point x="381" y="298" type="curve" smooth="yes"/>
			<point x="381" y="421"/>
			<point x="314" y="492"/>
			<point x="222" y="492" type="curve" smooth="yes"/>
			<point x="154" y="492"/>
			<point x="109" y="467"/>
			<point x="66" y="432" type="curve"/>
			<point x="86" y="405" type="line"/>
			<point x="125" y="439"/>
			<point x="164" y="458"/>
			<point x="217" y="458" type="curve" smooth="yes"/>
			<point x="292" y="458"/>
			<point x="342" y="391"/>
			<point x="342" y="292" type="curve" smooth="yes"/>
			<point x="342" y="138"/>
			<point x="243" y="22"/>
			<point x="120" y="22" type="curve" smooth="yes"/>
			<point x="70" y="22"/>
			<point x="31" y="45"/>
			<point x="5" y="78" type="curve"/>
			<point x="-19" y="52" type="line"/>
			<point x="9" y="16"/>
			<point x="55" y="-12"/>
		</contour>
	</outline>
	<anchor name="aboveLC" x="234" y="503"/>
	<anchor name="baseLC" x="133" y="0"/>
	<anchor name="belowLC" x="133" y="-22"/>
</glyph>
<glyph name="ccurl" format="2">
	<unicode hex="0255"/>
	<advance width="432"/>
	<outline>
		<contour>
			<point x="38" y="-67" type="line"/>
			<point x="100" y="51"/>
			<point x="208" y="138"/>
			<point x="282" y="138" type="curve" smooth="yes"/>
			<point x="324" y="138"/>
			<point x="338" y="111"/>
			<point x="334" y="86" type="curve" smooth="yes"/>
			<point x="327" y="49"/>
			<point x="277" y="22"/>
			<point x="217" y="22" type="curve" smooth="yes"/>
			<point x="126" y="22"/>
			<point x="81" y="78"/>
			<point x="81" y="183" type="curve" smooth="yes"/>
			<point x="81" y="331"/>
			<point x="189" y="458"/>
			<point x="298" y="458" type="curve" smooth="yes"/>
			<point x="342" y="458"/>
			<point x="371" y="442"/>
			<point x="398" y="411" type="curve"/>
			<point x="421" y="433" type="line"/>
			<point x="394" y="469"/>
			<point x="355" y="492"/>
			<point x="300" y="492" type="curve" smooth="yes"/>
			<point x="172" y="492"/>
			<point x="43" y="364"/>
			<point x="43" y="178" type="curve" smooth="yes"/>
			<point x="43" y="57"/>
			<point x="109" y="-12"/>
			<point x="212" y="-12" type="curve" smooth="yes"/>
			<point x="300" y="-12"/>
			<point x="364" y="34"/>
			<point x="373" y="90" type="curve" smooth="yes"/>
			<point x="380" y="136"/>
			<point x="352" y="172"/>
			<point x="289" y="172" type="curve" smooth="yes"/>
			<point x="194" y="172"/>
			<point x="87" y="83"/>
			<point x="6" y="-54" type="curve"/>
		</contour>
	</outline>
	<anchor name="aboveLC" x="291" y="503"/>
	<anchor name="belowLC" x="222" y="-22"/>
</glyph>
